<?xml version="1.0" encoding="UTF-8" standalone="no"?>
<svg
   xmlns:dc="http://purl.org/dc/elements/1.1/"
   xmlns:cc="http://creativecommons.org/ns#"
   xmlns:rdf="http://www.w3.org/1999/02/22-rdf-syntax-ns#"
   xmlns:svg="http://www.w3.org/2000/svg"
   xmlns="http://www.w3.org/2000/svg"
   viewBox="0 0 858.45331 310.97333"
   height="310.97333"
   width="858.45331"
   xml:space="preserve"
   id="svg2"
   version="1.1"><metadata
     id="metadata8"><rdf:RDF><cc:Work
         rdf:about=""><dc:format>image/svg+xml</dc:format><dc:type
           rdf:resource="http://purl.org/dc/dcmitype/StillImage" /></cc:Work></rdf:RDF></metadata><defs
     id="defs6" /><g
     transform="matrix(1.3333333,0,0,-1.3333333,0,310.97333)"
     id="g10"><g
       transform="scale(0.1)"
       id="g12"><path
         id="path14"
         style="fill:#040606;fill-opacity:1;fill-rule:nonzero;stroke:none"
         d="m 5467.81,1514.49 -2.52,1.91 -412.66,235.9 -206.57,-119.03 V 713.961 L 5052.95,596.082 5637.92,933.23 5437.01,1048.07 5046.79,823.172 V 1525.4 l 1131.94,-647.638 -0.68,-4.09 C 6116.88,688.648 6001.12,529.461 5843.3,413.309 5682.2,294.762 5491.27,232.09 5291.16,232.09 c -515.04,0 -934.06,419.031 -934.06,934.08 0,515.06 419.02,934.08 934.06,934.08 394.44,0 748.23,-250.12 880.36,-622.4 9.81,-27.63 18.39,-56.02 25.55,-84.52 l 207.27,120.13 c -8.84,28.37 -18.85,56.63 -29.78,84.07 -85.35,214.35 -231.15,397.22 -421.63,528.85 -194.99,134.73 -423.83,205.95 -661.77,205.95 -311.49,0 -604.33,-121.3 -824.58,-341.56 -220.26,-220.26 -341.56,-513.1 -341.56,-824.6 0,-311.49 121.3,-604.338 341.56,-824.611 C 4686.83,121.301 4979.67,0 5291.16,0 c 275.78,0 543.32,98.0898 753.34,276.18 206.61,175.211 346.3,417.55 393.92,682.718 l -970.61,555.592" /><path
         id="path16"
         style="fill:#040606;fill-opacity:1;fill-rule:nonzero;stroke:none"
         d="m 168.512,1332.85 c 26.367,52.72 67.871,76.05 146.086,76.05 78.211,0 119.629,-23.33 146.004,-76.05 26.945,-53.86 26.5,-161.11 26.5,-190.07 H 143.109 c 0,28.96 -1.55,136.21 25.403,190.07 z M 489.117,911.539 c -1.887,-33.801 -0.926,-74.551 -35.004,-123.641 -25.707,-37.027 -62.55,-63.168 -138.515,-63.168 -75.965,0 -106.004,34.258 -127.141,62.559 -37.035,49.582 -44.82,129.461 -44.82,231.771 h 486.144 l 0.067,-0.01 c -2.02,159.9 7.57,310.47 -64.61,407.91 -58.742,79.3 -141.023,104.36 -249.64,104.36 -108.618,0 -180.735,-21.96 -245.6683,-105.36 C -4.5625,1330.28 0.195313,1170.24 0.195313,1141.93 0.195313,1119.3 0,1026.15 0,973.082 0,826.441 20.9063,761.68 65.8828,705.012 130.137,624.051 221.668,602.121 315.598,602.121 c 93.929,0 195.703,22.129 253.011,102.481 39.309,55.117 60.246,120.73 61.789,206.929 H 503.512 l -14.395,0.008" /><path
         id="path18"
         style="fill:#040606;fill-opacity:1;fill-rule:nonzero;stroke:none"
         d="m 780.367,605.531 142.813,82.18 V 1736.28 H 780.367 V 605.531" /><path
         id="path20"
         style="fill:#040606;fill-opacity:1;fill-rule:nonzero;stroke:none"
         d="m 1519.02,837.051 c -23.7,-56.719 -72.62,-94.27 -138.92,-94.27 -68.2,0 -107.51,20.969 -134.37,88.071 -27.4,68.418 -29.28,135.617 -29.28,238.708 v 12.83 c 0,103.09 -2.66,162.43 24.74,230.85 26.86,67.1 70.71,95.92 138.91,95.92 72.3,0 118.28,-44 141.98,-100.71 28.42,-68 22.92,-188.76 22.92,-226.06 v -12.83 c 0,-37.3 2.44,-164.509 -25.98,-232.509 z m 34.27,613.959 c -57.98,57.04 -134.59,80.81 -194.3,80.81 -70.63,0 -160.28,-21.55 -220.17,-103.4 -68.71,-93.9 -64.32,-250.95 -64.32,-278.73 0,-22.21 -0.18,-113.63 -0.18,-165.71 0,-143.91 19.28,-207.46 60.76,-263.082 59.27,-79.449 140.26,-100.968 223.91,-100.968 64.76,0 130.97,19.621 186.85,69.621 V 585.16 l -0.05,-2.211 c 1.16,-74.16 -1.01,-130.5 -27.66,-166.66 -26.89,-36.48 -76.76,-62.617 -122.84,-62.617 -46.08,0 -93.06,23.078 -118.96,60.008 -22.39,31.922 -29.14,60.121 -33.43,117.961 h -141.07 c 0,-86 20.95,-151.821 60.27,-206.961 57.33,-80.391 161.75,-103.461 233.99,-103.461 72.25,0 146.22,11.211 217.27,86.32 68.67,72.602 75.28,143.371 75.28,269.293 l 0.01,937.298 h -135.36 v -63.12" /><path
         id="path22"
         style="fill:#040606;fill-opacity:1;fill-rule:nonzero;stroke:none"
         d="m 3526.78,991.289 c 0,-28.969 -4.95,-129.18 -30.69,-183.07 -25.19,-52.731 -61.68,-83.16 -138.5,-83.16 -76.83,0 -113.78,30.429 -138.97,83.16 -25.73,53.89 -30.69,154.101 -30.69,183.07 v 151.701 c 0,28.97 4.96,129.17 30.69,183.06 25.19,52.74 62.14,83.16 138.97,83.16 76.82,0 113.31,-30.42 138.5,-83.16 25.74,-53.89 30.69,-154.09 30.69,-183.06 z m 74.16,-283.848 c 73.85,95.719 69.14,255.821 69.14,284.141 v 150.508 c 0,28.32 4.71,188.41 -69.14,284.13 -64.38,83.44 -158.74,105.41 -244.96,105.41 -86.22,0 -177.83,-21.97 -242.21,-105.41 -73.85,-95.72 -69.14,-255.81 -69.14,-284.13 V 991.582 c 0,-28.32 -4.71,-188.422 69.14,-284.141 64.38,-83.441 155.99,-105.402 242.21,-105.402 86.22,0 180.58,21.961 244.96,105.402" /><path
         id="path24"
         style="fill:#040606;fill-opacity:1;fill-rule:nonzero;stroke:none"
         d="m 2807.42,1772.98 -142.81,-82.19 v -177.04 h -142.46 v -124.09 h 142.46 V 872.539 l -0.21,-60.449 c 0,-175.508 96.69,-198.629 197.23,-198.629 43.44,0 115.4,17.168 115.4,17.168 v 121.859 c 0,0 -66.24,-7.988 -99.98,-11.156 -40.99,-3.863 -69.72,16.457 -69.72,56.75 v 69.008 l 0.09,5.449 v 517.121 h 169.61 v 124.09 h -169.61 v 259.23" /><path
         id="path26"
         style="fill:#040606;fill-opacity:1;fill-rule:nonzero;stroke:none"
         d="m 2109.12,724.82 c -101.61,0 -133.87,79.032 -133.87,155.899 0,163.961 167.75,164.151 195.7,164.961 53.36,1.54 128.47,3.47 128.47,3.47 0,0 1.07,-55.439 1.07,-128.548 0,-72.133 -62.89,-195.782 -191.37,-195.782 z m 46.31,806.9 c -93.95,0 -189.42,-22.06 -253.08,-102.51 -35.39,-44.75 -47.71,-91.59 -51.74,-166.49 h 144.07 c 2.2,35.27 8.1,68.01 24.74,92.57 25.3,37.33 73.09,53.78 128.39,53.78 75.99,0 115.38,-21.02 136.42,-75.88 19.48,-50.78 15.36,-129.56 15.36,-160.14 0,0 -64.87,-0.6 -87.76,-0.96 -59.95,-0.96 -384.78,4.32 -384.78,-288.34 0,-188.898 107.75,-281.668 255.08,-281.668 108.68,0 180.37,44.316 224.76,88.277 v -70.558 h 135.9 l 0.01,590.339 c 0.69,112.2 -0.67,166.81 -37.59,218.66 -64.75,90.95 -155.82,102.92 -249.78,102.92" /></g></g></svg>