<?xml version="1.0" encoding="UTF-8"?>
<svg width="465.39" height="128.87" version="1.1" xmlns="http://www.w3.org/2000/svg" xmlns:cc="http://creativecommons.org/ns#" xmlns:dc="http://purl.org/dc/elements/1.1/" xmlns:rdf="http://www.w3.org/1999/02/22-rdf-syntax-ns#">
 <metadata>
  <rdf:RDF>
   <cc:Work rdf:about="">
    <dc:format>image/svg+xml</dc:format>
    <dc:type rdf:resource="http://purl.org/dc/dcmitype/StillImage"/>
    <dc:title/>
   </cc:Work>
  </rdf:RDF>
 </metadata>
 <path d="m10.857 24.97h12.147a1.2566 1.2566 0 0 0 1.2524-1.2524l-0.1466-13.295a13.781 13.781 0 0 1 1.3613-6.1657l0.41887-0.77909c-0.04189 0.0083-0.09215 0.02932-0.13822 0.07539l-23.511 23.314c-0.041886 0.04189-0.075396 0.08377-0.083773 0.13822l1.244-0.61154c2.0943-0.9215 4.5237-1.4241 7.5396-1.4241zm94.153-2.5383c-0.96339-5.1437-4.0211-7.682-6.7856-8.6789-2.9823-1.0765-9.0349-2.1949-16.637-3.0912-6.1154-0.72045-13.303-0.66181-17.647-0.52777-0.51939-3.5687-3.0242-6.8275-5.8641-7.9584-7.4642-3.0033-18.996-2.2786-21.957-1.4493-2.354 0.65762-4.9552 2.0106-6.4086 4.0839-0.97177 1.3823-1.6001 3.1624-1.6043 5.6463l0.07539 7.6569 0.07539 5.6128a4.7751 4.7751 0 0 1-4.7709 4.7667h-12.147c-2.5844 0-4.5531 0.43143-6.061 1.1184a8.4611 8.4611 0 0 0-3.3928 2.7017c-1.6168 2.1697-1.8975 4.8463-1.8849 7.5396 0 0 0.025132 2.2326 0.56128 6.5552 0.44819 3.3425 4.0756 26.707 7.5186 33.811 1.3404 2.7645 2.2284 3.9164 4.8505 5.1353 5.8474 2.5048 19.201 5.2861 25.459 6.0861 6.2578 0.80003 10.17 2.4797 12.503-2.421a121.81 121.81 0 0 0 1.1016-2.9907c2.0273-6.1489 2.3121-11.603 2.3121-15.548 0-0.40211 0.58641-0.41886 0.58641 0 0 2.7855-0.53196 12.65 6.9113 15.289 2.9404 1.0472 9.0475 1.9687 15.247 2.6975 5.6044 0.64505 9.6339 2.8483 9.6339 17.228 0 8.7962-1.843 9.948-11.443 9.948-7.7909 0-10.756 0.20105-10.756-5.9898 0-5.0012 4.9426-4.4819 8.6119-4.4819 1.6755 0 0.44819-1.2566 0.44819-4.3017 0-3.0452 1.9184-4.8421 0.10472-4.8882-12.675-0.34766-20.131-0.01257-20.131 15.833 0 14.388 5.5081 17.06 23.456 17.06 14.103 0 19.075-0.41887 24.897-18.531 1.1519-3.5687 3.9373-14.451 5.6254-32.73 1.0681-11.561-1.0053-46.435-2.6472-55.24zm-24.587 38.552a25.676 25.676 0 0 0-4.9845 0.30158c0.43981-3.552 1.9058-7.9082 7.0998-7.7281 5.751 0.19687 6.5552 5.6295 6.5762 9.3114-2.4294-1.0807-5.4243-1.7676-8.6956-1.8849z" fill="#00a82d" stroke-width="4.1886"/>
 <path d="m125.12 79.736h4.7834l0.23038-30.548h-5.0138v-5.8641h31.7l0.38536 11.879h-6.283l-0.54452-6.0191h-11.959l-0.0753 11.954h12.147v5.8641h-12.147l-0.0753 12.734h12.034l0.77072-6.7856h6.7856l-0.77082 12.65h-31.968zm82.533-30.548h-4.0085l-15.046 36.408h-8.637l-15.079-36.408h-4.2431v-5.8641h18.011v5.8641h-4.2431l10.413 28.692h0.15498l10.338-28.692h-5.0892v-5.8641h17.433zm4.1635 30.548h4.7834l0.23038-30.548h-5.0054v-5.8641h31.7l0.38536 11.879h-6.283l-0.54452-6.0191h-11.959l-0.0754 11.954h12.147v5.8641h-12.147l-0.0838 12.734h12.034l0.7749-6.7856h6.7856l-0.77065 12.65h-31.959v-5.8641zm40.651 0h4.7834l0.23037-30.548h-5.0138v-5.8641h19.519c9.8014 0 12.96 5.6295 12.96 11.108 0 4.8588-2.3875 9.215-9.9522 11.184v0.15498c3.9373 1.0807 4.9426 2.0818 8.8716 8.8716 2.6179 4.3981 3.5478 5.0934 5.0138 5.0934 0.61574 0 1.2357-0.15498 1.7718-0.23038v6.0903h-4.3227c-5.7091 0-6.3961-0.69113-10.87-9.5669-4.0127-7.8663-4.9426-8.4066-8.0255-8.4066h-1.6922l-0.0838 12.147h5.0138v5.8641h-18.204v-5.8641zm13.349-17.978h3.3509c4.5489 0 7.6317-2.5132 7.6317-6.4003 0-3.8536-1.9268-6.1741-5.7803-6.1741h-5.0934l-0.0712 12.566zm63.638-12.574h-5.0138v-5.8641h16.587v5.8641h-4.7834l-0.23038 36.408h-6.283l-22.602-30.083h-0.15499l-0.23456 24.223h5.018v5.8641h-16.587v-5.8641h4.7834l0.23038-30.548h-5.0138v-5.8641h12.491l21.362 28.625h0.15497l0.23037-22.757zm35.604-6.7144c14.577 0 20.943 9.6423 20.943 21.37 0 13.345-7.9459 22.598-20.943 22.598-14.576 0-20.943-9.6423-20.943-21.446 0-13.27 7.9417-22.535 20.943-22.535zm0 37.183c7.8663 0 12.34-6.7144 12.34-15.276 0-9.6339-5.2358-15.079-12.34-15.079-7.8747 0-12.344 6.7102-12.344 15.427 0 9.4873 5.2484 14.966 12.344 14.966zm34.246 0.08377h4.775l0.23038-30.548h-8.5197l-0.31414 6.0191h-6.3961l0.41886-11.879h37.878l0.41886 11.879h-6.4086l-0.30995-6.0191h-8.4862l-0.23037 30.548h5.0096v5.8641h-18.2v-5.8641zm33.316 0h4.7834l0.23456-30.548h-5.018v-5.8641h31.708l0.41886 11.879h-6.283l-0.54452-6.0191h-11.954l-0.0838 11.954h12.147v5.8641h-12.147l-0.0838 12.734h12.034l0.7749-6.7856h6.7856l-0.76651 12.65h-31.938v-5.8641z" stroke-width="4.1886"/>
</svg>
