<?xml version="1.0" encoding="UTF-8" standalone="no"?>
<svg
   xmlns:dc="http://purl.org/dc/elements/1.1/"
   xmlns:cc="http://creativecommons.org/ns#"
   xmlns:rdf="http://www.w3.org/1999/02/22-rdf-syntax-ns#"
   xmlns:svg="http://www.w3.org/2000/svg"
   xmlns="http://www.w3.org/2000/svg"
   xmlns:sodipodi="http://sodipodi.sourceforge.net/DTD/sodipodi-0.dtd"
   xmlns:inkscape="http://www.inkscape.org/namespaces/inkscape"
   version="1.0"
   width="358.69333pt"
   height="128.93047pt"
   viewBox="0 0 358.69332 128.93047"
   preserveAspectRatio="xMidYMid meet"
   id="svg4"
   sodipodi:docname="fna-logo.svg"
   inkscape:version="1.0 (4035a4fb49, 2020-05-01)">
  <metadata
     id="metadata10">
    <rdf:RDF>
      <cc:Work
         rdf:about="">
        <dc:format>image/svg+xml</dc:format>
        <dc:type
           rdf:resource="http://purl.org/dc/dcmitype/StillImage" />
        <dc:title />
      </cc:Work>
    </rdf:RDF>
  </metadata>
  <defs
     id="defs8" />
  <sodipodi:namedview
     inkscape:document-rotation="0"
     pagecolor="#ffffff"
     bordercolor="#666666"
     borderopacity="1"
     objecttolerance="10"
     gridtolerance="10"
     guidetolerance="10"
     inkscape:pageopacity="0"
     inkscape:pageshadow="2"
     inkscape:window-width="1920"
     inkscape:window-height="1017"
     id="namedview6"
     showgrid="false"
     inkscape:zoom="1.1321304"
     inkscape:cx="362.50377"
     inkscape:cy="63.72344"
     inkscape:window-x="-8"
     inkscape:window-y="-8"
     inkscape:window-maximized="1"
     inkscape:current-layer="svg4" />
  <g
     transform="matrix(0.1,0,0,-0.1,22.829307,5.5900513)"
     fill="#000000"
     stroke="none"
     id="g2" />
  <g
     id="g867"
     transform="matrix(0.74999999,0,0,0.74999999,-62.591523,61.946071)">
    <polygon
       id="polygon840"
       points="48.594,4.86 57.45,20.774 57.45,45.148 57.45,45.146 48.59,45.146 48.59,4.851 48.59,4.853 48.59,4.854 57.45,4.854 57.454,4.858 57.45,4.851 82.61,45.131 73.762,29.191 73.762,4.851 82.622,4.851 82.622,45.146 82.617,45.133 82.621,45.146 82.622,45.148 82.621,45.148 73.762,45.148 "
       fill="url(#SVGID_1_)" />
    <polygon
       id="polygon847"
       points="99.653,37.262 114.82,37.262 118.028,45.148 127.551,45.148 111.159,4.851 103.313,4.851 102.474,6.916 114.828,37.262 95.969,22.906 86.923,45.148 96.445,45.148 "
       fill="url(#SVGID_2_)" />
    <polygon
       id="polygon854"
       points="43.549,13.803 43.549,5.013 15.442,5.013 15.442,44.988 24.232,44.988 24.232,29.395 43.549,29.395 43.549,20.605 24.232,20.605 24.232,13.803 "
       fill="url(#SVGID_3_)" />
  </g>
  <g
     id="g935"
     transform="matrix(3.1995052,0,0,3.1995052,-49.406759,-15.5208)"
     style="fill:#7933ea;fill-opacity:1">
    <polygon
       id="polygon908"
       points="57.45,45.148 57.45,45.146 48.59,45.146 48.59,4.851 48.59,4.853 48.59,4.854 57.45,4.854 57.454,4.858 57.45,4.851 82.61,45.131 73.762,29.191 73.762,4.851 82.622,4.851 82.622,45.146 82.617,45.133 82.621,45.146 82.622,45.148 82.621,45.148 73.762,45.148 48.594,4.86 57.45,20.774 "
       fill="url(#SVGID_1_)"
       style="fill:#7933ea;fill-opacity:1" />
    <polygon
       id="polygon915"
       points="118.028,45.148 127.551,45.148 111.159,4.851 103.313,4.851 102.474,6.916 114.828,37.262 95.969,22.906 86.923,45.148 96.445,45.148 99.653,37.262 114.82,37.262 "
       fill="url(#SVGID_2_)"
       style="fill:#7933ea;fill-opacity:1" />
    <polygon
       id="polygon922"
       points="15.442,5.013 15.442,44.988 24.232,44.988 24.232,29.395 43.549,29.395 43.549,20.605 24.232,20.605 24.232,13.803 43.549,13.803 43.549,5.013 "
       fill="url(#SVGID_3_)"
       style="fill:#7933ea;fill-opacity:1" />
  </g>
</svg>
