<?xml version="1.0" encoding="UTF-8"?>
<svg width="466px" height="132px" version="1.1" viewBox="0 0 466 132" xmlns="http://www.w3.org/2000/svg" xmlns:cc="http://creativecommons.org/ns#" xmlns:dc="http://purl.org/dc/elements/1.1/" xmlns:rdf="http://www.w3.org/1999/02/22-rdf-syntax-ns#">
 <metadata>
  <rdf:RDF>
   <cc:Work rdf:about="">
    <dc:format>image/svg+xml</dc:format>
    <dc:type rdf:resource="http://purl.org/dc/dcmitype/StillImage"/>
    <dc:title>Group 2</dc:title>
   </cc:Work>
  </rdf:RDF>
 </metadata>
 <!-- Generator: Sketch 49.1 (51147) - http://www.bohemiancoding.com/sketch -->
 <title>Group 2</title>
 <desc>Created with Sketch.</desc>
 <defs>
  <linearGradient id="linearGradient-2" x1="36.544%" x2="36.544%" y1="16.833%" y2="63.162%">
   <stop stop-color="#67ACE3" offset="0"/>
   <stop stop-color="#4C90D4" offset="1"/>
  </linearGradient>
  <linearGradient id="linearGradient-3" x1="53%" x2="53%" y1="-23.613%" y2="23.854%">
   <stop stop-color="#67ACE3" offset="0"/>
   <stop stop-color="#4C90D4" offset="1"/>
  </linearGradient>
 </defs>
 <g fill="none" fill-rule="evenodd">
  <g transform="translate(0 -1)" fill-rule="nonzero">
   <g transform="translate(150.04 32.268)" fill="#000">
    <path d="m0.385 0.886h16.985c18.655 0 26.149 13.992 26.149 30.061 0 16.073-7.494 30.064-26.149 30.064h-16.985v-60.125zm5.494 55.629h11.656c13.324 0 20.486-9.327 20.486-25.567 0-16.233-7.162-25.563-20.486-25.563h-11.656v51.13z"/>
    <polygon points="53.416 61.012 53.416 0.887 87.723 0.887 87.723 5.385 58.912 5.385 58.912 27.535 79.644 27.535 79.644 32.032 58.912 32.032 58.912 56.515 89.307 56.515 89.307 61.012"/>
    <polygon points="89.545 0.886 95.373 0.886 111.7 53.182 111.86 53.182 128.68 0.886 134.51 0.886 114.53 61.011 109.03 61.011"/>
    <polygon points="141 61.012 141 0.887 175.3 0.887 175.3 5.385 146.49 5.385 146.49 27.535 167.22 27.535 167.22 32.032 146.49 32.032 146.49 56.515 176.89 56.515 176.89 61.012"/>
    <polygon points="184.79 0.886 190.28 0.886 190.28 56.514 217.1 56.514 217.1 61.011 184.79 61.011"/>
    <path d="m267.05 30.947c0 17.737-8.658 30.896-23.73 30.896s-23.736-13.159-23.736-30.896 8.664-30.893 23.736-30.893 23.73 13.156 23.73 30.893zm-5.498 0c0-16.905-7.158-26.396-18.232-26.396-11.08 0-18.242 9.491-18.242 26.396s7.162 26.403 18.242 26.403c11.073 1e-3 18.232-9.497 18.232-26.403z"/>
    <path d="m276.94 61.012v-60.125h18.155c14.324 0 20.324 6.666 20.324 16.737 0 10.079-6 16.74-20.324 16.74h-12.656v26.648h-5.499zm5.498-31.145h12.657c10.414 0 14.828-4.329 14.828-12.243 0-7.911-4.414-12.24-14.828-12.24h-12.656v24.483h-1e-3z"/>
   </g>
   <g transform="translate(.037766 .26803)">
    <g transform="translate(37)" fill="url(#linearGradient-2)">
     <path d="m50.503 96.436c-12.338 0-24.216-3.336-34.709-10.6-7.314-5.061-15.779-16.489-15.779-35.863 0-35.943 18.36-49.061 55.256-49.061h66.426l6.396 20.472h-67.76c-24.352 0-38.832 1.899-38.832 28.589 0 8.816 2.486 15.09 7.603 19.178 8.648 6.91 25.457 7.204 35.728 6.214 0 0 4.214-13.551 4.908-15.751 0.813-2.578 0.457-3.193-2.079-3.193h-17.237c-4.898 0-9.71-2.465-9.71-8.386 0-5.718 4.477-9.037 10.614-9.037h36.607c5.37 0 10.85 0.77 8.054 9.271l-14.807 44.906c1e-3 1e-3 -12.096 3.261-30.679 3.261z"/>
    </g>
    <path d="m128.97 104.06c-7.463 5.225-18.517 8.113-37.274 8.113-32.329 0-55.99-11.617-65.637-34.138-4.561-10.645-4.122-22.71-4.122-39.027h-21.485c0 17.206-0.296 30.697 4.307 43.123 12.07 32.596 43.152 50.109 84.906 50.109 40.416 0 57.164-11.525 68.082-28.18h-28.777z" fill="url(#linearGradient-3)"/>
   </g>
   <g transform="translate(.037766 59.268)" fill="#377FC9">
    <path d="m106.62 1c-0.958 3.051-4.787 15.365-4.787 15.365-10.271 0.99-27.08 0.696-35.728-6.214-2.906-2.323-4.962-5.353-6.197-9.151h-22.069c2.297 13.391 9.007 21.72 14.956 25.836 10.493 7.264 22.371 10.6 34.709 10.6 18.583 0 30.68-3.26 30.68-3.26l10.939-33.176h-22.503z"/>
    <path d="m4.762 23.129c12.07 32.596 43.152 50.109 84.906 50.109 40.416 0 57.164-11.525 68.082-28.18h-28.776c-7.463 5.225-18.517 8.113-37.274 8.113-32.329 0-55.99-11.617-65.637-34.139-2.356-5.5-3.373-11.385-3.81-18.033h-21.513c0.425 8.007 1.468 15.233 4.022 22.13z"/>
   </g>
  </g>
 </g>
</svg>
