<?xml version="1.0" encoding="UTF-8" standalone="no"?>
<svg
   xmlns:dc="http://purl.org/dc/elements/1.1/"
   xmlns:cc="http://creativecommons.org/ns#"
   xmlns:rdf="http://www.w3.org/1999/02/22-rdf-syntax-ns#"
   xmlns:svg="http://www.w3.org/2000/svg"
   xmlns="http://www.w3.org/2000/svg"
   xmlns:sodipodi="http://sodipodi.sourceforge.net/DTD/sodipodi-0.dtd"
   xmlns:inkscape="http://www.inkscape.org/namespaces/inkscape"
   inkscape:version="1.0 (4035a4fb49, 2020-05-01)"
   height="533.39191"
   width="4156.3359"
   sodipodi:docname="ggj-logo.svg"
   xml:space="preserve"
   viewBox="0 0 4156.3359 533.3919"
   y="0px"
   x="0px"
   id="Layer_1"
   version="1.1"><metadata
   id="metadata57"><rdf:RDF><cc:Work
       rdf:about=""><dc:format>image/svg+xml</dc:format><dc:type
         rdf:resource="http://purl.org/dc/dcmitype/StillImage" /></cc:Work></rdf:RDF></metadata><defs
   id="defs55" /><sodipodi:namedview
   inkscape:current-layer="g30"
   inkscape:window-maximized="1"
   inkscape:window-y="-8"
   inkscape:window-x="-8"
   inkscape:cy="726.24621"
   inkscape:cx="2070.3232"
   inkscape:zoom="0.27325"
   showgrid="false"
   id="namedview53"
   inkscape:window-height="1017"
   inkscape:window-width="1920"
   inkscape:pageshadow="2"
   inkscape:pageopacity="0"
   guidetolerance="10"
   gridtolerance="10"
   objecttolerance="10"
   borderopacity="1"
   bordercolor="#666666"
   pagecolor="#ffffff" />
<style
   id="style2"
   type="text/css">
	.st0{fill:#FFFFFF;}
	.st1{fill-rule:evenodd;clip-rule:evenodd;fill:#FFFFFF;}
	.st2{fill-rule:evenodd;clip-rule:evenodd;fill:#22A9E0;}
	.st3{fill-rule:evenodd;clip-rule:evenodd;fill:#F3EB33;}
</style>
<g
   transform="translate(-90.941544,60.295105)"
   id="g50">
	<g
   id="g30">
		
		
		
		
		
		
		
		
		
		
		
		
		
	<rect
   y="-60.295105"
   x="90.941544"
   height="533.39191"
   width="4156.3359"
   id="rect882"
   style="fill:#282561;fill-opacity:1;stroke-width:4.62753" /><path
   style="stroke-width:3.32924"
   id="path10"
   d="M 1558.4481,324.84061 V 122.08983 c 0,-12.31818 6.9914,-19.3096 19.6425,-19.3096 h 93.5517 c 42.9472,0 67.9165,26.30101 67.9165,61.25805 0,30.29608 -19.9755,50.60445 -41.9485,55.26539 25.6352,3.9951 46.6094,29.96316 46.6094,59.26049 0,37.95335 -25.3022,64.9202 -69.5811,64.9202 h -96.548 c -12.6511,0.33292 -19.6425,-6.65848 -19.6425,-18.64375 z m 106.2028,-119.85268 c 24.3034,0 37.6204,-15.3145 37.6204,-34.95702 0,-19.97545 -13.317,-35.28996 -37.6204,-35.28996 h -70.247 v 70.5799 h 70.247 z m 1.6646,107.20157 c 25.3022,0 40.6167,-14.31574 40.6167,-37.95335 0,-19.97545 -13.6499,-37.2875 -40.6167,-37.2875 h -71.9116 v 75.24085 z"
   class="st0" /><path
   style="stroke-width:3.32924"
   id="path4"
   d="m 1061.7251,236.61572 v 55.26541 c 0,9.65479 -2.6634,16.97913 -9.6548,23.63761 -22.3059,20.30837 -51.6032,33.2924 -87.55906,33.2924 -68.91528,-0.33291 -124.84653,-50.27153 -124.84653,-125.17946 0,-75.24084 55.93125,-124.51361 125.17946,-124.51361 36.28873,0 62.58973,12.65112 82.89813,32.95949 3.3292,2.99631 4.9938,7.32434 4.9938,11.98527 0,9.32187 -7.6572,16.64621 -16.9791,16.64621 -4.328,0 -8.656,-1.66463 -11.9853,-4.66095 -14.6486,-14.64866 -35.28992,-24.63638 -58.92753,-24.63638 -50.27154,0 -87.89196,38.28627 -87.89196,92.55289 0,53.93371 37.62042,92.88583 87.89196,92.88583 26.63393,0 49.60573,-12.98404 60.92513,-23.97053 v -43.28013 h -63.2556 c -8.65603,0 -15.98036,-7.32434 -15.98036,-16.3133 0,-8.65602 7.32433,-15.64742 15.98036,-15.64742 h 80.2347 c 12.3182,-0.33292 18.9767,6.65849 18.9767,18.97667 z"
   class="st0" /><path
   style="stroke-width:3.32924"
   id="path6"
   d="M 1108.0015,324.84061 V 119.09353 c 0,-9.65481 8.3231,-17.97792 18.3109,-17.97792 9.6548,0 17.6449,8.32311 17.6449,17.97792 V 312.1895 h 95.2163 c 8.656,0 16.3133,6.9914 16.3133,15.64742 0,8.98896 -7.6573,16.31328 -16.3133,16.31328 h -111.5295 c -12.6512,-0.33292 -19.6426,-7.32432 -19.6426,-19.30959 z"
   class="st0" /><path
   style="stroke-width:3.32924"
   id="path8"
   d="m 1393.3177,98.78516 c 71.9116,0 121.5173,53.26784 121.5173,124.51361 0,71.57867 -49.6057,124.5136 -121.5173,124.5136 -71.9119,0 -121.5175,-53.26785 -121.5175,-124.5136 0,-71.24577 49.6056,-124.51361 121.5175,-124.51361 z m 0,32.29363 c -51.6032,0 -84.23,39.28504 -84.23,92.55289 0,52.60201 32.6268,92.55289 84.23,92.55289 50.9374,0 84.2298,-39.61795 84.2298,-92.55289 0,-53.26785 -33.2924,-92.55289 -84.2298,-92.55289 z"
   class="st0" /><path
   style="stroke-width:3.32924"
   id="path12"
   d="m 1992.914,327.17107 c 0,9.98773 -8.3231,18.31083 -18.3108,18.31083 -7.9902,0 -14.6487,-4.99386 -16.9792,-11.65235 l -15.3145,-39.95088 h -119.5197 l -15.3145,39.95088 c -2.6634,6.65849 -9.3219,11.65235 -16.9791,11.65235 -9.9878,0 -18.3109,-8.3231 -18.3109,-18.31083 0,-2.33046 0.6659,-4.66093 1.3317,-6.9914 l 79.5689,-199.0886 c 4.328,-11.65235 15.9803,-20.30837 29.2973,-20.30837 13.6499,0 24.9693,8.65602 29.6302,20.30837 l 79.5689,199.0886 c 0.3329,1.99755 1.3317,4.66094 1.3317,6.9914 z m -62.5897,-65.25312 -47.9411,-127.50992 -47.6082,127.50992 z"
   class="st0" /><path
   style="stroke-width:3.32924"
   id="path16"
   d="m 2520.2658,236.61572 v 55.26541 c 0,9.65479 -2.6634,16.97913 -9.6549,23.63761 -22.3059,20.30837 -51.6032,33.2924 -87.559,33.2924 -68.9153,0 -125.1794,-49.93861 -125.1794,-125.17946 0,-75.24084 55.9312,-124.51361 125.1794,-124.51361 36.2887,0 62.5897,12.65112 82.8981,32.95949 3.3293,2.99631 4.9939,7.32434 4.9939,11.98527 0,9.32187 -7.6573,16.64621 -16.9791,16.64621 -4.3281,0 -8.6561,-1.66463 -11.9853,-4.66095 -14.6487,-14.64866 -35.29,-24.63638 -58.9276,-24.63638 -50.2715,0 -87.8919,38.28627 -87.8919,92.55289 0,53.93371 37.6204,92.88583 87.8919,92.88583 26.6339,0 49.6057,-12.98404 60.9251,-23.97053 v -43.28013 h -63.2556 c -8.656,0 -15.9803,-7.32434 -15.9803,-16.3133 0,-8.65602 7.3243,-15.64742 15.9803,-15.64742 h 80.2348 c 12.6511,-0.33292 19.3096,6.65849 19.3096,18.97667 z"
   class="st0" /><path
   style="stroke-width:3.32924"
   id="path18"
   d="m 2768.96,327.17107 c 0,9.98773 -8.3231,18.31083 -18.3108,18.31083 -7.9902,0 -14.6487,-4.99386 -16.9791,-11.65235 l -15.3145,-39.95088 h -119.5198 l -15.3145,39.95088 c -2.6634,6.65849 -9.3219,11.65235 -16.9791,11.65235 -9.9877,0 -18.3108,-8.3231 -18.3108,-18.31083 0,-2.33046 0.6658,-4.66093 1.3317,-6.9914 l 79.5689,-199.0886 c 4.3279,-11.65235 15.9804,-20.30837 29.2972,-20.30837 13.65,0 24.9693,8.65602 29.6304,20.30837 l 79.5687,199.0886 c 0.6659,1.99755 1.3317,4.66094 1.3317,6.9914 z m -62.5896,-65.25312 -47.9412,-127.50992 -47.6081,127.50992 z"
   class="st0" /><path
   style="stroke-width:3.32924"
   id="path20"
   d="M 3013.3263,327.50401 V 152.38593 l -75.9067,186.43749 c -1.6646,4.32801 -5.3268,6.9914 -9.6547,6.9914 -4.6611,0 -8.3232,-2.66339 -9.6548,-6.9914 l -75.9067,-186.43749 v 175.11808 c 0,9.65479 -7.9902,17.97789 -17.645,17.97789 -9.9877,0 -18.3108,-8.3231 -18.3108,-17.97789 V 131.07879 c 0,-16.31329 13.3169,-29.96318 30.296,-29.96318 12.6512,0 23.9706,7.65726 28.2985,18.64375 l 63.2557,156.47433 63.2555,-156.47433 c 4.3281,-11.31941 15.6474,-18.64375 28.2986,-18.64375 16.9792,0 30.296,13.64989 30.296,29.96318 v 196.42522 c 0,9.65479 -8.3231,17.97789 -18.3108,17.97789 -10.3206,0 -18.3108,-7.99017 -18.3108,-17.97789 z"
   class="st0" /><path
   style="stroke-width:3.32924"
   id="path22"
   d="M 3102.883,324.84061 V 122.08983 c 0,-12.31818 6.9912,-19.3096 19.6424,-19.3096 h 127.8429 c 8.656,0 16.3133,7.32434 16.3133,16.3133 0,8.65602 -7.6573,15.64742 -16.3133,15.64742 h -111.1966 v 70.5799 h 108.8662 c 8.656,0 16.3133,6.99142 16.3133,15.64744 0,8.98896 -7.6573,16.31328 -16.3133,16.31328 h -108.8662 v 75.24085 h 111.1966 c 8.656,0 16.3133,6.9914 16.3133,15.64744 0,8.98894 -7.6573,16.31327 -16.3133,16.31327 h -127.8429 c -12.6512,-0.66585 -19.6424,-7.65725 -19.6424,-19.64252 z"
   class="st0" /><path
   style="stroke-width:3.32924"
   id="path24"
   d="m 3383.205,317.8492 c 0,-9.32188 7.3244,-16.6462 16.3133,-16.6462 3.3292,0 6.6584,0.99877 8.989,2.99631 8.656,7.32434 18.6437,11.98526 32.2936,11.98526 27.9656,0 45.2777,-18.64374 45.2777,-46.94228 V 119.42644 c 0,-9.65479 8.3231,-17.97789 17.9778,-17.97789 9.9877,0 17.9779,8.3231 17.9779,17.97789 V 269.5752 c 0,53.60079 -33.9582,78.90303 -78.9029,78.90303 -20.3085,0 -37.6206,-4.99387 -53.2678,-17.31207 -3.9952,-3.32924 -6.6586,-7.99017 -6.6586,-13.31696 z"
   class="st0" /><path
   style="stroke-width:3.32924"
   id="path26"
   d="m 3769.7298,327.17107 c 0,9.98773 -8.3231,18.31083 -18.3108,18.31083 -7.9902,0 -14.6485,-4.99386 -16.9791,-11.65235 l -15.3146,-39.95088 h -119.5197 l -15.3144,39.95088 c -2.6635,6.65849 -9.322,11.65235 -16.9791,11.65235 -9.9879,0 -18.311,-8.3231 -18.311,-18.31083 0,-2.33046 0.6659,-4.66093 1.3317,-6.9914 l 79.569,-199.0886 c 4.3279,-11.65235 15.9803,-20.30837 29.2972,-20.30837 13.65,0 24.9693,8.65602 29.6303,20.30837 l 79.5688,199.0886 c 0.3329,1.99755 1.3317,4.66094 1.3317,6.9914 z m -62.5897,-65.25312 -47.9411,-127.50992 -47.608,127.50992 z"
   class="st0" /><path
   style="stroke-width:3.32924"
   id="path28"
   d="M 4013.7632,327.50401 V 152.38593 l -75.9067,186.43749 c -1.6646,4.32801 -5.3267,6.9914 -9.6548,6.9914 -4.6608,0 -8.3231,-2.66339 -9.6548,-6.9914 l -75.9067,-186.43749 v 175.11808 c 0,9.65479 -7.9901,17.97789 -17.6449,17.97789 -9.9877,0 -18.3108,-8.3231 -18.3108,-17.97789 V 131.07879 c 0,-16.31329 13.3168,-29.96318 30.296,-29.96318 12.6512,0 23.9705,7.65726 28.2986,18.64375 l 63.2555,156.47433 63.2557,-156.47433 c 4.3279,-11.31941 15.6475,-18.64375 28.2985,-18.64375 16.9791,0 30.2962,13.64989 30.2962,29.96318 v 196.42522 c 0,9.65479 -8.3231,17.97789 -18.311,17.97789 -10.3206,0 -18.3108,-7.99017 -18.3108,-17.97789 z"
   class="st0" /><path
   style="stroke-width:3.32924"
   id="path14"
   d="M 2029.5356,324.84061 V 119.09353 c 0,-9.65481 8.3231,-17.97792 18.3109,-17.97792 9.6548,0 17.6449,8.32311 17.6449,17.97792 V 312.1895 h 94.8834 c 8.656,0 16.3133,6.9914 16.3133,15.64742 0,8.98896 -7.6573,16.31328 -16.3133,16.31328 h -111.5296 c -12.3182,-0.33292 -19.3096,-7.32432 -19.3096,-19.30959 z"
   class="st0" /></g>
	<g
   id="g44">
		<path
   id="path32"
   d="m 681.2,206.6 c 0,113.3 -90.7,202.9 -203.9,202.9 -113.2,0 -205.1,-90.4 -205.1,-203.7 0,-113.3 91.2,-205.3 204.4,-205.3 113.2,0 204.6,92.9 204.6,206.1 z"
   class="st1" />
		<g
   id="g40">
			<path
   id="path34"
   d="m 294.7,215 c -2,-19.2 -16.4,-26.2 -18.3,-51.9 -2.8,13.5 -4.3,27.6 -4.3,41.9 0,28.2 5.7,55.1 16.1,79.6 -3.4,-31.1 9.2,-44.3 6.5,-69.6 z"
   class="st2" />
			<path
   id="path36"
   d="m 375.9,27 c -24.1,13.7 -45.2,32.1 -62,54.1 38.6,-32.6 77.5,-28.4 84.4,-34.4 8.8,-7.7 -29.5,-10.8 -29.5,-10.8 0,0 1.5,-3.9 7.1,-8.9 z"
   class="st2" />
			<path
   id="path38"
   d="m 538.6,388.7 c -40.6,-20.8 -11.1,-50.8 0.3,-61.9 11.4,-11.1 44.6,-46.5 17.8,-73.9 -26.8,-27.4 -30.8,-57.6 -16.4,-85.6 14.4,-28 42.7,-21.9 58.6,-9.2 15.9,12.8 39.1,34.8 50.9,27.8 18.4,-11.2 -0.5,-34.5 -0.5,-34.5 0,0 -0.7,23.6 -5.9,23.6 -5.3,0 -6.3,-25.1 -9.8,-27.4 -10,-3.7 -3.7,18.5 -22,8.5 -18.3,-10 -11.7,-33.8 -3.4,-44.1 8.3,-10.3 22.2,5.1 26,8.4 3.7,3.3 11,7.1 19.2,7.1 5.8,0 18.4,29 25.3,46.1 -15.2,-98 -99.9,-173 -202.1,-173 -17.5,0 -34.5,2.2 -50.8,6.4 6.7,-1.2 14.2,-2.2 22.6,-2.8 69.5,-5.6 92.9,12.5 90.7,21.5 -2.2,9 -4.7,13.4 -13.6,12.5 -8.8,-0.9 -17.9,-4.4 -23.4,2.7 -5.5,7.2 -10.9,6.3 -16.4,4 -5.5,-2.3 -9.3,-0.5 -12.7,4.6 -3.4,5.1 -10.7,19.1 -16.1,13.8 -5.4,-5.3 -4.4,-2.9 -2.7,-8.1 1.7,-5.3 8.9,-10.8 5.6,-11.3 -3.3,-0.5 -38.2,-1.1 -61.7,23.7 25.8,0 59.1,4.8 53.6,44.6 -5.5,39.8 -38.3,59.3 -73.7,89.4 -35.4,30.1 -76.4,97.9 -29.8,141.7 -8.9,0.9 -17.4,-0.1 -25.1,-3.2 37.5,42.7 92.4,69.6 153.7,69.6 28.3,0 55.3,-5.8 79.9,-16.2 -6.5,-0.5 -12.6,-2 -18.1,-4.8 z m -58.1,-318 c -5.9,10.6 -16.2,10 -19,8.3 -2.8,-1.7 -3.8,-1.4 4.3,-8.6 8.1,-7.2 20.6,-10.3 14.7,0.3 z"
   class="st2" />
		</g>
		<path
   id="path42"
   d="m 711.3,207.6 c -12.4,-1.9 -24.5,-1.8 -30.2,-1.6 0,0.2 0,0.4 0,0.6 0,11.5 -1,22.8 -2.8,33.8 5.6,-0.5 18.4,-1.1 32.9,2.5 65.1,18.7 60.2,97.7 -13.3,97.7 -172.8,0 -240.3,-301.4 -401.3,-301.4 -68.5,0 -123.2,47.6 -123.2,99.1 0,46 29.7,98.3 95.9,109.2 l 7.4,1.2 c -2.5,-11.3 -4,-23 -4.5,-34.9 l -2.9,-0.4 c -100.5,-20 -68.6,-142.6 25,-142.6 141.7,0 209.8,301.7 405.6,301.7 39.7,0 90.8,-23.1 90.8,-76.5 0.1,-45.6 -33.6,-80.1 -79.4,-88.4 z"
   class="st3" />
	</g>
	<g
   transform="matrix(3.3292409,0,0,3.3292409,839.66471,-1431.0011)"
   id="g48">
		<path
   id="path46"
   d="m 987.1,459.5 c 7.2,0 12.9,5.7 12.9,12.9 0,7.1 -5.7,12.9 -12.9,12.9 -7.1,0 -12.9,-5.8 -12.9,-12.9 0.1,-7.2 5.8,-12.9 12.9,-12.9 z m 0,1.8 c -6.1,0 -11.1,4.9 -11.1,11 0,6.1 5,11.1 11.1,11.1 6.1,0 11,-5 11,-11.1 0.1,-6.1 -4.8,-11 -11,-11 z m 0.2,12.7 h -3.1 v 5.1 c 0,0.5 -0.4,1 -0.9,1 -0.6,0 -1,-0.4 -1,-1 v -12.8 c 0,-0.7 0.5,-1.2 1.2,-1.2 h 4.8 c 2.5,0 4.7,1.8 4.7,4.5 0,2.9 -2.3,4.1 -3.3,4.3 l 3.2,4.7 c 0.1,0.2 0.2,0.4 0.2,0.5 0,0.6 -0.5,1.1 -1.1,1.1 -0.4,0 -0.7,-0.2 -0.9,-0.5 z m 0.9,-7.2 h -4.1 v 5.3 h 4.1 c 1.3,0 2.7,-1.1 2.7,-2.6 0,-1.6 -1.4,-2.7 -2.7,-2.7 z"
   class="st0" />
	</g>
</g>
</svg>
