<?xml version="1.0" encoding="UTF-8"?>
<svg id="Logos" width="436.89" height="84.8" version="1.1" viewBox="0 0 436.89 84.8" xmlns="http://www.w3.org/2000/svg" xmlns:cc="http://creativecommons.org/ns#" xmlns:dc="http://purl.org/dc/elements/1.1/" xmlns:rdf="http://www.w3.org/1999/02/22-rdf-syntax-ns#">
 <metadata>
  <rdf:RDF>
   <cc:Work rdf:about="">
    <dc:format>image/svg+xml</dc:format>
    <dc:type rdf:resource="http://purl.org/dc/dcmitype/StillImage"/>
    <dc:title/>
   </cc:Work>
  </rdf:RDF>
 </metadata>
 <defs>
  <style>.cls-1{fill:#0b161d;}.cls-2{fill:#179287;}</style>
 </defs>
 <path class="cls-1" d="m151.39 32.8a17.2 17.2 0 0 0-3.6-4 14.7 14.7 0 0 0-9.4-3.3c-7.9 0-15.9 6-15.9 16.6s8.1 16.9 15.9 16.9a15.8 15.8 0 0 0 9.7-3 12.5 12.5 0 0 0 5-7.4h-18.2v-7.9h29.6a27.5 27.5 0 0 1-2.2 12.3c-4.5 10.2-15 14.7-23.8 14.7-14.7 0-25.9-11.3-25.9-25.6s11.7-25.2 26-25.2c11 0 20.8 7 23.9 15.9z"/>
 <path class="cls-1" d="m171.59 17.8h8.7v7.7h-8.7zm0 12.6h8.7v36.4h-8.7z"/>
 <path class="cls-1" d="m191.79 37.1h-6v-6.7h6v-12.6h8.7v12.6h6.2v6.7h-6.2v29.7h-8.7z"/>
 <path class="cls-1" d="m213.79 17.8h9.9v22.7l16.2-22.7h10.4l-17.7 24.4 19.5 24.6h-12.1l-16.3-22v22h-9.9z"/>
 <path class="cls-1" d="m256.79 30.4h8.2v4.8c1.6-3.2 4.6-5.8 10.1-5.9v8.7h-0.4c-6.1 0-9.2 2.9-9.2 9.2v19.6h-8.7z"/>
 <path class="cls-1" d="m316.29 66.8h-8.7v-5.3c-2.3 4.3-7.1 6.4-12.2 6.4-11.7 0-18.5-9.1-18.5-19.3s8.3-19.3 18.5-19.3c6.6 0 10.6 3.5 12.2 6.4v-5.3h8.7zm-30.7-18c0 4.5 3.2 11 11 11a10.3 10.3 0 0 0 9.7-5.8 14.9 14.9 0 0 0 1.4-5.1 12.9 12.9 0 0 0-1-5.1 10.7 10.7 0 0 0-10.1-6.4c-7.1 0-11 5.7-11 11.3z"/>
 <path class="cls-1" d="m325.69 17.8h8.7v26.5l12.5-13.9h10.4l-15.1 16 15.2 20.4h-9.9l-13.1-18.2v18.2h-8.7z"/>
 <path class="cls-1" d="m372.29 58.1c4.5 3.7 10.4 2.2 13.8-1.5a9.4 9.4 0 0 0 2.4-9.7l6.2-6.5a20.8 20.8 0 0 1 1.5 11.6 17.8 17.8 0 0 1-4.8 9.8 19.1 19.1 0 0 1-27.1 0.7c-7.5-7.1-8.6-19.2-1-27.1a18.6 18.6 0 0 1 13.3-6.1 19.6 19.6 0 0 1 15.8 7.5zm9.4-19.6c-2.7-2.1-8.7-2.8-13 1.9s-3.5 10.4-1.1 13z"/>
 <path class="cls-1" d="m403.39 30.4h8.2c0 1.6 0 3.1-0.1 4.9 1.6-2.9 4.8-6.1 11.3-6 11.9 0.1 14.1 9.1 14.1 15.6v21.9h-8.6v-19.8c0-5.4-1.8-9.6-7.9-9.6s-8.3 4.2-8.3 9.3v20.1h-8.7z"/>
 <path class="cls-2" d="m93.986 19.1a2 2 0 0 0-2.6-1.1 2.1 2.1 0 0 0-1.2 1.8 1.7 1.7 0 0 0 0.1 0.7 43.3 43.3 0 0 1 2.9 15.7 44.7 44.7 0 0 1-38.8 44.3v-20.9a27.9 27.9 0 0 0 3.9-1v17.5a41 41 0 0 0 10.1-75.8 1.9 1.9 0 0 0-2.7 0.8 2.9 2.9 0 0 0-0.2 0.9 2.1 2.1 0 0 0 1 1.7 37.1 37.1 0 0 1-4.4 67.1v-15.5a6 6 0 0 0 4.2-5.7 5.7 5.7 0 0 0-2.9-5.1c1.4-13.4 7.5-9.9 7.5-14.1v-2.5c0-6.4-14.8-27.3-21.7-27.8h-1.3c-6.9 0.5-21.8 21.4-21.8 27.8v2.5c0 4.2 6.1 0.7 7.5 14.1a5.9 5.9 0 0 0-2.9 5.1 6 6 0 0 0 4.2 5.7v15.5a37.2 37.2 0 0 1-4.4-67.1 2 2 0 0 0-0.9-3.7 1.6 1.6 0 0 0-0.9 0.3 41 41 0 0 0 10.1 75.8v-17.5a24.8 24.8 0 0 0 3.9 1v20.9a44.7 44.7 0 0 1-38.8-44.3 45.5 45.5 0 0 1 2.8-15.7 2 2 0 0 0-1-2.5h-0.8a2 2 0 0 0-1.8 1.2 48.6 48.6 0 0 0 43.5 65.6v-24.7h3.9v24.6a48.6 48.6 0 0 0 43.5-65.6zm-36.5 27.7a4.1 4.1 0 0 1 5.6 0 3.8 3.8 0 0 1 1.2 2.8 3.8 3.8 0 0 1-1.2 2.9 4.1 4.1 0 0 1-5.6 0 4.3 4.3 0 0 1-1.2-2.9 4.2 4.2 0 0 1 1.2-2.8zm-17.9 5.7a3.9 3.9 0 0 1-2.8 1.1 3.8 3.8 0 0 1-4-4 4.1 4.1 0 0 1 1.1-2.8 4.2 4.2 0 0 1 2.9-1.1 3.9 3.9 0 0 1 2.8 1.1 4.1 4.1 0 0 1 1.1 2.8 4.2 4.2 0 0 1-1.1 2.9z"/>
</svg>
