<?xml version="1.0" encoding="UTF-8" standalone="no"?>
<svg
   xmlns:dc="http://purl.org/dc/elements/1.1/"
   xmlns:cc="http://creativecommons.org/ns#"
   xmlns:rdf="http://www.w3.org/1999/02/22-rdf-syntax-ns#"
   xmlns:svg="http://www.w3.org/2000/svg"
   xmlns="http://www.w3.org/2000/svg"
   viewBox="0 0 497.05334 70.973335"
   height="70.973335"
   width="497.05334"
   xml:space="preserve"
   id="svg2"
   version="1.1"><metadata
     id="metadata8"><rdf:RDF><cc:Work
         rdf:about=""><dc:format>image/svg+xml</dc:format><dc:type
           rdf:resource="http://purl.org/dc/dcmitype/StillImage" /></cc:Work></rdf:RDF></metadata><defs
     id="defs6" /><g
     transform="matrix(1.3333333,0,0,-1.3333333,0,70.973333)"
     id="g10"><g
       transform="scale(0.1)"
       id="g12"><path
         id="path14"
         style="fill:#e90978;fill-opacity:1;fill-rule:nonzero;stroke:none"
         d="M 138.891,6.30469 V 525.98 H 0.00390625 V 6.30469 H 138.891" /><path
         id="path16"
         style="fill:#e90978;fill-opacity:1;fill-rule:nonzero;stroke:none"
         d="M 493.867,285.406 353.598,525.98 H 207.719 V 6.30469 H 339.555 V 276.305 L 341.66,276.266 500.863,6.30469 H 628.48 V 525.98 H 495.961 V 285.406 h -2.094" /><path
         id="path18"
         style="fill:#e90978;fill-opacity:1;fill-rule:nonzero;stroke:none"
         d="m 974.105,265.797 c 0,-131.172 -37.167,-139.531 -89.066,-139.531 H 836.621 V 399.73 h 42.777 c 58.946,0 94.707,-3.503 94.707,-133.933 z M 697.797,525.98 V 6.30469 h 174.609 c 164.804,0 242.634,41.38671 242.634,260.17531 0,214.598 -79.22,259.5 -244.724,259.5 H 697.797" /><path
         id="path20"
         style="fill:#e90978;fill-opacity:1;fill-rule:nonzero;stroke:none"
         d="M 1303.64,6.30469 V 525.98 H 1164.79 V 6.30469 h 138.85" /><path
         id="path22"
         style="fill:#e90978;fill-opacity:1;fill-rule:nonzero;stroke:none"
         d="m 2450.88,122.73 c -76.43,0 -86.96,52.618 -86.96,138.145 0,84.867 10.53,137.469 86.96,137.469 75.76,0 86.27,-52.602 86.27,-137.469 0,-85.527 -10.51,-138.145 -86.27,-138.145 z m 0,409.559 c -193.54,0 -227.91,-126.914 -227.91,-266.492 0,-138.867 34.37,-265.80090625 227.91,-265.80090625 192.87,0 227.24,126.93390625 227.24,265.80090625 0,139.578 -33.69,266.492 -227.24,266.492" /><path
         id="path24"
         style="fill:#e90978;fill-opacity:1;fill-rule:nonzero;stroke:none"
         d="m 3424.24,122.73 c -76.45,0 -87,52.618 -87,138.145 0,84.867 10.55,137.469 87,137.469 75.68,0 86.23,-52.602 86.23,-137.469 0,-85.527 -10.55,-138.145 -86.23,-138.145 z m 0,409.559 c -193.58,0 -227.97,-126.914 -227.97,-266.492 0,-138.867 34.39,-265.80090625 227.97,-265.80090625 192.83,0 227.18,126.93390625 227.18,265.80090625 0,139.578 -33.65,266.492 -227.18,266.492" /><path
         id="path26"
         style="fill:#e90978;fill-opacity:1;fill-rule:nonzero;stroke:none"
         d="m 3696.21,15.2695 c -20.74,0 -25.51,14.6485 -25.51,33.7305 0,19.1992 4.77,33.8281 25.51,33.8281 20.76,0 25.62,-14.6289 25.62,-33.8281 0,-19.082 -4.86,-33.7305 -25.62,-33.7305 z m 0,73.2618 c -25.33,0 -31.54,-17.1094 -31.54,-39.5313 0,-22.3047 6.21,-39.31641 31.54,-39.31641 25.21,0 31.66,17.01171 31.66,39.31641 0,22.4219 -6.45,39.5313 -31.66,39.5313" /><path
         id="path28"
         style="fill:#e90978;fill-opacity:1;fill-rule:nonzero;stroke:none"
         d="m 3697.99,50.1328 h -7.91 v 14.2188 h 7.91 c 4.66,0 6.23,-1.9727 6.23,-7.1485 0,-5.0976 -1.57,-7.0703 -6.23,-7.0703 z m 15.66,7.793 c 0,9.4336 -3.11,14.8437 -15.25,14.8437 h -17.97 V 25.7578 h 9.65 v 16.6016 h 6.13 l 7.26,-16.6016 h 9.87 l -7.89,17.5391 c 6.32,2.0703 8.2,7.2656 8.2,14.6289" /><path
         id="path30"
         style="fill:#e90978;fill-opacity:1;fill-rule:nonzero;stroke:none"
         d="m 1956.7,206.852 h 89.59 v -9.082 c 0,-57.422 1.79,-82.754 -66.61,-82.754 -63.82,0 -85.58,29.453 -85.58,146.562 0,122.035 36.46,136.766 91.17,136.766 40.65,0 69.43,-10.508 93.28,-23.867 l 74.34,115.742 c -39.3,25.254 -96.8,42.07 -161.31,42.07 -179.51,0 -237.03,-86.269 -237.03,-266.492 0,-157.09 42.07,-265.80090625 212.48,-265.80090625 30.19,0 56.13,2.07031625 78.48,6.30859625 h 127.71 V 223.707 319.785 H 1972.03 L 1956.7,206.852" /><path
         id="path32"
         style="fill:#e90978;fill-opacity:1;fill-rule:nonzero;stroke:none"
         d="m 2930.02,206.852 h 89.59 v -9.082 c 0,-57.422 1.79,-82.754 -66.6,-82.754 -63.83,0 -85.59,29.453 -85.59,146.562 0,122.035 36.46,136.766 91.17,136.766 40.65,0 69.43,-10.508 93.28,-23.867 l 74.34,115.742 c -39.3,25.254 -96.8,42.07 -161.31,42.07 -179.51,0 -237.03,-86.269 -237.03,-266.492 0,-157.09 42.07,-265.80090625 212.48,-265.80090625 30.19,0 56.13,2.07031625 78.48,6.30859625 h 127.71 V 223.707 319.785 h -201.19 l -15.33,-112.933" /><path
         id="path34"
         style="fill:#e90978;fill-opacity:1;fill-rule:nonzero;stroke:none"
         d="M 1717.99,399.047 V 525.98 H 1372.95 V 6.30469 h 345.04 V 129.723 h -208.96 v 77.871 h 137.24 L 1663.03,331 h -154 v 68.047 h 208.96" /></g></g></svg>