<?xml version="1.0" encoding="UTF-8"?>
<svg width="828.38" height="254.18" version="1.0" xmlns="http://www.w3.org/2000/svg" xmlns:cc="http://creativecommons.org/ns#" xmlns:dc="http://purl.org/dc/elements/1.1/" xmlns:rdf="http://www.w3.org/1999/02/22-rdf-syntax-ns#" xmlns:xlink="http://www.w3.org/1999/xlink">
 <title>Inkscape Logo</title>
 <style type="text/css">.specularity {opacity:0.5;}
	.low-specularity {opacity:0.25;}
	.full-specularity {opacity:1;}
	.black {fill:#000000;}
	.white {fill:#ffffff;}
	.outline-big {stroke-width:16;stroke:none;opacity:0.1;fill:none;}
	.outline-small {stroke-width:8;stroke:none;opacity:0.2;fill:none;}
	.stroke-highlight {fill:none;stroke:none;opacity:0.2;}
       	.base-shadow 	{fill:black;opacity:75;}</style>
 <!-- Copyright License -->
 <metadata>
  <rdf:RDF>
   <cc:Work rdf:about="etiquette-icon">
    <dc:format>image/svg+xml</dc:format>
    <dc:type rdf:resource="http://purl.org/dc/dcmitype/StillImage"/>
    <dc:creator>
     <cc:Agent>
      <dc:title>Andy Fitzsimon</dc:title>
     </cc:Agent>
    </dc:creator>
    <dc:rights>
     <cc:Agent>
      <dc:title>Andrew Michael Fitzsimon</dc:title>
     </cc:Agent>
    </dc:rights>
    <dc:publisher>
     <cc:Agent>
      <dc:title>Fitzsimon IT Consulting Pty Ltd</dc:title>
     </cc:Agent>
    </dc:publisher>
    <dc:identifier>http://andy.fitzsimon.com.au</dc:identifier>
    <dc:date>2006</dc:date>
    <cc:license rdf:resource="http://creativecommons.org/licenses/by-sa/3.0/"/>
    <dc:title>Inkscape Logo</dc:title>
   </cc:Work>
   <cc:License rdf:about="http://creativecommons.org/licenses/by-sa/3.0/">
    <cc:permits rdf:resource="http://creativecommons.org/ns#Reproduction"/>
    <cc:permits rdf:resource="http://creativecommons.org/ns#Distribution"/>
    <cc:requires rdf:resource="http://creativecommons.org/ns#Notice"/>
    <cc:requires rdf:resource="http://creativecommons.org/ns#Attribution"/>
    <cc:permits rdf:resource="http://creativecommons.org/ns#DerivativeWorks"/>
    <cc:requires rdf:resource="http://creativecommons.org/ns#ShareAlike"/>
   </cc:License>
  </rdf:RDF>
 </metadata>
 <g transform="translate(152.73 -586.07)">
  <path d="m200.68 777.9q-2.8343 0-2.8343-3.9834t4.1366-8.8861q6.8944-8.2732 19.151-9.5755l4.2132-0.22981q13.942 0 20.223 11.108 3.7536 6.8178 3.7536 15.704 0 3.677-0.61284 7.737-2.2215 13.636-10.571 23.134-9.1925 10.495-21.449 10.495-12.18 0-15.474-6.8178-0.99585-2.1449-0.99585-4.5196 0-2.4513 1.3023-5.1325 2.5279-4.9027 6.8944-4.9027 0.38302 0 0.45962 0.45963 0.15321 0.38302-0.0766 0.84264-0.15321 0.45962-0.53623 0.45962-2.6045 0-4.5196 3.3706-1.2257 2.3747-1.2257 4.3664 0 1.9917 0.76604 3.677 2.4513 5.2091 11.72 5.2091 10.495 0 18.998-10.725 7.6604-9.6521 9.8819-22.675 0.76604-4.2132 0.76604-7.9668 0-8.3498-3.7536-14.095-4.9793-7.737-15.627-7.737-13.329 0-19.994 8.9627-3.3706 4.5962-3.3706 8.5796 0 1.6087 0.68943 1.6087-0.45962 1.5321-1.9151 1.5321zm11.031 29.033q0-11.644 2.0683-22.598 2.0683-11.031 5.0559-17.389 3.0642-6.4347 5.8985-6.4347 1.2257 0 1.2257 1.2257-3.4472 7.1242-6.0517 18.998-4.826 21.679-4.826 31.331 0 0.99585-1.0725 0.99585-2.2981 0-2.2981-6.1283z"/>
  <path d="m279.08 792.53q-2.911 0-2.911-6.3581 0-3.6004 1.3789-6.7412-5.2091 4.5196-11.644 16.853-6.4347 12.257-6.4347 16.01 0 0.91925-1.2257 0.91925-2.2215 0-2.2215-6.0517 0-11.414 2.2981-20.683t5.5921-9.2691q1.4555 0 1.4555 1.6853-3.5238 11.184-5.0559 22.905h0.53623q6.2049-14.325 13.712-22.368 4.2898-4.5962 7.8136-4.5962 0.76604 0 1.2257 0.45963 0.53622 0.45962 0.53622 1.1491-0.53622 0.53622-1.3023 1.6087t-2.0683 5.1325q-1.3023 3.9834-1.3023 8.7328 0 0.61284-0.38302 0.61284z"/>
  <path d="m290.52 814.52q-6.2815 0-6.2815-9.8819 0-5.8985 2.911-12.946 4.06-9.8819 10.648-13.482 2.8344-1.5321 5.2857-1.5321t3.8302 1.0724q1.4555 1.0725 1.8385 2.1449l0.45963 0.99585q-0.22981 1.3023-1.3023 1.3023-1.2257 0-1.4555-0.53623-0.1532-0.61283-0.38302-0.99585-0.22981-0.45963-1.0724-1.1491-0.84265-0.76604-1.9151-0.76604-4.9793 0-9.0393 8.9627-4.5962 10.342-4.5962 19.457 0 4.5962 1.8385 4.5962 1.4555 0 4.06-3.2174 2.6811-3.294 5.5921-8.1966 5.0559-8.4264 8.1966-14.631 2.6045-5.5155 5.3623-5.5155 1.4555 0 1.4555 1.7619-0.68944 1.4555-1.7619 4.1366-1.0725 2.6811-2.8344 10.648-1.7619 7.9668-1.7619 15.857 0 7.8902 2.3747 7.8902 0.91925 0 1.6853-0.84265 0.76604-0.76604 1.3789-2.3747 0.22981-0.84264 1.0725-0.84264 0.30641 0 0.45962 0.22981t0 0.76604-0.53623 1.4555q-0.38302 0.99586-1.6853 2.6045-1.2257 1.6087-2.6045 1.6087-3.2174 0-4.9793-4.2132-1.6853-4.2132-1.6853-9.9585t0.84265-11.031h-0.76604q-9.7287 16.623-14.631 16.623z"/>
  <path d="m362.26 779.82q2.2215 1.6853 4.2132 1.6853 2.0683 0 2.911-0.53623 0 0.99585-0.91925 1.9151-0.84264 0.84265-2.5279 0.84265-1.6087 0-3.5238-0.76604-0.1532 7.2008-2.3747 14.785-2.2215 7.5072-5.7453 12.64-3.5238 5.0559-6.971 5.0559t-5.2857-2.6811q-1.9151-2.9876-1.9151-8.503 0-3.1408 0.38302-6.7412-9.4989 17.006-14.631 17.006-5.0559 0-5.0559-8.5796 0-8.8861 4.3664-18.998 3.677-8.0434 6.7412-8.4264 1.4555 0 1.4555 1.6087-0.91925 2.2215-2.2981 5.7453-1.3789 3.4472-3.677 11.108-2.2215 7.6604-2.2215 11.337 0 3.6004 1.6087 3.6004 1.9917 0 6.2049-6.4347 4.2898-6.4347 7.5072-12.869l3.294-6.3581q2.1449-4.2898 3.8302-4.2898t1.6853 1.6087q-4.6728 16.01-4.6728 25.05 0 4.2132 2.4513 4.2132 2.7578 0 5.7453-4.5196 3.0642-4.5962 5.0559-11.874 2.0683-7.354 2.0683-14.478v-0.45962q-2.2215-1.6087-3.6004-3.8302t-1.3789-3.294q0-1.1491 0.99585-2.0683t2.1449-0.91925q1.4555 0 2.6045 2.6045 1.1491 2.5279 1.5321 5.8219z"/>
  <path d="m402.86 775.3q0 5.6687 3.2174 6.0517-0.22982 1.0725-1.7619 1.0725-3.1408 0-4.443-3.8302-0.61283-1.7619-0.61283-4.2898 0-2.6045 1.9917-6.2049 4.5196-8.3498 16.393-10.725 4.06-0.76604 8.6562-0.76604 4.6728 0 7.9668-0.91925t4.5196-2.0683q3.2174-2.9876 4.7494-2.9876t1.5321 0.91924q0 0.22982 0 0.45963-0.53622 2.1449-4.5962 4.06-2.4513 1.0725-5.5155 1.6853-2.5279 1.0724-4.2132 5.8985-1.6853 4.7494-3.5238 13.789 3.9834-0.38302 6.5879-0.38302 0.68944 0 0.61284 0.84264-0.30642 0.91925-1.6087 0.99585-1.3023 0-6.0517 0.76604-3.6004 17.772-6.2815 25.126-6.7412 18.615-19.228 18.615-8.9627 0-11.184-8.1966-0.84265-2.8344-0.84265-5.6687 0-5.3623 2.8344-10.725 4.2898-8.1966 11.261-8.1966 0.99585 0 1.6087 0.45962 0.68943 0.45962 0.91924 1.3789-6.5879 0-10.878 6.8178-3.3706 5.2857-3.3706 10.954 0 8.2732 5.8219 10.112 1.3789 0.38302 3.6004 0.38302 2.2215 0 4.6728-1.3023 2.5279-1.2257 4.5196-4.5962 2.0683-3.294 3.3706-5.5155 1.3023-2.2981 2.9876-8.12 1.9917-7.1242 3.3706-13.176 1.3789-6.1283 1.6853-7.354-4.2898 0.68943-6.5113 0.68943-2.1449 0-2.4513-1.9151-0.0766-1.5321 0.84264-1.7619 0.38302 0.45962 2.3747 0.45962 2.0683 0 6.4347-0.38302 1.9151-7.5072 3.677-12.18 1.7619-4.7494 4.1366-7.2008-1.2257 0.0766-3.8302 0.0766-14.708 0-20.606 8.6563-2.8344 4.06-2.8344 8.1966zm33.706 15.704q0 0.38302-0.68944 0.38302-0.68943 0-1.3789-0.30642-0.61283-0.30642-0.61283-0.84264 0-7.8136 1.7619-12.563 1.7619-4.826 4.6728-4.826 0.76604 0 1.3023 0.53622 0.53623 0.53623 0.53623 1.4555-3.4472 3.4472-4.9793 10.265-0.61283 2.8344-0.61283 5.8985z"/>
  <path d="m465.92 792.53q-2.911 0-2.911-6.3581 0-3.6004 1.3789-6.7412-5.2091 4.5196-11.644 16.853-6.4347 12.257-6.4347 16.01 0 0.91925-1.2257 0.91925-2.2215 0-2.2215-6.0517 0-11.414 2.2981-20.683t5.5921-9.2691q1.4555 0 1.4555 1.6853-3.5238 11.184-5.0559 22.905h0.53622q6.2049-14.325 13.712-22.368 4.2898-4.5962 7.8136-4.5962 0.76604 0 1.2257 0.45963 0.53623 0.45962 0.53623 1.1491-0.53623 0.53622-1.3023 1.6087t-2.0683 5.1325q-1.3023 3.9834-1.3023 8.7328 0 0.61284-0.38302 0.61284z"/>
  <path d="m490.99 777.36q5.8219 0 5.8219 6.8178 0 3.9068-2.6045 8.1966-4.443 7.1242-11.797 7.1242-1.1491 0-1.9151-0.38302t-1.1491-1.1491q5.4389 0 9.9585-6.2815 3.677-5.0559 3.677-9.2691 0-3.1408-2.5279-3.1408-5.0559 0-9.4223 7.8902-4.6728 8.5796-4.6728 17.619 0 7.6604 4.3664 9.1925 0.84264 0.30641 2.1449 0.30641t2.7577-0.61283q1.4555-0.68944 2.4513-1.6087 1.9917-1.8385 3.294-4.06 0.30642-0.61283 1.1491-0.61283 1.3789 0 1.3023 0.45963-0.22981 0.84264-1.7619 2.8343-1.4555 1.9917-2.7577 3.2174-1.2257 1.1491-3.294 2.0683-1.9917 0.99585-4.06 0.99585-8.12 0-10.342-7.6604-0.68944-2.6045-0.68944-5.3623 0-5.1325 2.3747-11.184 3.7536-9.1925 10.342-13.252 3.6004-2.1449 7.354-2.1449z"/>
  <path d="m520.73 777.36q5.8219 0 5.8219 6.8178 0 3.9068-2.6045 8.1966-4.443 7.1242-11.797 7.1242-1.1491 0-1.9151-0.38302t-1.1491-1.1491q5.4389 0 9.9585-6.2815 3.677-5.0559 3.677-9.2691 0-3.1408-2.5279-3.1408-5.0559 0-9.4223 7.8902-4.6728 8.5796-4.6728 17.619 0 7.6604 4.3664 9.1925 0.84264 0.30641 2.1449 0.30641t2.7577-0.61283q1.4555-0.68944 2.4513-1.6087 1.9917-1.8385 3.294-4.06 0.30642-0.61283 1.1491-0.61283 1.3789 0 1.3023 0.45963-0.22981 0.84264-1.7619 2.8343-1.4555 1.9917-2.7577 3.2174-1.2257 1.1491-3.294 2.0683-1.9917 0.99585-4.06 0.99585-8.12 0-10.342-7.6604-0.68944-2.6045-0.68944-5.3623 0-5.1325 2.3747-11.184 3.7536-9.1925 10.342-13.252 3.6004-2.1449 7.354-2.1449z"/>
  <path d="m541.66 825.7q-4.443 0-6.5879-4.6728-2.0683-4.6728-2.0683-14.019t2.7577-22.139q2.7578-12.793 6.4347-21.219 3.7536-8.4264 6.5113-8.4264 1.3023 0 1.3023 1.5321-1.6087 3.677-4.06 11.108-2.4513 7.354-4.1366 13.636-1.6087 6.2815-2.9876 14.708-1.3023 8.4264-1.3023 14.478 0 5.9751 1.1491 9.1925 1.2257 3.294 3.294 3.294 1.7619 0 3.3706-1.6853 1.6087-1.6087 2.2981-3.2174 0.38302-0.84264 1.3789-0.45962 0.38302 0.15321 0.1532 0.61283-0.1532 0.53623-0.61283 1.3023-0.38302 0.76604-1.4555 2.3747-2.2981 3.6004-5.4389 3.6004z"/>
  <path d="m552.74 838.49q6.8944 0 10.801-6.5113 3.3706-5.7453 5.2091-14.325-13.865 0.30642-21.296 10.571-0.45962 0.68944-1.4555 0.22981-0.53623-0.30641-0.30642-0.76604 3.294-4.9793 9.1925-8.503 5.8985-3.4472 14.325-3.7536 0.84264-3.8302 1.6087-8.9627 0.76604-5.1325 1.7619-9.9585h-0.68944q-9.9585 17.696-15.168 17.696-5.8219 0-5.8219-8.9627t3.8302-18.002q3.8302-9.1159 6.971-9.8053l0.45962-0.0766q1.3023 0 1.3023 1.6853-0.84264 2.0683-2.1449 5.4389-1.3023 3.294-3.4472 10.954-2.1449 7.5838-2.1449 11.874 0 4.2132 1.8385 4.2132 2.1449 0 6.8944-7.4306 6.971-10.878 12.103-22.062 2.2215-4.6728 4.7494-4.6728 1.6087 0 1.6087 1.7619-1.4555 2.6811-3.5238 10.035t-3.3706 14.861q-1.3023 7.4306-2.2215 11.644 5.8219 0.99585 6.7412 5.0559 0.15321 0.68944 0.15321 1.8385 0 1.2257-0.91925 2.0683-0.91925 0.91925-1.6087 0.91925 0.15321-0.53623 0.0766-1.9151-0.0766-1.3023-0.53623-2.2215-0.38302-0.91925-1.5321-1.9151-1.1491-0.99586-2.9876-1.4555-5.8985 22.215-20.453 22.215-6.2815 0-8.3498-4.443-0.0766-0.22981-0.0766-0.38302 0-0.45963 0.84264-0.61283 0.76604-0.0766 1.1491 0.53622 1.3789 3.1408 6.4347 3.1408z"/>
  <path d="m592.1 815.05q-1.6087 0-1.6087-2.9876 0-1.8385 0.99586-3.9068 0.99585-2.0683 2.8343-2.0683 1.5321 0 1.5321 1.7619 0 1.7619-2.8343 5.8985z"/>
 </g>
 <g transform="translate(152.73 -586.07)">
  <path d="m139.06 694.98c-0.24215-9.928-0.36322-15.497-0.36322-25.547s0-15.982 0.36322-26.152c0.24215-10.049 1.9372-10.412 10.412-11.018 0.72644-0.72644 0.72644-2.0582 0-2.7847-4.4797 0.24215-11.986 0.60537-15.618 0.60537s-11.865-0.36322-15.74-0.60537c-0.72644 0.72644-0.72644 2.0582 0 2.7847 8.4751 0.72644 10.412 0.96859 10.654 11.018 0.24215 10.049 0.36322 15.982 0.36322 26.031s-0.12107 15.618-0.36322 25.668c-0.24214 10.049-2.1793 10.654-10.654 11.018-0.72644 0.72644-0.72644 2.0582 0 2.7847 4.7219-0.24214 12.107-0.60536 15.74-0.60536s10.654 0.24214 15.618 0.60536c0.72644-0.72644 0.72644-2.0582 0-2.7847-8.4751-0.36322-10.17-0.96859-10.412-11.018z"/>
  <path d="m222.38 644.61 0.12107 42.012c0 2.3004-0.60537 3.6322-1.4529 3.6322-0.96859 0-2.3004-2.1793-5.8115-6.659l-41.528-53.514-15.618-0.24215c-0.72645 0.72644-0.72645 2.0582 0 2.7847 5.8115 0.36322 8.8384 4.2376 10.17 8.9594l-0.12108 52.062c0 10.776-2.0582 11.502-10.533 12.349-0.72644 0.72644-0.72644 2.0582 0 2.7847 5.9326-0.12107 7.9908-0.60536 13.076-0.60536 5.0851 0 6.9012 0.48429 12.955 0.60536 0.72644-0.72644 0.72644-2.0582 0-2.7847-8.4751-0.84751-10.533-1.3318-10.533-12.349l-0.12108-38.622c0-4.1165 0.60537-5.9326 1.574-5.9326 0.72644 0 2.0582 1.3318 4.1165 3.9954l42.255 53.393c1.3318 1.8161 2.9058 2.9058 4.8429 2.9058 1.695 0 1.4529-1.4529 1.4529-3.7533l0.12107-61.021c0-10.776 2.0582-11.502 10.533-12.35 0.72644-0.72644 0.72644-2.0582 0-2.7847-5.9326 0.12107-7.9908 0.60537-13.076 0.60537-5.0851 0-6.9012-0.4843-12.955-0.60537-0.72644 0.72644-0.72644 2.0582 0 2.7847 8.4752 0.84751 10.533 1.3318 10.533 12.35z"/>
  <path d="m265.81 694.98c-0.24215-9.6859-0.36322-15.255-0.36322-24.82 4.2376 0.12107 8.4751 2.0582 11.018 5.2062l19.009 23.973c2.4215 3.1479 4.1165 6.7801 4.3586 8.7173 0 0.36322 0.12107 0.72644 0.60537 0.72644 2.4215-0.12107 2.1793-0.60536 5.8115-0.60536 4.7219 0 7.7487 0.48429 13.439 0.60536 0.72644-0.72644 0.72644-2.0582 0-2.7847-2.1793-0.36322-7.7487-1.574-11.865-6.659l-26.515-31.479c-0.96859-1.0897-1.574-2.0582-1.574-3.0268 0-0.84752 0.12107-1.695 4.2376-5.9326l17.798-18.282c5.5694-5.9326 11.623-7.7487 16.466-8.3541 0.72644-0.72644 0.72644-2.0582 0-2.7847-5.6904 0.12107-7.8698 0.60537-12.713 0.60537s-8.5962-0.4843-14.287-0.60537c-0.72644 0.72644-0.72644 2.0582 0 2.7847 4.3586 0.36322 9.5648 2.4215 4.6008 7.8698l-19.372 21.309c-2.5426 2.7847-6.538 4.964-11.018 5.3272 0-8.4751 0.12107-14.287 0.36322-23.488 0.24215-10.049 2.0582-10.654 10.533-11.018 0.72644-0.72644 0.72644-2.0582 0-2.7847-5.9326 0.12107-9.6859 0.60537-15.861 0.60537-6.0537 0-9.4437-0.4843-15.497-0.60537-0.72644 0.72644-0.72644 2.0582 0 2.7847 8.4751 0.36322 10.17 0.96859 10.412 11.018s0.48429 15.982 0.48429 26.031-0.24214 15.618-0.48429 25.668c-0.24215 10.049-1.9372 10.654-10.412 11.018-0.72644 0.72644-0.72644 2.0582 0 2.7847 5.9326-0.12107 9.5648-0.60536 15.74-0.60536 6.0537 0 9.5648 0.48429 15.618 0.60536 0.72644-0.72644 0.72644-2.0582 0-2.7847-8.4751-0.36322-10.291-0.96859-10.533-11.018z"/>
  <path d="m368.54 631.78c-7.0223-0.96859-6.659-3.269-18.524-3.269-12.228 0-23.004 8.1119-23.004 20.946 0 11.381 7.9908 16.829 17.435 20.825 7.6276 3.3901 20.219 6.0537 20.219 19.856 0 9.807-5.8115 16.103-15.376 16.103-11.381 0-19.856-6.2958-22.52-18.403-1.4529-0.48429-1.574-0.24215-2.6636 0.36322 0.4843 9.3227 0.96859 12.471 2.4215 18.403 7.6276 0 10.897 2.7847 21.672 2.7847 5.5694 0 10.776-1.3318 15.013-3.8744 6.9012-4.3586 11.381-11.865 11.381-19.614 0-11.502-7.8698-16.95-16.708-20.704-5.8115-2.4215-22.52-7.1433-22.52-19.009 0-6.7801 6.4169-14.771 13.439-14.771 11.865 0 16.829 8.7173 19.251 16.708 1.3318 0 1.574 0.12107 2.6636-0.72644-0.36322-5.8115-0.84752-9.2016-2.1793-15.618z"/>
  <path d="m421.98 709.39c11.744 0 23.73-5.5694 31.963-16.345-0.60537-1.0897-1.4529-1.8161-2.7847-1.8161-8.5962 9.4437-16.829 13.197-28.089 13.197-18.766 0-28.21-19.009-28.21-36.685 0-19.735 12.592-35.959 27.847-35.959 16.708 0 23.851 11.139 26.999 21.551 1.0897 0.12107 1.8161 0 2.7847-0.60537-0.60537-6.2958-1.4529-12.107-2.6636-18.766-6.1748-0.60537-11.623-5.4483-26.515-5.4483-23.973 0-39.349 18.766-39.349 41.528 0 21.43 11.986 39.349 38.017 39.349z"/>
  <path d="m489.71 674.52c-2.6636 0-3.5111-0.96859-3.0268-2.1793l12.713-31.358h0.36322l11.623 33.537zm-13.681 25.304 7.2644-18.766c0.60537-1.574 1.3318-2.6636 4.2376-2.6636h25.304l7.6276 22.278c1.695 4.964-3.1479 4.964-8.9594 5.3272-0.72644 0.72644-0.72644 2.0582 0 2.7847 4.4797-0.12107 11.139-0.60536 15.861-0.60536 4.964 0 10.17 0.48429 14.65 0.60536 0.72644-0.72644 0.72644-2.0582 0-2.7847-4.7219-0.36322-8.7173-0.84751-10.897-7.0223l-25.304-70.465c-1.8161 1.0897-4.7219 2.4215-6.2958 2.4215l-28.089 66.106c-3.1479 7.3855-6.7801 8.5962-12.107 8.9594-0.72644 0.72644-0.72644 2.0582 0 2.7847 4.4797-0.12107 7.2644-0.60536 11.986-0.60536 4.964 0 8.5962 0.48429 13.076 0.60536 0.72644-0.72644 0.72644-2.0582 0-2.7847-4.6008-0.24214-10.291-1.0897-8.3541-6.1748z"/>
  <path d="m565.53 672.34c2.6636 0.84752 6.1748 1.0897 10.291 1.0897 22.035 0 28.331-13.802 28.331-24.094 0-7.1433-4.4797-20.461-26.878-20.461-3.1479 0-11.623 1.2107-16.466 1.2107-6.0537 0-9.4437-0.4843-15.497-0.60537-0.72644 0.72644-0.72644 2.0582 0 2.7847 8.4751 0.36322 10.291 0.96859 10.412 11.018s0.24215 15.982 0.24215 26.031 0 15.618-0.24215 25.668c-0.24215 10.17-1.9372 10.654-10.412 11.018-0.72644 0.72644-0.72644 2.0582 0 2.7847 5.9326-0.12107 9.5648-0.60536 15.74-0.60536 6.7801 0 11.139 0.48429 17.192 0.60536 0.72644-0.72644 0.72644-2.0582 0-2.7847-8.3541-0.48429-12.35-1.0897-12.471-8.1119-0.12107-9.0805-0.24215-16.829-0.24215-25.547zm0.24215-34.748c0.12107-3.5111 2.0582-5.8115 10.776-5.8115 8.3541 0 16.95 4.3586 16.95 19.735 0 13.076-6.659 19.009-18.403 19.009-2.9058 0-7.9908-0.24215-9.5648-0.60537v-0.60536c0-10.049 0.12108-21.672 0.24215-31.721z"/>
  <path d="m647.32 664.95-14.166 0.12107s-0.12107-16.466 0.24215-26.394c0.12107-2.9058 1.574-5.3272 4.4797-5.3272h18.887c9.0805 0 10.897 6.4169 13.56 14.771 1.4529 0.24214 1.695 0 2.9058-0.60537-0.60537-4.964-2.4215-16.95-2.6636-17.919 0-0.24214-0.12107-0.36322-0.48429-0.36322-2.0582 0.36322-3.1479 0.84752-6.0537 0.84752h-35.353c-3.6322 0-9.6859-0.4843-15.74-0.60537-0.72644 0.72644-0.72644 2.0582 0 2.7847 8.4751 0.36322 10.049 0.96859 10.412 11.018 0.24215 9.928 0.24215 15.982 0.24215 26.031s0 15.74-0.24215 25.668c-0.36322 10.049-1.9372 10.654-10.412 11.018-0.72644 0.72644-0.72644 2.0582 0 2.7847 5.9326-0.12107 12.35-0.60536 15.982-0.60536h26.878c5.8115 0 15.497 0.60536 15.497 0.60536 1.695-6.0537 3.3901-14.408 4.3586-20.582-1.2107-0.72644-1.3318-0.96859-2.9058-0.60537-2.4215 8.7173-6.7801 17.435-15.982 17.435h-18.887c-2.6636 0-4.3586-1.9372-4.4797-5.2062-0.36322-10.17-0.24215-31.358-0.24215-31.358l14.166 0.12108c10.291 0.12107 10.776 2.6636 11.139 8.1119 0.72644 0.72644 1.9372 0.72644 2.6636 0-0.12108-4.2376-0.4843-5.6904-0.4843-9.4437 0-3.9954 0.36322-6.7801 0.4843-10.412-0.72644-0.72644-1.9372-0.72644-2.6636 0-0.36322 6.659-0.84751 8.1119-11.139 8.1119z"/>
 </g>
 <g id="inkscape-logo" transform="matrix(.61854 0 0 .61854 -9.1293 -9.5874)">
  <path d="m163.15 27.83-134.34 137.47c-45.39 56.21 30.89 49.67 63.59 65.86 11.73 11.99-44.96 20.84-33.23 32.84 11.73 11.99 70.93 23.1 82.68 35.09 11.73 11.99-24.01 24.71-12.28 36.7s38.86 0.63 43.94 28.31c3.62 19.78 48.89 8.5 71.03-7.7 11.73-12-22.44-10.87-10.71-22.86 29.17-29.83 56.33-10.84 66.31-40.73 4.93-14.77-42.94-22.77-31.19-34.76 33.75-19.71 150.4-32.54 95.05-87.89l-139.25-142.33c-17.03-16.35-45.45-16.53-61.6 0zm154.31 264.98c0 6.82 50.25 11.29 50.25-1.61-7.16-20.72-44.31-19.32-50.25 1.61zm-226.36 36.24c11.9 10.29 30.28-2.56 35.79-16.92-11.53-15.32-54.69 0.55-35.79 16.92zm220.06-22.23c-15.34 13.76 1.72 27.72 16.84 18.83 3.37-3.42-0.09-15.41-16.84-18.83z"/>
  <path d="m131 238.6c3.59 2.23 57.89 13.26 71.16 15.46 4.6 0.97 1.34 5.71-5 8.91-14.3 3.8-83.66-24.37-66.16-24.37z" fill="#fff"/>
  <path d="m216.63 37.47 53.15 53.98c5.04 5.15 4.97 15.13 2.15 18l-26.39-21.11-5.19 31.26-22.05-11.64-35.31 22.31-11.69-47.03-18.97 32.82h-29c-11.82 0-13.21-15-2.47-25.74 18.76-20.25 40.29-40.89 51.99-52.85 11.76-12.02 32.25-11.68 43.78 0z" fill="#fff"/>
 </g>
</svg>
