<?xml version="1.0" encoding="UTF-8" standalone="no"?>
<svg
   xmlns:dc="http://purl.org/dc/elements/1.1/"
   xmlns:cc="http://creativecommons.org/ns#"
   xmlns:rdf="http://www.w3.org/1999/02/22-rdf-syntax-ns#"
   xmlns:svg="http://www.w3.org/2000/svg"
   xmlns="http://www.w3.org/2000/svg"
   xmlns:sodipodi="http://sodipodi.sourceforge.net/DTD/sodipodi-0.dtd"
   xmlns:inkscape="http://www.inkscape.org/namespaces/inkscape"
   width="586.91785"
   height="139.30368"
   version="1.1"
   viewBox="0 0 586.91783 139.30368"
   xml:space="preserve"
   id="svg49"
   sodipodi:docname="mono-logo.svg"
   inkscape:version="1.0 (4035a4fb49, 2020-05-01)"><sodipodi:namedview
     lock-margins="true"
     fit-margin-bottom="10"
     fit-margin-right="10"
     fit-margin-left="10"
     fit-margin-top="10"
     inkscape:document-rotation="0"
     pagecolor="#ffffff"
     bordercolor="#666666"
     borderopacity="1"
     objecttolerance="10"
     gridtolerance="10"
     guidetolerance="10"
     inkscape:pageopacity="0"
     inkscape:pageshadow="2"
     inkscape:window-width="1920"
     inkscape:window-height="1017"
     id="namedview51"
     showgrid="false"
     inkscape:zoom="1.3350376"
     inkscape:cx="293.45892"
     inkscape:cy="69.651846"
     inkscape:window-x="-8"
     inkscape:window-y="-8"
     inkscape:window-maximized="1"
     inkscape:current-layer="svg49" /><metadata
     id="metadata2"><rdf:RDF><cc:Work
         rdf:about=""><dc:format>image/svg+xml</dc:format><dc:type
           rdf:resource="http://purl.org/dc/dcmitype/StillImage" /><dc:title></dc:title></cc:Work></rdf:RDF></metadata><defs
     id="defs7"><clipPath
       id="clipPath3625"><path
         d="M 0,583.94 H 810.71 V 0 H 0 Z"
         id="path4" /></clipPath></defs><g
     transform="matrix(1.3333,0,0,-1.3333,-247.00424,458.93544)"
     id="g47"><g
       transform="translate(331.41,273.18)"
       id="g11"><path
         d="M 0,0 V 31.944 L -13.21,0 h -1.979 l -13.15,31.944 V 0 h -4.83 v 38.814 h 6.924 l 12.048,-29.21 12.1,29.21 H 4.83 V 0 Z"
         fill="#1a1a1a"
         id="path9" /></g><g
       clip-path="url(#clipPath3625)"
       id="g45"><g
         transform="translate(359.74,276.78)"
         id="g15"><path
           d="m 0,0 c 2.172,0 4.129,0.404 5.872,1.2 1.749,0.79 3.239,1.895 4.483,3.31 1.244,1.419 2.204,3.087 2.879,5.006 0.682,1.927 1.017,4.011 1.017,6.259 0,2.247 -0.335,4.344 -1.017,6.289 -0.675,1.932 -1.635,3.599 -2.879,5.001 -1.244,1.395 -2.734,2.487 -4.483,3.283 -1.743,0.796 -3.7,1.2 -5.872,1.2 -2.179,0 -4.143,-0.404 -5.91,-1.2 -1.769,-0.796 -3.272,-1.888 -4.509,-3.283 -1.244,-1.402 -2.19,-3.069 -2.854,-5.001 -0.657,-1.945 -0.985,-4.042 -0.985,-6.289 0,-2.248 0.328,-4.332 0.985,-6.259 0.664,-1.919 1.61,-3.587 2.854,-5.006 C -9.182,3.095 -7.679,1.99 -5.91,1.2 -4.143,0.404 -2.179,0 0,0 m 0,-4.306 c -2.873,0 -5.493,0.504 -7.861,1.516 -2.362,1.011 -4.389,2.412 -6.081,4.217 -1.686,1.806 -2.994,3.928 -3.927,6.379 -0.929,2.436 -1.396,5.095 -1.396,7.969 0,2.867 0.467,5.531 1.396,7.968 0.933,2.45 2.241,4.572 3.927,6.378 1.692,1.805 3.719,3.207 6.081,4.217 2.368,1.011 4.988,1.516 7.861,1.516 2.866,0 5.487,-0.505 7.854,-1.516 2.362,-1.01 4.389,-2.412 6.082,-4.217 1.685,-1.806 2.992,-3.928 3.926,-6.378 0.929,-2.437 1.396,-5.101 1.396,-7.968 0,-2.874 -0.467,-5.533 -1.396,-7.969 C 16.928,5.355 15.621,3.233 13.936,1.427 12.243,-0.378 10.216,-1.779 7.854,-2.79 5.487,-3.802 2.866,-4.306 0,-4.306"
           fill="#1a1a1a"
           id="path13" /></g><g
         transform="translate(410.79,273.18)"
         id="g19"><path
           d="M 0,0 -22.637,30.959 V 0 h -4.83 v 38.814 h 4.945 L -0.178,8.492 v 30.322 h 4.83 V 0 Z"
           fill="#1a1a1a"
           id="path17" /></g><g
         transform="translate(439.14,276.78)"
         id="g23"><path
           d="m 0,0 c 2.17,0 4.129,0.404 5.871,1.2 1.748,0.79 3.24,1.895 4.483,3.31 1.244,1.419 2.205,3.087 2.88,5.006 0.682,1.927 1.016,4.011 1.016,6.259 0,2.247 -0.334,4.344 -1.016,6.289 -0.675,1.932 -1.636,3.599 -2.88,5.001 -1.243,1.395 -2.735,2.487 -4.483,3.283 -1.742,0.796 -3.701,1.2 -5.871,1.2 -2.18,0 -4.143,-0.404 -5.91,-1.2 -1.77,-0.796 -3.272,-1.888 -4.51,-3.283 -1.244,-1.402 -2.191,-3.069 -2.853,-5.001 -0.657,-1.945 -0.985,-4.042 -0.985,-6.289 0,-2.248 0.328,-4.332 0.985,-6.259 0.662,-1.919 1.609,-3.587 2.853,-5.006 C -9.182,3.095 -7.68,1.99 -5.91,1.2 -4.143,0.404 -2.18,0 0,0 m 0,-4.306 c -2.873,0 -5.494,0.504 -7.861,1.516 -2.362,1.011 -4.389,2.412 -6.082,4.217 -1.686,1.806 -2.993,3.928 -3.926,6.379 -0.93,2.436 -1.397,5.095 -1.397,7.969 0,2.867 0.467,5.531 1.397,7.968 0.933,2.45 2.24,4.572 3.926,6.378 1.693,1.805 3.72,3.207 6.082,4.217 2.367,1.011 4.988,1.516 7.861,1.516 2.865,0 5.486,-0.505 7.854,-1.516 2.361,-1.01 4.388,-2.412 6.082,-4.217 1.685,-1.806 2.992,-3.928 3.925,-6.378 0.928,-2.437 1.397,-5.101 1.397,-7.968 0,-2.874 -0.469,-5.533 -1.397,-7.969 C 16.928,5.355 15.621,3.233 13.936,1.427 12.242,-0.378 10.215,-1.779 7.854,-2.79 5.486,-3.802 2.865,-4.306 0,-4.306"
           fill="#1a1a1a"
           id="path21" /></g><g
         transform="translate(482.6,272.42)"
         id="g27"><path
           d="m 0,0 c -2.834,0 -5.5,0.473 -8,1.427 -2.5,0.953 -4.697,2.299 -6.58,4.048 -1.881,1.742 -3.365,3.857 -4.449,6.339 -1.088,2.481 -1.631,5.254 -1.631,8.324 0,3.061 0.543,5.833 1.631,8.321 1.084,2.482 2.568,4.597 4.449,6.34 1.883,1.748 4.08,3.088 6.58,4.016 2.5,0.933 5.166,1.401 8,1.401 2.016,0 3.852,-0.239 5.5,-0.7 1.648,-0.468 3.133,-1.099 4.451,-1.888 1.32,-0.796 2.481,-1.718 3.492,-2.767 1.012,-1.047 1.883,-2.159 2.621,-3.321 L 9.193,27.815 C 8.305,29.179 7.072,30.359 5.5,31.363 3.928,32.374 2.098,32.879 0,32.879 c -1.742,0 -3.365,-0.315 -4.861,-0.959 -1.491,-0.645 -2.778,-1.542 -3.866,-2.685 -1.084,-1.148 -1.931,-2.5 -2.531,-4.053 -0.607,-1.56 -0.902,-3.245 -0.902,-5.071 0,-1.831 0.295,-3.536 0.902,-5.109 0.6,-1.572 1.447,-2.924 2.531,-4.054 C -7.639,9.819 -6.352,8.934 -4.861,8.297 -3.365,7.652 -1.742,7.331 0,7.331 c 1.748,0 3.367,0.316 4.863,0.941 1.489,0.625 2.625,1.306 3.403,2.051 v 4.692 H -1.975 v 7.275 h 18.5 V 7.355 C 14.549,5.133 12.182,3.353 9.428,2.014 6.674,0.676 3.529,0 0,0"
           fill="#e73c00"
           id="path25" /></g><g
         transform="translate(519.91,303.73)"
         id="g31"><path
           d="M 0,0 -6.055,-16.708 H 6.049 Z m 10.709,-30.555 -2.387,6.574 H -8.322 l -2.444,-6.574 h -9.427 L -5.178,8.26 H 5.178 l 14.957,-38.815 z"
           fill="#e73c00"
           id="path29" /></g><g
         transform="translate(575.95,273.18)"
         id="g35"><path
           d="M 0,0 V 27.178 L -10.943,0 h -3.606 L -25.49,27.178 V 0 h -8.266 v 38.814 h 11.567 l 9.416,-23.451 9.414,23.451 H 8.258 V 0 Z"
           fill="#e73c00"
           id="path33" /></g><g
         transform="translate(590.49,273.18)"
         id="g39"><path
           d="M 0,0 V 38.814 H 27.467 V 31.54 H 8.266 V 23.332 H 27.062 V 16.059 H 8.266 V 7.274 H 27.467 V 0 Z"
           fill="#e73c00"
           id="path37" /></g><g
         transform="translate(282.23,298.08)"
         id="g43"><path
           d="m 0,0 v 12.218 c 0,14.56 -11.846,26.412 -26.406,26.412 -7.11,0 -13.575,-2.829 -18.33,-7.413 -4.754,4.584 -11.22,7.413 -18.329,7.413 -14.561,0 -26.407,-11.852 -26.407,-26.412 v -36.655 c 0,-14.567 11.846,-26.413 26.407,-26.413 h 36.659 C -11.846,-50.85 0,-39.004 0,-24.437 v 17.756 h -52.817 v -16.166 h 36.653 v -1.59 c 0,-5.652 -4.597,-10.248 -10.242,-10.248 h -36.659 c -5.646,0 -10.243,4.596 -10.243,10.248 v 36.655 c 0,5.651 4.597,10.248 10.243,10.248 5.651,0 10.248,-4.597 10.248,-10.248 V 0 h 16.163 v 12.218 c 0,5.651 4.597,10.248 10.248,10.248 5.645,0 10.242,-4.597 10.242,-10.248 V 0 Z"
           fill="#e73c00"
           id="path41" /></g></g></g></svg>
