<?xml version="1.0" encoding="UTF-8"?>
<svg width="914.67" height="782.67" version="1.1" viewBox="0 0 914.67 782.67" xml:space="preserve" xmlns="http://www.w3.org/2000/svg" xmlns:cc="http://creativecommons.org/ns#" xmlns:dc="http://purl.org/dc/elements/1.1/" xmlns:rdf="http://www.w3.org/1999/02/22-rdf-syntax-ns#"><metadata><rdf:RDF><cc:Work rdf:about=""><dc:format>image/svg+xml</dc:format><dc:type rdf:resource="http://purl.org/dc/dcmitype/StillImage"/><dc:title/></cc:Work></rdf:RDF></metadata><g transform="matrix(1.3333 0 0 -1.3333 0 782.67)"><g transform="scale(.1)"><g fill="#fff"><path d="m6203.2 5293h0.5c-61.48 35.48-129.95 45.98-205.42 32.49h-0.5c-75.47-13.5-135.94-47.99-180.93-102.47h-0.49v-0.5c-37.49-45.48-56.48-93.46-56.48-144.94-163.44-22.49-316.38-64.97-459.82-127.95-34.48 144.45-112.95 250.4-234.41 316.88-3.49 2-6.49 4-9.99 5.5l167.43 135.94c35.49-24.99 77.47-38.48 125.95-40.48 39.98-1.5 73.47 3 100.46 13.49 29.49 10.5 57.98 26.49 84.97 47.98 56.98 46.48 89.46 103.46 97.96 171.43 8.49 70.48-9.5 131.95-54.48 184.43-44.98 51.98-103.46 80.47-175.43 84.97h-1c-69.97 3.49-132.94-17.5-188.43-62.98l-0.5-0.5c-55.97-44.98-88.46-101.96-97.46-170.43v-0.5c-7.49-58.98 4.5-111.46 34.99-157.94l-198.42-160.93c-84.46 27.99-177.93 40.98-281.39 38.48-146.94-2.5-303.88-35.98-471.31-99.96-52.48-19.49-104.46-41.48-155.94-65.97-18.99 73.47-45.48 129.95-79.47 168.43-53.47 62.48-110.95 78.47-171.93 47.98-52.98-20.99-95.96-77.47-128.94-168.93v-0.5c-29.49-81.97-45.98-184.92-48.98-309.38-138.45-104.96-273.4-227.9-404.84-368.85-276.89-9-536.79-58.48-780.19-148.94h3717.5c-11.99 8-24.49 16-37.98 23.49-82.47 46.98-191.43 80.47-326.87 100.96-143.94 21.99-303.88 27.99-479.31 18.49 9 54.48 14.5 105.96 16.99 154.44 2.5 50.48 2 97.46-1.99 141.44 141.94 65.48 294.87 108.96 458.31 130.95 14.99-30.49 42.48-59.97 82.97-89.46 3-2 6.5-4 9.99-6.5l11.5-6.49c60.98-35.49 129.45-45.99 205.42-32.49 75.47 13.49 135.94 47.98 181.42 102.45 48.48 58.48 65.98 121.46 53.48 189.43-11.99 67.97-50.98 120.45-116.95 157.44zm-979.61 173.43-3.5 4 3.5-3.5v-0.5"/><path d="m6702 4312.9c-52.48 8.49-99.46 0.5-140.94-23.99l-1-1c-24.49-14.5-43.48-32.49-56.98-52.98-76.47 10.5-152.94 15.5-229.41 15-18.49 60.97-60.97 113.95-127.45 158.93h-3717.5c-151.94-55.98-296.88-127.95-435.33-215.42-3 60.48 5.5 118.46 25 174.44 28.48 1 56.47 8.99 84.46 24.49l3.5 2 5 3c5.49 3.49 11.49 7.49 16.99 11.49h-361.86c-18.49-15.49-36.98-29.99-56.47-42.48-1-0.5-2-1.5-2.5-2-71.97-44.98-153.44-69.47-244.91-72.97 29.49 36.48 56.49 75.97 81.97 117.45h-1520.9c10.496-42.48 26.988-81.97 48.48-117.95 40.485-70.47 117.45-129.45 230.91-177.43 95.461-40.98 207.92-69.47 336.37-85.97 32.484-4.49 64.972-7.49 96.961-9.99-81.469-46.49-152.44-99.46-212.42-158.94-91.464-90.46-135.44-177.43-131.95-260.89-10.496-4.5-20.492-9-30.488-14l-100.46-48.48 103.96-42.48c75.469-29.49 142.44-69.48 201.92-118.96 0-15.49 3.5-30.98 10.496-47.48v1c12.496-31.49 34.488-55.97 66.973-72.97h0.5c32.488-16.49 64.976-20.49 98.461-11.99h0.5c24.992 6.49 44.984 17.99 60.476 35.48 23.988 26.49 33.485 59.48 28.488 98.96l-1.5 7c-1.5 4.5-3 9-4.496 13.5-0.5 0.5-0.5 1-0.5 1.5-0.5 1.5-1 3-1.5 4.49-0.5 0.5-0.5 0.5-0.5 1-0.5 0.5-0.5 1.5-1 2-9.996 22.49-24.492 40.99-43.484 55.48l0.5-0.5c-7.496 6-14.992 10.99-22.988 14.99h-0.5c-20.492 10.5-40.485 15.5-60.477 16-8.496 15.49-14.992 29.98-18.492 43.48-3.5 15.49-4 29.49-0.5 41.98 22.492 66.48 122.95 121.95 301.38 165.44 0.5-1.5 1-2.5 2-4l51.48-116.95 98.96-185.93c-46.48-27.99-92.96-56.98-138.94-86.47-1-0.5-2-1.5-3-2-189.43-121.94-376.35-257.89-560.78-407.83h5995.6c0 4.49 0 8.49-0.5 12.49l-0.5 18-12.49 13.49c-221.42 243.9-456.32 448.32-703.72 613.26l-62.98 42.48-16.49-87.97c-119.45 54.98-238.41 106.46-357.86 154.44 246.4 52.48 450.32 108.96 611.76 168.93 235.91 88.47 367.85 179.93 396.34 274.89 66.97 0.5 133.94-3.5 200.92-11.99 2.5-33.49 16.99-64.47 42.98-93.46l0.5-0.5c31.49-36.49 73.47-58.48 126.45-66.98 52.48-8.49 99.46 0 141.45 24.49h-0.5c46.98 27.49 73.96 64.98 80.46 112.96v-0.5c8.5 47.48-5.5 91.46-41.48 131.95-31.49 36.48-73.97 58.47-126.45 66.97zm-4847.1-201.92 7.99-5.5c-46.48-33.48-91.46-68.47-135.94-105.96l8-10.49-8 10.49-10 13-6.99 9 6.99-9c13 7 25.5 14.5 37.99 21.99 36.49 22.99 69.97 48.48 99.96 76.47"/><path d="m2864.1 5403.5c0 40.48-14.5 74.97-42.99 103.46s-62.97 42.99-103.46 42.99c-40.48 0-74.96-14-103.45-42.49v-0.5h-0.5c-28.49-28.49-42.49-62.98-42.49-103.46 0-3.5 0-7 0.5-10.49-12.99-9-25.49-17.5-37.98-25.99-23.99 20.99-49.98 37.98-78.47 50.98-14 6.49-33.49 13.49-58.48 19.99-72.47 17.49-136.94 6.49-193.42-33.49h0.5c-58.47-38.98-92.46-96.46-101.96-172.43-6.5-2-13.5-4.5-19.99-7l-14.99-5.99c-6.5-2.5-15-6.5-26-13l-1-0.5c-61.47-32.49-114.95-67.47-161.43-104.95l-5.5-4.5c-55.48-45.48-100.46-95.47-134.44-148.95-18.5-28.98-32.99-56.97-42.99-83.96 2.5 61.48-3 121.45-16.49 178.93-28.49 126.45-104.46 225.41-227.41 296.88-81.47 48.48-209.42 93.46-382.85 134.94h-0.5c-94.456 21.5-165.43 38.49-213.41 49.98-83.469 20.5-154.44 39.99-212.91 58.98-154.44 50.48-277.39 115.95-368.36 195.92l-116.45 98.96 34.488-147.94c26.989-114.45 28.489-241.4 4.496-381.85v-0.5c-13.992-81.46-46.48-206.41-97.961-373.84-48.48-158.94-76.969-276.89-85.465-353.86v-0.5c-8.4961-77.47-4.5-147.44 10.996-210.42h1520.9c20 33.99 38.99 69.47 56.98 106.46 35.99 76.47 61.98 150.44 77.47 222.41 4-25.99 13.49-50.48 28.99-73.97l2-4 3-3.5c35.48-42.48 82.96-65.97 143.44-70.47-9-28.99-11-56.98-5.5-84.47-26.49-34.98-54.48-65.97-84.47-92.46h361.86c27.99 21.49 48.98 48.98 62.98 81.97v0.5l0.5 1.5c1 2.5 2 5.49 2.99 7.99 18 48.48 16.5 94.46-3.99 137.95-2.5 7-8.5 16.49-17 28.99l-3 3.5c-2 2.49-4 4.49-5.49 5.99-0.5 0.5-0.5 0.5-0.5 1 55.47 34.99 109.95 79.47 163.93 133.45h0.5c15.49 15.49 29.49 31.49 41.98 47.98 66.98-12.99 126.95-1 180.43 35.49 61.48 41.48 95.46 103.45 101.96 184.92 1.5 17.5 1.5 34.99 0.5 51.98-1.5 21.49-5.5 42.48-11.49 63.48v0.5c-3.5 12.99-8 25.48-13.5 37.98 12.5 10.5 25.49 20.49 39.48 30.99 15.5-5.5 31.49-8 48.98-8 40.49 0 74.47 14 102.96 42.48l1 1c28.49 28.49 42.49 62.48 42.49 102.96zm-580.77-148.44c4.5 6.5 10.49 12 16.99 16.5 21.49 13.99 46.48 16.99 74.47 8.49-33.49-12.99-63.97-21.49-91.46-24.99zm174.93-214.41c-2-1-4-2-5.5-3 4 7.5 8.5 15.49 13.5 22.99l0.5 1.5 1 1.5c0.99 1.5 1.99 3.5 2.99 5l0.5 0.5c6 8.49 12.5 16.99 19.49 25.49-4.49-22.99-14.99-40.99-32.48-53.98zm-5 7.5 0.5 2c-0.5-1-0.5-2-0.5-2.5v0.5"/><path d="m236.64 2778-15.492-13.5-1-20.49c-28.489-401.84 27.488-803.68 167.93-1205 2.996-8.5 7.996-15.99 14.492-21.49 5-4.5 10.996-7.5 17.993-10l2.5-0.5c0.5-0.5 1-0.5 2-0.5l138.94-34.99h4675.1c30.49 49.49 58.47 99.97 84.46 151.45 29.99 56.47 55.98 114.45 77.47 173.93l92.47-15.5 53.47 63.48 35.99-373.36h129.95l176.43 13h3 1l2.49 0.5c2.5 0.5 4.5 1 7 1.5l397.34 118.95-101.96 644.75 151.44 120.95 1.5 1.5c8 6.49 13.49 14.99 15.99 25.48 44.98 174.44 63.98 354.86 56.98 541.79h-5995.6c-64.473-51.98-128.45-105.96-191.92-161.93"/><path d="m1318.2 1243.6c-0.5 0-0.5 0-1-0.5l-0.5-0.5c-34.98-19.49-55.97-50.98-63.47-93.47v0.5c-7.5-38.48-1-75.47 19.99-110.95v-0.5c6.5-11 13.5-20.99 21.99-29.49l-35.48-96.959c-46.98 25.489-93.96 47.481-140.94 66.473h0.5c-17 6.996-33.49 13.496-49.99 19.492l-59.97 21.994-34.986-343.86c-80.969-97.461-124.95-190.43-131.95-278.89v-0.496c-10.497-108.46 31.488-204.42 126.95-288.39 98.956-87.465 206.92-120.45 323.87-98.961 109.46 18.992 201.92 82.469 277.39 190.93l356.36 100.46-44.98 58.477c-31.49 40.484-62.98 78.969-95.46 116.45l132.94 63.977c7.5-4.5 16-8.996 24.99-12.496 33.49-13.493 67.98-14.493 102.46-3.996h-0.5c34.49 10.496 59.48 29.488 74.97 56.476 311.88-151.94 660.74-227.91 1046.6-228.41 391.85 0 750.7 78.469 1076.6 235.91l81.46 40.985c169.43 90.464 329.87 202.92 481.31 337.36 175.93 156.44 319.87 324.87 431.83 506.29h-4675.1l502.79-126.94 107.96 119.45c41.99-75.47 89.97-148.94 143.44-220.41zm197.43-226.91c16.99-16.994 34.48-33.99 51.98-50.482 22.48-21.492 44.98-41.985 68.47-62.473l-124.45-161.94-0.5 0.5c-0.5 0.5-1.5 1-2 1.5-2.5 2-4.5 3.5-6 4.996h-0.5c-36.49 29.488-88.46 66.476-155.44 111.46l36.49 99.961c31.48-5.5 60.97-0.5 88.46 15.992h-0.5c18.5 10.496 32.99 23.996 43.99 40.486zm196.92-176.93c54.47-43.981 110.95-84.965 168.93-123.45-4.5-5.5-8-11.496-11.5-17.992v-0.5c-12.99-24.992-16.49-50.48-9.99-75.972l-143.44-69.469c-1 0.996-2 1.996-3 2.996-40.99 42.984-82.97 83.469-125.45 121.45l124.45 162.93"/><path d="m5583 1471.6 1-9.49 128.95 9.49z"/></g><g fill="none" stroke-miterlimit="10"><path d="m1717 4012.5-6.99 9" stroke="#fff" stroke-width=".4998"/><path d="m1735 3989-8 10.49" stroke="#fff" stroke-width=".4998"/><path d="m6591.1 4170c-142.44 27.98-284.88 36.48-427.32 25.48" stroke="#000" stroke-linecap="round" stroke-linejoin="round" stroke-width="49.98"/></g><path d="m5863.9 3922.1c270.39 100.97 392.34 201.93 364.85 303.38-17.49 64.48-65.47 118.96-144.94 163.44-77.97 43.98-181.43 75.47-309.88 94.96-273.39 41.49-604.76 25.49-994.6-48.48l-104.96-784.69c519.29 79.47 916.14 169.94 1189.5 271.39" fill="#00746b"/><path d="m6196.2 4212.5c-16.49 53.48-62.97 96.46-139.44 129.95-74.97 32.48-174.43 53.48-298.38 61.97-263.4 19.5-582.27-13.99-957.62-99.46l-100.96-671.73c500.3 97.96 881.65 197.92 1145 300.38 260.4 101.46 377.85 194.42 351.36 278.89" fill="#2a5953"/><path d="m4674.4 3650.7c519.29 79.47 916.14 169.94 1189.5 271.39 270.39 100.97 392.34 201.93 364.85 303.38-17.49 64.48-65.47 118.96-144.94 163.44-77.97 43.98-181.43 75.47-309.88 94.96-273.39 41.49-604.76 25.49-994.6-48.48" fill="none" stroke="#000" stroke-linecap="round" stroke-linejoin="round" stroke-miterlimit="10" stroke-width="49.98"/><path d="m6791 4213c-24.5 27.49-56.48 43.98-96.97 50.48-40.48 6.5-76.47 0.5-108.45-17.99-31.99-19-50.48-44.99-55.98-77.47-5-32.49 5-62.98 29.49-90.47s56.48-44.48 96.96-50.97c40.48-6.5 76.47 0 108.45 18.49 32.49 18.49 50.98 44.48 55.98 76.97 5.5 32.48-4.5 62.97-29.48 90.96" fill="#f26d7d"/><path d="m6784 4163.5c-16 17.99-37.49 28.99-63.98 33.48-26.49 4-49.98 0-71.47-11.99-20.99-12.49-33.48-29.49-36.98-50.98s3-41.48 19.49-59.97c15.99-18 37.48-28.99 63.97-33.49 26.49-4 50.48 0 71.97 12.49 21.5 12.5 33.49 28.99 36.49 50.48 3.5 21.5-3 41.49-19.49 59.98" fill="#b25963"/><path d="m6694 4263.4c-40.48 6.5-76.47 0.5-108.45-17.99-31.99-19-50.48-44.99-55.98-77.47-5-32.49 5-62.98 29.49-90.47s56.48-44.48 96.96-50.97c40.48-6.5 76.47 0 108.45 18.49 32.49 18.49 50.98 44.48 55.98 76.97 5.5 32.48-4.5 62.97-29.48 90.96-24.5 27.49-56.48 43.98-96.97 50.48z" fill="none" stroke="#000" stroke-linecap="round" stroke-linejoin="round" stroke-miterlimit="10" stroke-width="49.98"/><path d="m5935.9 4245.4c0 41.48-20 76.46-59.48 105.95-39.49 29.49-86.97 43.99-142.94 43.99-55.98 0-103.96-14.5-143.44-43.99-39.49-29.49-58.98-64.47-58.98-105.95 0-41.49 19.49-76.47 58.98-105.96 39.48-29.49 87.46-43.98 143.44-43.98 55.97 0 103.45 14.49 142.94 43.98 39.48 29.49 59.48 64.47 59.48 105.96" fill="#ffd064"/><path d="m5876.4 4351.4c-39.49 29.49-86.97 43.99-142.94 43.99-55.98 0-103.96-14.5-143.44-43.99-39.49-29.49-58.98-64.47-58.98-105.95 0-41.49 19.49-76.47 58.98-105.96 39.48-29.49 87.46-43.98 143.44-43.98 55.97 0 103.45 14.49 142.94 43.98 39.48 29.49 59.48 64.47 59.48 105.96 0 41.48-20 76.46-59.48 105.95z" fill="none" stroke="#000" stroke-linecap="round" stroke-linejoin="round" stroke-miterlimit="10" stroke-width="29.988"/><path d="m5770.9 4256.4c0 14.5-7.49 26.49-21.99 36.99-14.49 10.49-32.48 15.49-52.98 15.49-20.99 0-38.98-5-53.48-15.49-14.49-10.5-21.49-22.49-21.49-36.99 0-14.49 7-26.49 21.49-36.98 14.5-10.5 32.49-15.5 53.48-15.5 20.5 0 38.49 5 52.98 15.5 14.5 10.49 21.99 22.49 21.99 36.98" fill="#2f211e"/><g fill="none" stroke="#000" stroke-linecap="round" stroke-linejoin="round" stroke-miterlimit="10"><path d="m5748.9 4293.4c-14.49 10.49-32.48 15.49-52.98 15.49-20.99 0-38.98-5-53.48-15.49-14.49-10.5-21.49-22.49-21.49-36.99 0-14.49 7-26.49 21.49-36.98 14.5-10.5 32.49-15.5 53.48-15.5 20.5 0 38.49 5 52.98 15.5 14.5 10.49 21.99 22.49 21.99 36.98 0 14.5-7.49 26.49-21.99 36.99z" stroke-width="29.988"/><path d="m5878.9 5040.1c-223.41-17.49-428.83-71.47-615.75-162.44" stroke-width="49.98"/><path d="m5244.1 5490-313.37-254.4" stroke-width="49.98"/></g><path d="m4671.4 5305c-141.44-2.5-293.38-34.98-454.82-96.46-70.47-26.49-140.44-57.47-208.91-92.96-16.49 95.46-43.99 164.93-81.97 209.42-35.48 41.48-73.47 53.47-113.45 34.98-41.49-18.49-75.47-65.47-102.46-140.44-29.49-83.47-44.98-189.43-46.48-318.38-147.95-109.95-291.89-240.9-431.83-392.34 367.35-431.82 948.12-693.72 1742.8-786.18 42.48 95.46 83.47 193.92 122.45 296.38 104.46-8 191.93 1 262.4 26.49 63.47 22.99 101.46 54.47 113.95 94.46 12.5 39.48-4 75.97-49.48 108.46-49.98 36.48-125.45 59.47-226.41 69.47 41.99 148.44 65.98 278.38 71.98 390.84 13.49 250.9-62.48 422.33-227.92 514.29-103.45 57.48-226.91 84.97-369.85 81.97" fill="#7cc576"/><path d="m4944.2 5130.6c-189.42 67.48-407.33 42.98-652.73-73.47-244.91-115.45-448.32-299.88-610.76-552.28 348.86-142.94 780.19-379.35 1293.5-709.21 28.99 47.48 51.48 86.96 67.97 119.45 20.5 39.48 37.99 79.97 52.48 120.95 79.47-5.5 149.94 3 211.42 26.49 65.47 24.99 94.96 58.48 87.96 99.96-8.49 50.48-94.46 77.47-257.39 80.97 18.99 96.96 31.48 182.43 37.48 256.89 9.5 113.96 7.5 213.42-5.5 297.89-11.49 71.47-29.98 129.44-55.47 173.93-22.49 38.48-49.48 72.47-80.47 101.45-29.99 27.5-59.48 46.49-88.47 56.98" fill="#6f9b64"/><path d="m4974.2 3722.7c42.48 95.46 83.47 193.92 122.45 296.38 104.46-8 191.93 1 262.4 26.49 63.47 22.99 101.46 54.47 113.95 94.46 12.5 39.48-4 75.97-49.48 108.46-49.98 36.48-125.45 59.47-226.41 69.47 41.99 148.44 65.98 278.38 71.98 390.84 13.49 250.9-62.48 422.33-227.92 514.29-103.46 57.48-226.91 84.97-369.85 81.97-141.44-2.5-293.38-34.98-454.82-96.46-70.47-26.49-140.44-57.48-208.91-92.96-16.5 95.46-43.99 164.93-81.97 209.42-35.48 41.48-73.47 53.47-113.45 34.98-41.49-18.49-75.47-65.47-102.46-140.45-29.49-83.46-44.98-189.42-46.48-318.37-147.95-109.95-291.89-240.9-431.83-392.34" fill="none" stroke="#000" stroke-linecap="round" stroke-miterlimit="10" stroke-width="49.98"/><path d="m4604.9 5117.6c-98.96 5.99-189.43-19.49-271.89-76.47-82.47-57.98-132.95-130.95-150.94-218.42-17.49-87.96 2-164.93 59.48-230.9 56.97-66.97 134.94-103.46 233.9-109.46 98.96-6.49 189.92 19.49 272.39 77.47 82.47 57.48 132.45 129.95 149.94 217.91 18 87.47-1.5 164.94-58.47 231.41-57.48 65.97-135.45 101.96-234.41 108.46z" fill="none" stroke="#7cc576" stroke-linecap="round" stroke-linejoin="round" stroke-miterlimit="10" stroke-width="79.968"/><path d="m4900.3 4782.7c18 87.47-1.5 164.93-58.48 231.41-57.47 65.97-135.44 101.96-234.4 108.45-98.96 6-189.43-19.49-271.89-76.46-82.47-57.98-132.95-130.95-150.94-218.42-17.5-87.96 1.99-164.93 59.48-230.91 56.97-66.97 134.94-103.45 233.9-109.45 98.96-6.5 189.92 19.49 272.39 77.47 82.47 57.48 132.45 129.95 149.94 217.91" fill="#fff356"/><path d="m4397 4955.2c-70.47-48.48-113.45-109.45-129.95-182.93-16.49-73.46-1-137.94 45.49-193.42 46.98-55.97 111.95-86.46 194.42-91.46 82.96-5.5 159.43 16.49 229.41 64.97 69.97 47.98 112.95 108.96 128.95 182.43 16.49 73.47 1.5 137.95-44.99 193.92-46.98 54.98-111.95 84.97-194.92 90.47-82.97 4.99-158.93-16.5-228.41-63.98" fill="#cbbb4e"/><path d="m4607.4 5122.6c-98.96 6-189.43-19.49-271.89-76.46-82.47-57.98-132.95-130.95-150.94-218.42-17.5-87.96 1.99-164.93 59.48-230.91 56.97-66.97 134.94-103.45 233.9-109.45 98.96-6.5 189.92 19.49 272.39 77.47 82.47 57.48 132.45 129.95 149.94 217.91 18 87.47-1.5 164.93-58.48 231.41-57.47 65.97-135.44 101.96-234.4 108.45z" fill="none" stroke="#000" stroke-linecap="round" stroke-linejoin="round" stroke-miterlimit="10" stroke-width="29.988"/><path d="m4409 5042.1c-21.99-15.5-35.49-34.49-40.49-56.98-5.5-22.99-0.5-42.98 14-60.47 14.49-17.5 34.98-26.5 60.47-27.99 25.5-1.5 49.48 4.99 71.48 19.99 21.49 14.99 34.98 33.98 39.98 56.98 5 22.48 0.5 42.48-14 59.97-14.49 17.5-34.98 26.99-60.47 28.49-25.99 1.5-49.48-5.5-70.97-19.99" fill="#fff356"/><path d="m4462.4 4895.2c-43.99 1.99-84.47-7.5-120.95-27.99-36.49-21.49-58.98-47.99-66.98-80.47-8-32.49 1-60.48 26.49-84.47 25.49-24.49 59.98-37.98 103.96-40.48 43.48-2 83.97 7.5 120.95 28.49 36.49 20.99 58.48 47.48 66.47 79.96 8 32.49-0.5 60.48-25.98 84.97-25.5 24.49-60.48 37.49-103.96 39.99" fill="#6f4d4a"/><path d="m4341.5 4867.2c-36.49-21.49-58.98-47.99-66.98-80.47-8-32.49 1-60.48 26.49-84.47 25.49-24.49 59.98-37.98 103.96-40.48 43.48-2 83.97 7.5 120.95 28.49 36.49 20.99 58.48 47.48 66.47 79.96 8 32.49-0.5 60.48-25.98 84.97-25.5 24.49-60.48 37.49-103.96 39.99-43.99 1.99-84.47-7.5-120.95-27.99z" fill="none" stroke="#000" stroke-linecap="round" stroke-linejoin="round" stroke-miterlimit="10" stroke-width="29.988"/><path d="m5399.1 5819.8c-57.48 2.5-108.96-14.5-154.94-51.98-45.48-36.49-71.97-82.97-79.47-138.45-6.99-55.48 7.5-103.96 42.99-145.44 35.98-41.98 82.96-64.47 140.94-66.97 57.48-3 108.96 13.99 154.44 50.98 46.48 37.48 72.97 83.46 79.97 138.94s-7.5 103.96-42.98 145.44c-35.99 41.49-82.97 63.98-140.95 67.48" fill="#f26d7d"/><path d="m5525.5 5675.4c-25.99 29.48-59.97 45.98-101.46 48.48-41.48 2-78.47-10.5-111.45-37.49-32.99-26.49-51.98-59.48-57.48-99.46-5-39.98 5.5-74.97 30.99-104.96 25.99-29.99 59.97-45.98 101.46-47.98 41.48-2.5 78.46 9.99 111.45 36.49 33.49 26.99 52.48 60.47 57.48 99.96 5 39.98-5.5 74.97-30.99 104.96" fill="#c25e69"/><path d="m5244.1 5767.8c-45.48-36.49-71.97-82.97-79.47-138.45-6.99-55.48 7.5-103.96 42.99-145.44 35.98-41.98 82.96-64.47 140.94-66.97 57.48-3 108.96 13.99 154.44 50.98 46.48 37.48 72.97 83.46 79.97 138.94s-7.5 103.96-42.98 145.44c-35.99 41.49-82.97 63.98-140.95 67.48-57.48 2.5-108.96-14.5-154.94-51.98z" fill="none" stroke="#000" stroke-linecap="round" stroke-linejoin="round" stroke-miterlimit="10" stroke-width="49.98"/><path d="m6006.8 5276.5c-63.47-11.5-113.95-39.99-151.94-85.47-37.49-45.48-51.48-94.96-41.98-147.94 9.49-53.48 39.98-94.47 91.46-123.45 51.48-29.49 108.45-37.99 171.93-26.49 63.47 11.49 113.95 39.48 151.94 84.96 37.98 45.49 51.98 94.96 42.48 148.44-9.49 52.98-40.48 93.96-91.96 122.95-51.48 29.49-108.46 38.49-171.93 27" fill="#f26d7d"/><path d="m6067.8 5172.6c-44.48 1.5-84.46-9.99-119.95-34.48-35.48-24.49-55.97-54.98-61.47-91.96-5.5-36.49 5.5-68.98 32.98-96.47 27.99-27.48 64.48-42.48 109.46-44.48 44.48-2 83.97 9 119.45 33.49 35.99 24.99 56.48 55.97 61.98 92.46s-6 68.98-33.49 96.46c-27.49 27.49-63.97 42.49-108.96 44.98" fill="#c25e69"/><path d="m5854.9 5191.1c-37.49-45.48-51.48-94.96-41.98-147.94 9.49-53.48 39.98-94.47 91.46-123.45 51.48-29.49 108.45-37.99 171.93-26.49 63.47 11.49 113.95 39.48 151.94 84.96 37.98 45.49 51.98 94.96 42.48 148.44-9.49 52.98-40.48 93.96-91.96 122.95-51.48 29.49-108.46 38.49-171.93 27-63.47-11.5-113.95-39.99-151.94-85.47z" fill="none" stroke="#000" stroke-linecap="round" stroke-linejoin="round" stroke-miterlimit="10" stroke-width="49.98"/><g><path d="m3895.2 5185.1c-17.99 21.49-37.48 25.49-57.97 12-45.49-30.49-76.47-118.46-92.97-264.4l197.43 132.95c-11.5 56.97-27 96.96-46.49 119.45" fill="#6f9b64"/><path d="m4869.8 3908.6c-424.34 400.84-946.63 601.26-1565.9 601.26s-1155-200.42-1606.4-601.26c-450.82-401.34-685.72-885.65-704.21-1452.9-18.492-567.27 183.92-1051.6 608.25-1452.9 424.83-401.33 947.12-601.76 1566.4-601.76s1154.5 200.42 1605.9 601.76c451.32 401.34 686.73 885.65 705.22 1452.9s-184.43 1051.6-609.25 1452.9" fill="#c6996d"/><path d="m3679.3 4500.3c174.43-86.46 323.87-172.93 448.32-259.89 111.46-77.97 212.92-163.44 304.38-256.9-400.84 200.92-801.68 286.39-1202 256.4-359.36-26.99-691.73-143.45-997.1-348.86-283.89-190.93-508.3-432.83-673.23-725.71-163.94-290.88-240.91-582.27-231.41-874.65 0.5-14.5 0-33.49-1-57.98-1.5-27.49-2-46.98-2-57.98l-205.41-68.97-79.97-284.88 249.89-449.82 151.95 165.43c48.48-96.46 102.95-185.92 163.43-268.39 58.98-79.97 131.95-164.44 218.41-253.9 359.36-368.85 807.18-553.28 1343.5-553.28 536.29 0 1004.6 184.43 1403.9 553.28 119.46 110.46 220.42 219.91 302.38 329.37 81.47 107.46 153.44 227.41 216.92 358.85l203.91-61.47 114.96 319.87-228.91 57.48c16.99 88.46 27.99 178.93 32.98 272.39 15.5 289.38-1.99 534.29-52.47 734.7-46.98 185.43-125.45 350.86-234.91 495.3l67.97 269.9c-359.35 394.84-797.18 631.25-1314.5 709.71" fill="#8f6c5e"/></g><path d="m3303.9 4509.8c-619.25 0-1155-200.42-1606.4-601.26-450.82-401.34-685.72-885.65-704.21-1452.9-18.496-567.27 183.92-1051.6 608.25-1452.9 424.83-401.33 947.12-601.76 1566.4-601.76s1154.5 200.42 1605.9 601.76c451.32 401.34 686.73 885.65 705.22 1452.9s-184.43 1051.6-609.26 1452.9c-424.33 400.84-946.62 601.26-1565.9 601.26z" fill="none" stroke="#000" stroke-linecap="round" stroke-linejoin="round" stroke-miterlimit="10" stroke-width="49.98"/><path d="m2552.2 5270c-40.48 59.47-91.96 97.96-154.44 115.95-62.47 18.49-117.45 10.99-165.93-22.49-48.48-32.99-75.47-81.97-81.47-146.44-5.49-64.98 11.5-126.95 51.98-186.43 40.49-58.97 91.46-97.46 153.94-115.45 62.98-18.5 118.45-11.5 166.93 21.49 48.48 33.49 74.97 82.47 80.47 147.44 6 64.98-10.99 126.95-51.48 185.93zm-336.87-62.48c3.5 46.98 22.5 81.97 56.98 105.46 34.49 23.49 73.97 27.99 118.45 14.49 45.49-13.99 82.97-42.48 112.46-85.96s42.48-88.47 38.98-135.95c-3-47.48-21.49-82.46-55.97-105.96-34.49-23.49-73.97-27.98-119.45-13.99-45.49 13.99-82.47 42.48-111.96 85.97-29.49 43.48-42.98 88.46-39.49 135.94" fill="#9ddff9"/><path d="m2599.7 5187.1-30.99 64.97-46.48-43.98 14-78.47 63.47 57.48" fill="#86adc0"/><path d="m2397.8 5386c-62.47 18.49-117.45 10.99-165.93-22.49-48.48-32.99-75.47-81.97-81.47-146.44-5.49-64.98 11.5-126.95 51.98-186.43 40.49-58.97 91.46-97.46 153.94-115.45 62.98-18.49 118.45-11.5 166.93 21.49 48.48 33.49 74.97 82.47 80.47 147.44 6 64.98-10.99 126.95-51.48 185.93-40.48 59.47-91.96 97.96-154.44 115.95z" fill="none" stroke="#000" stroke-linecap="round" stroke-linejoin="round" stroke-miterlimit="10" stroke-width="29.988"/><path d="m2215.3 5207.6c-3.49-47.48 10-92.46 39.49-135.94 29.49-43.49 66.47-71.98 111.96-85.97 45.48-13.99 84.96-9.5 119.45 13.99 34.48 23.5 52.97 58.48 55.97 105.96 3.5 47.48-9.49 92.47-38.98 135.95s-66.97 71.97-112.46 85.96c-44.48 13.5-83.96 9-118.45-14.49-34.48-23.49-53.48-58.48-56.98-105.46z" fill="none" stroke="#000" stroke-linecap="round" stroke-linejoin="round" stroke-miterlimit="10" stroke-width="29.988"/><g><path d="m2073.9 4677.3c-33.49 8.5-65.97 3-98.46-15.49s-55.48-45.48-67.97-80.47c-11.5-31.49-12.5-60.97-2-89.46-48.98-70.47-104.96-126.45-168.43-167.44 34.48-58.47 72.47-107.45 113.45-146.44 32.49-30.49 66.47-54.97 102.96-73.47-21.49 111.96-11 217.41 31.99 316.88 31.99-7.5 63.47-2 94.96 15.99 32.49 18.49 54.98 45.48 67.47 80.97 13 34.98 12 67.97-2.49 98.96-14.5 31.49-38.49 51.48-71.48 59.97" fill="#543e3c"/><path d="m936.86 4058c-154.94-61.47-280.89-139.44-377.85-234.9-91.961-90.47-129.45-176.93-111.95-258.4 58.476 19.49 118.95 26.49 180.92 21.49 20.493 91.96 147.44 163.93 380.85 215.42 80.97-205.42 184.92-393.85 312.37-564.78l749.7 309.88c-170.43 153.43-313.37 315.37-429.83 485.3 84.97 36.49 154.94 85.47 209.42 145.94-40.98 38.99-78.97 87.97-113.45 146.44-89.47-57.47-192.93-84.96-310.38-82.96-5-252.4 51.48-530.79 169.43-834.67-151.44 101.46-279.39 204.42-383.84 308.38-104.46 104.46-196.43 218.41-275.4 342.86" fill="#ffd064"/><path d="m620.48 3393.8c-5-15.5-4-30.99 3-47.49 8.496-20.49 22.989-36.48 43.981-47.48 20.992-10.49 42.484-13.49 63.973-7.99 21.492 5.49 36.488 16.99 45.484 35.48 9.496 18.5 9.996 37.49 1.5 57.98-8.496 20.99-23.492 36.99-43.984 47.48-20.993 10.5-41.985 13.5-62.973 8-38.985 53.48-53.481 102.46-43.485 146.44-61.976 5-122.45-2-180.92-21.49-21.492-6.5-42.485-14.99-63.477-25.49 89.465-35.49 168.43-83.97 236.91-145.44" fill="#543e3c"/><path d="m1233.7 4269.4-254.9-114.46c-9.496-28.49-23.492-60.97-41.985-96.96 78.965-124.45 170.94-238.4 275.4-342.86 104.45-103.96 232.4-206.92 383.84-308.38-117.95 303.88-174.43 582.27-169.43 834.67-60.48 1.5-124.95 10.5-192.92 27.99" fill="#543e3c"/><path d="m644.47 3393.8c-17.493-34.49-11.493-61.48 18.992-81.97 30.488-20.49 66.976-19.99 108.46 2 27.488 80.97-4.496 122.45-94.961 124.95-40.984 53.98-59.477 102.96-54.977 146.94h-88.464c6.996-64.48 43.98-128.45 110.95-191.92" fill="#3a2b29"/><path d="m2123.9 4655.8-44.98 32.49-144.94-62.48 57.47-24.99c-31.98-27.98-44.48-68.97-37.48-122.45-29.99-51.47-57.48-92.96-82.97-124.45-30.98-38.48-63.47-68.47-97.46-89.96l80.97-99.46c18.49 6 29.49 5.5 31.99-1 4.5 95.46 31.98 187.92 82.47 277.39 161.43-31.99 213.41 39.48 154.93 214.91" fill="#3a2b29"/><path d="m533.52 3585.7h88.464c9.496 99.96 136.45 174.43 379.85 222.91l196.42-389.84 62.48 36.48 486.3 254.4c-81.46 134.95-129.94 245.4-145.44 331.37 151.94 34.99 236.41 75.97 252.9 123.45l-80.97 99.46c-63.47-46.98-130.95-73.97-202.92-80.97-70.47-6.5-141.44 6-213.91 37.99l-402.34-182.43c-130.45-72.47-234.91-149.44-312.38-231.91-79.469-84.46-115.46-157.94-108.46-220.91" fill="#cba357"/><path d="m2080.4 4701.3h-0.5c-39.49 10.49-78.47 4.49-116.95-18-37.99-21.49-64.48-52.98-78.97-93.46-12.5-32.49-14.5-63.98-6-93.96-45.48-62.98-96.96-112.96-154.44-150.44-85.46-54.48-183.92-80.97-296.38-78.97-58.98 1.5-121.45 10.49-186.93 26.99l-8.49 2-272.89-122.45-3.496-10.5c-8.5-25.49-20.493-53.48-36.489-84.97-154.44-61.97-279.89-140.94-377.35-236.9-91.465-89.97-132.45-176.43-122.45-259.4-15.493-5.5-30.985-12-46.481-19.49l-49.98-24.49 51.98-21.49c81.469-31.99 154.44-75.47 218.41-130.95-2-15.49 0.5-31.49 7.496-47.98v-0.5c10.496-25.99 28.988-45.98 55.477-59.98h0.5c26.488-13.49 53.48-16.49 80.969-9.99 28.988 7.5 49.48 23.49 61.972 48.98v-0.5c12.496 24.99 13.496 51.48 2.5 78.97h-0.5c-10.996 26.49-29.488 46.48-55.476 59.97-20.993 10.5-41.985 15-62.977 13-27.488 41.48-37.484 79.47-30.484 113.95 20.488 79.47 134.44 143.45 341.36 191.43 80.464-199.43 182.92-382.85 307.37-550.28l11.5-15.5 804.18 332.37-29 26.49c-160.43 144.94-296.87 296.88-408.83 456.32 67.47 32.48 125.45 72.97 172.93 121.45 28.49-24.49 58.98-44.99 90.46-60.98l44.49-22.99-9 49.98c-19.49 100.46-11.49 194.92 23.49 284.39 30.49-2.5 60.98 4.5 91.46 21.99 37.49 21.99 63.98 53.48 78.47 94.46v-0.5c15.5 41.98 14 81.47-3.5 118.45h0.5c-18.49 38.49-47.48 62.98-87.96 73.48zm-1503.9-896.15c94.965 93.47 218.41 169.93 369.85 229.41l4.5 2 4 1.5 4.496 8.5c16.992 32.98 30.488 62.97 39.984 89.96l236.91 106.46c66.47-16.5 129.94-24.99 189.92-26.49h0.5c116.95-2 220.41 23.99 310.88 78.47 26.49-41.99 54.98-78.97 85.46-110.46-51.48-53.48-115.45-96.46-191.92-129.45l-27.49-12.49 16.99-24.49c110.46-161.94 245.4-316.38 404.84-463.32l-695.72-287.38c-120.45 164.93-219.91 345.86-297.38 543.28l-8 19.99-20.99-4.5c-238.4-52.47-370.85-127.45-397.34-223.91-46.48 1.5-92.461-3.5-136.94-15.49-5.996 68.97 29.988 141.94 107.46 218.41zm74.973-380.35 8.996-12.99 17.492 3.5c14.992 4 29.988 2 45.48-6h-0.5c15.497-7.49 25.993-18.99 32.489-34.49 5.496-12.99 4.996-25.49-0.5-37.48h-0.5c-5.496-11.5-15.492-18.99-28.989-22.49-15.492-3.5-30.988-1.5-46.48 6-15.496 7.99-25.992 19.49-31.988 34.48v0.5h-0.5c-4.496 10.5-4.996 20.49-2 29.99l4.5 16.5-11.496 9.99c-56.477 50.48-122.45 93.96-197.92 129.95l33.988 14.49c41.484 11.5 83.465 16.99 126.95 15.99-5-45.48 11.996-94.46 50.981-147.94zm1336.5 1215c26.49 15.49 52.97 19.49 79.96 13 25.49-6.5 43.49-22 54.98-45.99v-0.5c11.5-24.49 12-50.98 1.5-79.47-10.49-29.49-29.49-52.47-56.48-67.97-25.49-14.49-50.97-18.99-76.97-13.49l-20.49 4.49-7.99-18.49c-38.49-87.96-51.98-180.92-41.49-278.89-21.99 11.5-47.98 29.49-77.96 53.98-28.5 29.99-54.98 64.98-80.47 104.96 60.97 41.48 115.45 96.96 163.43 165.94l7.5 9.99-4.5 12.99c-8 23-7.5 46.98 2 71.98v0.5c10.49 29.48 29.49 51.47 56.98 66.97"/><path d="m1426.7 4216.5h-0.5c-59.98 1.5-123.45 9.99-189.92 26.49l-236.91-106.46c-9.496-26.99-22.992-56.98-39.984-89.96l-4.496-8.5-4-1.5c75.468-115.95 162.94-222.91 261.4-321.37 104.45-103.96 232.4-206.92 383.84-308.38-113.95 293.88-170.43 563.77-169.43 809.68" fill="#543e3c"/></g><path d="m1426.7 4216.5c-1-245.91 55.48-515.8 169.43-809.68-151.44 101.46-279.39 204.42-383.84 308.38-98.46 98.46-185.93 205.42-261.4 321.37" fill="none" stroke="#000" stroke-linecap="round" stroke-linejoin="round" stroke-miterlimit="10" stroke-width="9.996"/><g><path d="m2682.2 5371-26.49 22.49c-148.94-114.46-271.89-176.93-368.35-188.43 0.5-77.47 38.98-129.45 115.45-156.43 39.48 88.46 135.44 187.42 288.89 295.88l-9.5 26.49" fill="#94625e"/><path d="m2287.3 5205.1c-47.48-1.5-82.47-3.5-104.96-5.99-40.48-4.5-79.97-17-119.45-37.49-128.45-67.97-222.91-148.44-282.39-241.4-57.98-90.47-67.97-167.44-29.99-230.41 48.48-54.98 124.95-68.47 228.91-39.98 106.96 28.98 211.92 94.96 314.37 197.42 31.49 31.48 55.48 65.47 71.98 102.45 8.49 21.5 20.99 54.48 36.98 98.97-76.47 26.98-114.95 78.96-115.45 156.43" fill="#f26d7d"/><path d="m2628.2 5317.5v35.98c-136.95-124.45-242.4-202.42-316.87-233.9l81.96-76.97c42.49 72.47 120.46 163.93 234.91 274.89" fill="#74504d"/><path d="m1852 4714.8c36.49-41.49 94.46-51.98 173.43-30.49 80.97 21.99 147.94 56.98 200.42 104.96 52.48 48.48 83.97 82.47 94.96 102.96 10.5 20.49 23.49 45.48 38.99 74.97 5.5 22.49 16.99 47.48 33.48 75.47l-81.96 76.97c-19.99-8.5-37.49-13.5-52.98-15-35.99-1.5-64.97-6.49-86.47-15.49-21.49-9-61.97-35.99-121.45-80.97-59.48-44.48-114.95-92.96-165.43-144.44s-61.48-101.46-32.99-148.94" fill="#a3555c"/></g><g fill="none" stroke-linecap="round" stroke-linejoin="round" stroke-miterlimit="10"><path d="m2402.8 5048.6c-76.47 26.98-114.95 78.96-115.45 156.43" stroke="#000" stroke-width="29.988"/><path d="m2682.2 5371 9.5-26.49c-153.45-108.46-249.41-207.42-288.89-295.88-15.99-44.49-28.49-77.47-36.98-98.97-16.5-36.98-40.49-70.97-71.98-102.45-102.45-102.46-207.41-168.44-314.37-197.42-103.96-28.49-180.43-15-228.91 39.98-37.98 62.97-27.99 139.94 29.99 230.41 59.48 92.96 153.94 173.43 282.39 241.4 39.48 20.49 78.97 32.99 119.45 37.49 22.49 2.49 57.48 4.49 104.96 5.99 96.46 11.5 219.41 73.97 368.35 188.43z" stroke="#000" stroke-width="49.98"/><path d="m1916 4914.7-59.97-54.98 64.97-27.49 37.49-80.47 49.98 90.47 124.95 7.49-59.98 67.48v94.96l-82.47-37.48" stroke="#f26d7d" stroke-width="49.98"/></g><path d="m2814.1 5403.5c0 26.49-9.5 49.48-28.49 68.48-18.49 18.49-41.49 27.99-67.98 27.99-26.48 0-49.48-9.5-68.47-27.99-18.49-19-27.99-41.99-27.99-68.48s9.5-49.48 27.99-67.97c18.99-18.99 41.99-28.49 68.47-28.49 26.49 0 49.49 9.5 67.98 28.49 18.99 18.49 28.49 41.48 28.49 67.97" fill="#f26d7d"/><path d="m2785.6 5472c-18.49 18.49-41.49 27.99-67.98 27.99-26.48 0-49.48-9.5-68.47-27.99-18.49-19-27.99-41.99-27.99-68.48s9.5-49.48 27.99-67.97c18.99-18.99 41.99-28.49 68.47-28.49 26.49 0 49.49 9.5 67.98 28.49 18.99 18.49 28.49 41.48 28.49 67.97s-9.5 49.48-28.49 68.48z" fill="none" stroke="#000" stroke-linecap="round" stroke-linejoin="round" stroke-miterlimit="10" stroke-width="49.98"/><path d="m2071.4 5017.1-41.98-19.5-155.44-141.44 44.98-18.99 37.49-80.47 49.98 90.47 124.95 7.49-59.98 67.48v94.96" fill="#ffd064"/><path d="m2029.4 4997.6-40.48-17.99-69.98 39.99-5-99.96-59.97-54.98 19.99-8.5 155.44 141.44" fill="#fff"/><path d="m2029.4 4997.6-40.48-17.99-69.98 39.99-5-99.96-59.97-54.98 19.99-8.5 44.98-18.99 37.49-80.47 49.98 90.47 124.95 7.49-59.98 67.48v94.96z" fill="none" stroke="#000" stroke-linecap="round" stroke-linejoin="round" stroke-miterlimit="10" stroke-width="19.992"/><path d="m2603.7 5084.1c1.5 15 1.5 29.99 0.5 44.48h-61.48c0.5-7.5 0-15.49-0.5-22.99-3-47.48-21.49-82.47-55.97-105.96-34.49-23.49-73.97-27.98-119.45-13.99-45.49 13.99-82.47 42.48-111.96 85.97-29.49 43.48-42.98 88.46-39.49 135.94 3.5 46.98 22.5 81.97 56.98 105.46 34.49 23.49 73.97 27.99 118.45 14.49 2.5-0.5 4.5-1.5 7-2.49v60.97c-62.47 18.49-117.45 10.99-165.93-22.49-48.48-32.99-75.47-81.97-81.47-146.44-5.49-64.98 11.5-126.95 51.98-186.43 40.49-58.97 91.46-97.46 153.94-115.45 62.98-18.5 118.45-11.5 166.93 21.49 48.48 33.49 74.97 82.47 80.47 147.44" fill="#9ddff9"/><path d="m2542.7 5128.6c0.5-7.49 0-15.49-0.5-22.99-3-47.48-21.49-82.46-55.97-105.96-34.49-23.49-73.97-27.98-119.45-13.99-45.49 13.99-82.47 42.48-111.96 85.97-29.49 43.48-42.98 88.46-39.49 135.94 3.5 46.98 22.5 81.97 56.98 105.46 34.49 23.49 73.97 27.99 118.45 14.49 2.5-0.5 4.5-1.49 7-2.49" fill="none" stroke="#000" stroke-linecap="round" stroke-linejoin="round" stroke-miterlimit="10" stroke-width="29.988"/><path d="m2397.8 5386c-62.47 18.49-117.45 10.99-165.93-22.49-48.48-32.99-75.47-81.97-81.47-146.44-5.49-64.98 11.5-126.95 51.98-186.43 40.49-58.97 91.46-97.46 153.94-115.45 62.98-18.49 118.45-11.5 166.93 21.49 48.48 33.49 74.97 82.47 80.47 147.44 1.5 15 1.5 29.99 0.5 44.48" fill="none" stroke="#000" stroke-linecap="round" stroke-linejoin="round" stroke-miterlimit="10" stroke-width="29.988"/><path d="m1630.1 5031.1c-25.99 112.46-93.96 200.42-203.92 264.9-78.47 45.98-201.92 88.96-369.35 129.44-94.462 21.49-165.44 38.49-213.92 49.98-84.965 20.5-156.94 40.49-216.42 59.98-162.43 52.98-290.88 121.45-386.34 205.92 28.488-120.46 30.488-254.4 4.996-401.84-13.992-83.47-46.981-209.92-99.461-380.35-47.481-154.94-74.969-269.89-83.465-344.86-12.496-117.95 4.9961-217.41 52.981-297.88 36.484-61.48 105.96-113.96 207.41-156.94 91.964-39.48 199.42-66.97 322.87-82.47 117.95-15.49 229.41-17.49 334.87-6.49 109.46 11.49 190.92 34.98 244.9 70.97 139.45 92.96 249.4 224.91 330.87 395.34 84.46 177.93 108.96 342.86 73.97 494.3" fill="#935a8c"/><path d="m1426.2 5296c-78.47 45.98-201.92 88.96-369.35 129.44-94.462 21.49-165.44 38.49-213.92 49.98-84.965 20.5-156.94 40.49-216.42 59.98-162.43 52.98-290.88 121.45-386.34 205.92 28.488-120.46 30.488-254.4 4.996-401.84-13.992-83.47-46.981-209.92-99.461-380.35-47.481-154.94-74.969-269.89-83.465-344.86-12.496-117.95 4.9961-217.41 52.981-297.88 36.484-61.48 105.96-113.96 207.41-156.94 91.964-39.48 199.42-66.97 322.87-82.46 117.95-15.5 229.41-17.5 334.87-6.5 109.46 11.49 190.92 34.98 244.9 70.97 139.45 92.96 249.4 224.91 330.87 395.34 84.46 177.93 108.96 342.86 73.97 494.3-25.99 112.46-93.96 200.42-203.92 264.9z" fill="none" stroke="#000" stroke-linecap="round" stroke-miterlimit="10" stroke-width="49.98"/><path d="m1576.1 4861.7c-11.49 120.45-64.47 218.41-159.94 294.88-95.46 76.47-184.92 118.96-269.39 126.45-84.46 8-172.43 21.49-264.39 40.99-92.465 19.49-178.43 44.98-258.9 76.46-80.464 31.49-171.43 83.47-272.89 154.94 21.492-103.46 17.496-217.91-11.492-342.86-15.996-70.47-50.981-176.93-105.46-320.37-48.981-130.45-78.969-227.41-89.461-290.89-15.996-99.96-4-185.42 36.484-255.89 31.488-53.48 81.465-104.96 149.94-153.94 68.472-48.48 160.44-80.47 275.39-94.96 114.95-14.5 225.41-20.49 331.37-18.5 105.46 2.5 201.42 30.99 286.88 85.47 85.47 54.48 168.44 154.44 248.9 299.88 79.97 145.44 114.46 277.89 102.96 398.34" fill="#674654"/><path d="m1273.2 5249c97.96-19.49 166.44-73.97 205.92-162.93 44.98-102.46 36.99-229.41-23.99-379.85-34.99-86.46-68.47-157.44-100.46-213.41-8.5-15-16.99-28.99-25.49-41.49-37.49-56.47-78.47-100.96-122.95-132.44-10.5-7.5-21.49-14.5-32.49-20.49-51.48-28.49-112.45-44.49-182.42-47.48-11.996-0.5-24.492-1-36.984-0.5-86.469 1.99-192.93 22.48-319.38 60.97-153.94 46.48-263.9 114.96-330.37 204.42-59.976 80.46-73.968 160.93-42.48 241.4 31.984 80.47 99.457 135.95 202.92 166.44 115.45 33.48 250.4 25.98 404.84-22.5 7.496 126.95 54.98 222.91 142.45 288.39 78.47 58.97 165.43 78.97 260.89 59.47z" fill="none" stroke="#935a8c" stroke-linecap="round" stroke-miterlimit="10" stroke-width="89.964"/><path d="m1268.2 5259c-95.46 19.49-182.42-0.5-260.89-59.48-87.467-65.47-134.95-161.43-142.44-288.38-154.44 48.48-289.39 55.98-404.84 22.49-103.46-30.49-170.93-85.96-202.92-166.43-31.488-80.47-17.492-160.94 42.484-241.41 66.473-89.46 176.43-157.93 330.37-204.42 69.473 57.48 141.44 108.96 215.92 154.95 65.972 40.48 133.94 76.96 204.42 108.95 71.97 32.99 145.94 61.48 222.41 84.97 57.98 17.99 116.96 33.48 177.43 45.98 60.98 150.44 68.98 277.39 23.99 379.85-39.48 88.96-107.96 143.44-205.92 162.93" fill="#ffca6d"/><g fill="#fff"><path d="m1450.2 4716.3c-60.47-12.5-119.45-27.99-177.43-45.98l76.97-167.44c31.99 55.98 65.47 126.95 100.46 213.42"/><path d="m845.9 4476.4c-74.473-45.99-146.44-97.47-215.92-154.95 126.45-38.48 232.91-58.97 319.37-60.97 12.496-0.5 24.992 0 36.984 0.5l-140.44 215.42"/><path d="m1324.2 4461.4c8.5 12.5 17 26.49 25.49 41.48l-76.97 167.44c-76.47-23.49-150.44-51.98-222.41-84.97l150.94-256.4c44.48 31.49 85.47 75.97 122.95 132.45"/><path d="m1168.8 4308.4c10.99 6 21.98 12.99 32.48 20.49l-150.94 256.4c-70.47-31.99-138.44-68.47-204.42-108.95l140.44-215.42c69.974 3 130.95 18.99 182.43 47.48"/></g><g fill="none" stroke="#000" stroke-linecap="round" stroke-miterlimit="10" stroke-width="29.988"><path d="m629.98 4321.4c-153.94 46.48-263.89 114.95-330.37 204.42-59.976 80.46-73.972 160.93-42.484 241.4 31.988 80.47 99.461 135.94 202.92 166.43 115.45 33.49 250.4 25.99 404.84-22.49 7.496 126.95 54.976 222.91 142.44 288.39 78.47 58.97 165.43 78.96 260.89 59.47 97.96-19.49 166.44-73.97 205.92-162.93 44.99-102.46 36.99-229.41-23.99-379.85"/><path d="m1450.2 4716.3c-60.47-12.5-119.45-27.99-177.43-45.98"/><path d="m845.9 4476.4c-74.473-45.99-146.44-97.47-215.92-154.95"/><path d="m1349.7 4502.8c-8.49-14.99-16.99-28.98-25.49-41.48-37.48-56.48-78.47-100.96-122.95-132.45"/><path d="m986.34 4260.9c-11.992-0.5-24.488-1-36.984-0.5-86.465 2-192.92 22.49-319.37 60.97"/><path d="m1201.2 4328.9c-10.5-7.49-21.49-14.49-32.48-20.49-51.48-28.49-112.46-44.48-182.43-47.48"/><path d="m1050.3 4585.3 150.94-256.4"/><path d="m1450.2 4716.3c-34.99-86.47-68.47-157.44-100.46-213.42"/><path d="m1272.7 4670.3 76.97-167.44"/><path d="m845.9 4476.4 140.44-215.42"/><path d="m1272.7 4670.3c-76.47-23.49-150.44-51.98-222.41-84.97"/><path d="m1050.3 4585.3c-70.47-31.99-138.44-68.47-204.42-108.95"/></g><path d="m551.51 4709.3c-15.992-13.49-23.992-29.99-23.992-48.98s8-34.99 23.992-48.48c16.492-13.5 35.984-20.49 58.976-20.49 22.989 0 42.481 6.99 58.477 20.49 16.492 13.49 24.488 29.49 24.488 48.48s-7.996 35.49-24.488 48.98c-15.996 12.99-35.488 19.49-58.477 19.49-22.992 0-42.484-6.5-58.976-19.49" fill="#6f4d4a"/><path d="m527.52 4660.3c0-18.99 7.996-34.99 23.992-48.48 16.492-13.5 35.984-20.49 58.976-20.49 22.989 0 42.481 6.99 58.477 20.49 16.492 13.49 24.488 29.49 24.488 48.48s-7.996 35.49-24.488 48.98c-15.996 12.99-35.488 19.49-58.477 19.49-22.992 0-42.484-6.5-58.976-19.49-15.996-13.49-23.992-29.99-23.992-48.98z" fill="none" stroke="#000" stroke-linecap="round" stroke-miterlimit="10" stroke-width="29.988"/><path d="m1268.2 4914.2c11.5 19.49 15.5 39.48 12 60.48-3.5 20.48-13.49 34.98-29.99 44.48-16.49 9.49-34.48 10.99-53.98 4-19.99-7.5-35.48-21-46.98-40.49-11.49-19.49-14.99-39.98-11.49-60.47 3.49-20.5 13.49-35.99 29.99-45.48 16.49-9.5 34.48-10.5 53.97-3 19.49 7.49 34.99 20.99 46.48 40.48" fill="#6f4d4a"/><path d="m1280.2 4974.7c-3.5 20.48-13.49 34.98-29.99 44.48-16.49 9.49-34.48 10.99-53.98 4-19.99-7.5-35.48-21-46.98-40.49-11.49-19.49-14.99-39.98-11.49-60.47 3.49-20.5 13.49-35.99 29.99-45.48 16.49-9.5 34.48-10.5 53.97-3 19.49 7.49 34.99 20.99 46.48 40.48 11.5 19.49 15.5 39.48 12 60.48z" fill="none" stroke="#000" stroke-linecap="round" stroke-miterlimit="10" stroke-width="29.988"/><path d="m2762.6 5428c-11 10.5-23.99 15.99-39.49 15.99-15.49 0-28.49-5.49-39.48-15.99-11-10.99-16.5-23.99-16.5-39.48s5.5-28.99 16.5-39.99c10.99-10.99 23.99-16.49 39.48-16.49 15.5 0 28.49 5.5 39.49 16.49 10.99 11 16.49 24.5 16.49 39.99s-5.5 28.49-16.49 39.48" fill="#a3555c"/><g fill="none" stroke="#000" stroke-linecap="round" stroke-linejoin="round" stroke-miterlimit="10" stroke-width="49.98"><path d="m1672.1 475.95 258.9 124.95"/><path d="m1494.6 638.39 271.89 354.86"/><path d="m1272.2 800.82 81.47 223.41"/></g><g><path d="m1477.1 705.36c-138.94 111.45-280.39 193.42-424.83 245.4l-29.99-294.88 120.95-96.461 280.39-223.41 115.96-92.465 302.38 84.965c-112.46 146.44-234.41 271.89-364.86 376.85" fill="#f26d7d"/><path d="m1539.6 243.55-115.96 92.465c-44.48-59.477-92.46-95.461-144.44-108.96-52.48-13.496-101.46-3.5-146.94 30.988-47.48 35.484-67.98 83.465-62.48 143.94 4.5 52.981 28.99 105.46 73.47 157.44l-120.95 96.461c-79.465-92.465-122.95-179.93-130.44-263.4-7.996-92.465 28.988-174.93 110.46-246.9 86.47-76.469 180.43-105.46 281.89-86.965s186.92 79.969 255.4 184.93" fill="#9ddff9"/><path d="m1143.3 559.42c-44.48-51.981-68.97-104.46-73.47-157.44-5.5-60.476 15-108.46 62.48-143.94 45.48-34.488 94.46-44.484 146.94-30.988 51.98 13.496 99.96 49.48 144.44 108.96l-280.39 223.41" fill="#716f75"/><path d="m1502.6 280.53-327.37 260.9-99.96 79.965c-65.47-76.469-100.96-148.94-107.46-217.91-6.496-76.468 23.492-144.44 90.966-203.92 71.47-62.976 148.94-86.964 232.9-71.472 83.97 14.992 154.44 65.972 210.92 152.44" fill="#86adc0"/><path d="m1474.6 291.03 252.4 77.469c-152.44 209.42-346.36 370.35-582.27 482.81l-37.48-244.9 367.35-315.38" fill="#c25e69"/><path d="m1008.8 321.02c11.49 11.496 17.49 24.992 17.49 40.984s-6 29.988-17.49 41.484c-11.498 11.496-24.99 16.993-40.986 16.993-15.992 0-29.989-5.497-41.485-16.993-11.492-11.496-16.992-25.492-16.992-41.484s5.5-29.488 16.992-40.984c11.496-11.496 25.493-17.493 41.485-17.493 15.996 0 29.488 5.997 40.986 17.493" fill="#9ddff9"/><path d="m1143.3 559.42c-44.48-51.981-68.97-104.46-73.47-157.44-5.5-60.476 15-108.46 62.48-143.94 45.48-34.488 94.46-44.484 146.94-30.988 51.98 13.496 99.96 49.48 144.44 108.96l-280.39 223.41" fill="#685f63"/></g><g fill="none" stroke="#000" stroke-linecap="round" stroke-miterlimit="10"><g stroke-width="29.988"><path d="m1539.6 243.55-115.96 92.465"/><path d="m1143.3 559.42-120.95 96.461"/><path d="m1143.3 559.42c-44.48-51.981-68.97-104.46-73.47-157.44-5.5-60.476 15-108.46 62.48-143.94 45.48-34.488 94.46-44.484 146.94-30.988 51.98 13.496 99.96 49.48 144.44 108.96"/><path d="m1423.7 336.01-280.39 223.41"/></g><path d="m1477.1 705.36c130.45-104.96 252.4-230.41 364.86-376.85l-302.38-84.965c-68.48-104.96-153.94-166.43-255.4-184.93s-195.42 10.496-281.89 86.965c-81.467 71.973-118.45 154.44-110.46 246.9 7.496 83.465 50.98 170.93 130.44 263.4l29.99 294.88c144.44-51.981 285.89-133.95 424.83-245.4z" stroke-width="49.98"/></g><g fill="#716f75"><path d="m1302.2 1140.7c-5-26.49-0.5-52.48 14-76.97 14.49-24.49 34.48-41.49 59.97-49.98 25.49-8.5 48.98-6.5 70.47 6 21.99 12.49 35.49 31.98 40.49 58.47 4.5 26.49 0 52.48-14.5 76.97-14.49 24.49-33.98 41.49-59.47 49.98-25.49 9-49.48 7-71.47-5.5-21.5-12.49-34.99-32.48-39.49-58.97"/><path d="m1727 1107.2c-9.5-24.49-8-48.98 5-73.47 12.5-24.99 32.49-42.98 59.98-53.976 27.48-10.496 54.47-11.496 80.96-2s44.48 25.986 53.98 50.476 8 49.48-5 73.97c-12.49 25-32.98 42.99-60.47 53.48-27.49 11-53.98 12-80.47 2.5-26.49-9.49-44.48-26.49-53.98-50.98"/><path d="m1964.4 715.36c-23.49-7.496-39.99-20.492-49.99-39.984-9.49-18.992-9.49-38.484 0-57.977 9.5-19.992 25.5-34.488 48.49-43.984 22.49-8.996 45.48-9.996 68.97-2.496 22.99 6.996 39.48 19.992 48.98 38.984 9.99 19.493 10.49 38.985 1 58.977-9.5 19.492-25.99 33.984-48.48 42.98-22.99 9.496-45.98 10.496-68.97 3.5"/></g><g fill="none" stroke="#000" stroke-linecap="round" stroke-linejoin="round" stroke-miterlimit="10" stroke-width="49.98"><path d="m1732 1033.7c12.5-24.99 32.49-42.98 59.98-53.976 27.48-10.496 54.47-11.496 80.96-2s44.48 25.986 53.98 50.476 8 49.48-5 73.97c-12.49 25-32.98 42.99-60.47 53.48-27.49 11-53.98 12-80.47 2.5s-44.48-26.49-53.98-50.98-8-48.98 5-73.47z"/><path d="m1914.5 675.38c-9.49-18.992-9.49-38.484 0-57.977 9.5-19.992 25.5-34.488 48.49-43.984 22.49-8.996 45.48-9.996 68.97-2.496 22.99 6.996 39.48 19.992 48.98 38.984 9.99 19.493 10.49 38.985 1 58.977-9.5 19.492-25.99 33.984-48.48 42.98-22.99 9.496-45.98 10.496-68.97 3.5-23.49-7.496-39.99-20.492-49.99-39.984z"/><path d="m1316.2 1063.7c14.49-24.49 34.48-41.49 59.97-49.98 25.49-8.5 48.98-6.5 70.47 6 21.99 12.49 35.49 31.98 40.49 58.47 4.5 26.49 0 52.48-14.5 76.97-14.49 24.49-33.98 41.49-59.47 49.98-25.49 9-49.48 7-71.47-5.5-21.5-12.49-34.99-32.48-39.49-58.97-5-26.49-0.5-52.48 14-76.97z"/></g><g><path d="m2885.1 4334.4c-124.45 20.49-260.4 4.5-408.34-48.48-147.44-52.98-262.89-126.95-345.86-221.91-83.47-95.46-109.96-183.93-80.47-266.39 29.49-82.47 106.96-133.95 231.41-154.44s260.39-4 407.84 48.98c147.94 52.97 263.39 126.95 346.36 221.41 83.46 95.46 109.95 183.92 80.46 266.39-29.48 82.47-106.95 133.95-231.4 154.44" fill="#c6996d"/><path d="m2631.7 3761.6c131.45 39.49 236.41 96.46 315.37 169.93 78.47 73.47 107.96 142.95 88.47 207.42-19.5 64.97-82.47 106.46-188.43 123.95-106.45 17.49-225.41 6.5-356.86-32.99-131.44-39.48-236.9-96.46-315.37-169.93s-107.95-142.44-88.46-207.42c19.49-64.47 82.46-105.96 188.42-123.95 106.46-17.49 225.41-6.49 356.86 32.99" fill="#8f6c5e"/><path d="m6398.7 2960.5-6.49 6.5c-219.92 242.4-452.82 445.32-699.23 609.25l-31.49 21.5-15.49-82.47c-274.39 127.95-548.28 237.4-822.67 328.87h-1c-1.5 0.5-3.5 1-5 1-0.5 0.5-0.5 0.5-1 0.5-455.31 106.45-910.13 173.43-1365.4 199.92l-25.99 1.5-10.49-511.3c0-1.5 0-2.5 0.5-4l66.47-481.3 157.94-97.97-198.92 2.5-496.31 1038.1-615.25-100.46-81.47-372.35-186.42 312.37c-3 5.5-7.5 9-13 11s-11.49 2-16.99 0c-197.42-72.47-392.34-158.44-584.77-258.9-0.5 0-0.5 0-1-0.5h-0.5c-147.44-76.97-293.38-161.93-437.82-254.9l-1-0.5-0.5-0.5c-255.4-163.93-506.3-353.86-752.2-569.27l-7.496-6.5-1-10.49c-28.488-398.34 27.488-796.68 166.93-1195 1.5-3.5 3.5-7 6.997-10 3-2.5 6.5-4.5 10.496-6l629.25-158.43 239.9 266.39c2.5 3.5 4.5 7 6 10.99 1 4 1 8 0 12l-55.98 215.91 367.36-223.91 367.85 94.97 1 0.5 356.36 92.46 437.32 68.97c5 1 9.5 3 12.99 6.5 3.5 3.5 6 7.5 7.5 12l137.95 534.28 135.94-442.82 356.86 87.96v-46.98l994.1-50.98 763.7-145.94c1.5-0.5 3.5-0.5 4.99-1l291.89-55.48 82.46 97.96 39.99-417.83 283.89 20.99c1.5 0 3.5 0.5 5.49 1l375.85 112.46-100.46 637.74 163.44 130.45c4 3.5 7 7.49 8.5 12.99 44.98 175.43 63.47 357.86 55.47 547.28zm-101.96-535.78-14.49-11.5-119.95-95.46-27.99 173.43-54.98 30.49 40.48-252.9v-2l95.97-608.26-314.38-93.96-17.49-5.5-12.5-1-219.41-15.99-40.49 417.83 206.92 244.4 27.49 32.49 2 2.5c1 1.5 2 2.5 3 4l-47.48 20.99-13.5-16.49-223.41-263.9-0.5-0.5-101.46-120.45-230.4 43.98 229.91 402.34 3.49 6.5c1 2.5 2 4.99 2.5 7.49v0.5l3 14.5 68.48 360.36c0.5 1 0.5 1.99 1 2.99 0.49 2 0.49 4 0.49 6l145.95 766.69v0.5c0 0.5 0 1 0.49 1.5l7 37.49c229.41-156.44 446.82-347.36 652.74-573.27 6.5-173.43-9.99-340.86-49.48-502.8-1-4.5-2-8.5-3-12.99zm-4267.8 1365 20.49-34.99 182.43-305.87-175.43-807.18-21.49-99.96-60.48-276.89-0.5-2.5c-0.5-3.5-0.5-7.5 0.5-11.49 0-0.5 0-1.5 0.5-2 1-2.5 2.5-5.5 4.5-8l4.5-5 306.38-355.36-306.88-79.46-363.36 306.37-16.49 14 0.5-10c0.5-6.5-1.5-12.5-6-17.99-4.5-5.5-9.99-8.5-16.99-9-6.5-0.5-12.49 1.5-17.99 6l2.5-2.5 358.85-302.38-300.88-77.97-402.34 244.9-0.5 0.5h-0.5l-13.49 8.5-24.49 15c-0.5 2.49-1.5 4.99-2 7.49-8 37.49-15.49 74.97-22.99 111.46l-0.5 0.99c0 0.5 0 1-0.5 1.5v1c-27.99 138.45-50.48 275.4-67.97 410.84-34.49 265.9-48.98 527.29-43.99 784.19 128.45 82.46 257.9 158.43 389.35 227.9l17.99-434.32 49.98 18.99-18.99 440.83c177.43 91.96 356.86 171.93 539.28 239.4 2 1 4.5 2 7 3zm-1734.8-1061.1c228.91 199.92 462.32 377.35 699.72 532.79-3.5-246.9 11.494-497.8 43.984-752.7 0.5-1.5 0.5-3.5 1-5.5 0.5-3.5 1-7 1.5-10.99 0.5-5 1-10.5 2-16 14.99-112.45 33.48-225.4 55.47-338.86l-332.36 170.43-27.988 14.49 2-1c2.496-1.99 4.996-4.49 6.996-7.49 1.5-2.5 2.5-5.5 3-8.5 0.996-5.49 0.5-10.99-2-15.99-0.5-1-1.5-2-2-3-4-5.5-9.496-8.5-15.993-10h-0.5c-6.5-1-12.496 0.5-17.992 4l-2 1.5c1.5-1.5 2.996-2.5 4.496-3.5l32.989-16.99 363.86-186.92c8-39.49 16.49-78.97 24.99-118.96 0.5-3.5 2-6.5 4.5-8.99 1.49-2.5 3.99-5 6.99-7l39.99-23.99 65.47-252.9-210.91-233.91-558.78 140.45-28.488 7.5c-1 2.49-2 5.49-2.5 7.99-130.45 381.35-182.93 762.7-157.44 1144zm2440 366.86c-0.5 0-0.5 0-0.5 0.5l-23.49-73.97 195.92-477.31-151.94-586.77-7.5-1-401.34-63.47-308.87 357.86-11 12.49v0.5l3.5 15.99 253.9 1167.5v1l87.47 399.84 545.28 88.96 484.3-1013.1 18.99-334.87 2-30.49 8.5-149.94v-248.9l-322.87-79.47-112.95 371.35-4.5 14.5-0.5 1c0 0.5 0 1-0.5 1.5l-4 11.49-27.99 73.97-0.5 0.5v1l-0.5 0.5zm737.2 392.34-6.5 44.98-0.5 4 9.5 457.32c438.33-26.99 876.15-91.47 1314-192.92l49.48-14.5c266.39-89.97 532.78-197.42 799.18-321.87l-75.97-399.84-9.5-49.98-52.48-275.89-9.49-49.48-64.98-341.86-2-10.5-10.49-17.99-229.91-402.34-711.72 135.44 269.4 342.87c3 3.99 4.49 8.49 4.99 13.49l2.5 36.49 2 30.49 28.99 430.32c0.5 3.5 0 7-1.5 10.5s-3 6-5.5 8.5l-1.5 1.99-129.44 134.45 153.93 324.37-28.99 7h-0.5l-146.44-308.38-23.49-47.48 132.95-138.45-31.99-472.8-0.5-5.5-18.99-24.49-262.9-334.37-933.62 47.98v301.38 1.5l-0.5 13.5-27.99 479.3 693.72-9.49-51.98 50.47-356.35 5-208.42 129.45-56.48 407.34"/><path d="m5845.9 2236.8-27.49-32.49 52.98-646.24 12.5 1 17.49 5.5-55.48 672.23" fill="#fff"/><path d="m5871.4 1558-52.98 646.24-206.92-244.4 40.49-417.83 219.41 15.99" fill="#543e3c"/><path d="m5789.9 2247.8-325.86 61.47-229.91-402.34 230.41-43.98 101.45 120.45 0.5 0.5 223.41 263.9" fill="#76747a"/><path d="m6134.3 2491.2 27.99-173.43 119.95 95.46z" fill="#76747a"/><path d="m6282.2 2413.2 14.49 11.5c1 4.49 2 8.49 3 12.99l-188.92 100.96-37.99 18.99 6.5-35.98 54.98-30.49 147.94-77.97" fill="#fff"/><path d="m5470 2323.2c-0.5-2.5-1.5-4.99-2.5-7.49l-3.49-6.5 325.86-61.47 13.5 16.49-0.5 11.49-329.87 62.48-3-14.5v-0.5" fill="#fff"/><path d="m6117.8 2766.5v59.48l-345.87 232.4 30.99-782.69 0.5-11.49 47.48-20.99 3 13.49v1l-27.99 704.22 291.89-195.42" fill="#543e3c"/><path d="m6117.8 2826v-59.48l-291.89 195.42 27.99-704.22v-1l-3-13.49c-1-1.5-2-2.5-3-4l-2-2.5 55.48-672.23 314.38 93.96-95.97 608.26v2l-40.48 252.9-6.5 35.98 37.99-18.99 188.92-100.96c39.49 161.94 55.98 329.37 49.48 502.8-205.92 225.91-423.33 416.83-652.74 573.27l-6.99-37.49c-0.5-0.5-0.5-1-0.5-1.5v-0.5l-145.94-766.69c0-2 0-4-0.5-6-0.5-1-0.5-1.99-1-2.99l-68.48-360.36 329.87-62.48-30.99 782.69 345.87-232.4" fill="#9ddff9"/><path d="m2049.4 3754.6-20.49 34.99c-2.5-1-5-2-7-3-31.49-391.34-26.99-806.18 13-1245l21.49 99.96c-30.99 390.34-33.49 761.2-7 1113" fill="#d8f5fc"/><path d="m2231.8 3448.8-182.43 305.87c-26.49-351.85-23.99-722.71 7-1113l175.43 807.18" fill="#543e3c"/><path d="m2290.3 1880.4-306.38 355.36-363.86-128.45 363.36-306.37 306.88 79.46" fill="#76747a"/><path d="m1182.3 1976.4 24.49-15 358.86 126.45-2.5 2.5c-3.5 3-6 6.49-7.5 10.49l-1.5 6v0.5l-0.5 8.5-373.35-131.95c0.5-2.5 1.5-5 2-7.49" fill="#fff"/><path d="m1220.7 1952.9 0.5-0.5 402.34-244.9 300.88 77.97-358.85 302.38-358.86-126.45 13.49-8.5h0.5" fill="#76747a"/><path d="m1553.6 2707.6-48.98-18.99 48.98-572.77 0.5-8.5v-0.5l1.5-6c1.5-4 4-7.49 7.5-10.49 5.5-4.5 11.49-6.5 17.99-6 7 0.5 12.49 3.5 16.99 9 4.5 5.49 6.5 11.49 6 17.99l-0.5 10-1 11.99-48.98 574.27" fill="#543e3c"/><path d="m1974.4 2250.8c-1 3.99-1 7.99-0.5 11.49l0.5 2.5-371.85-131.45 1-11.99 16.49-14 363.86 128.45-4.5 5c-2 2.5-3.5 5.5-4.5 8-0.5 0.5-0.5 1.5-0.5 2" fill="#fff"/><path d="m1501.6 3106.4-49.98-18.99-17.99 434.32c-131.45-69.46-260.9-145.44-389.35-227.9-4.99-256.9 9.5-518.29 43.99-784.19 17.49-135.44 39.98-272.39 67.97-410.84v-1c0.5-0.5 0.5-1 0.5-1.5l0.5-0.99c7.5-36.49 14.99-73.97 22.99-111.46l373.35 131.95-48.98 572.77 48.98 18.99 48.98-574.27 371.85 131.45 60.48 276.89c-39.99 438.82-44.49 853.66-13 1245-182.42-67.47-361.85-147.44-539.28-239.4l18.99-440.83" fill="#9ddff9"/><path d="m1042.3 2476.2c-1 5.49-1.5 10.99-2 15.99-0.5 3.99-1 7.49-1.5 10.99-0.5 2-0.5 4-1 5.5l-302.88-184.43 2.5-2 27.988-14.49 276.89 168.44" fill="#fff"/><path d="m1097.8 2137.3c-21.99 113.46-40.48 226.41-55.47 338.87l-276.89-168.44 332.36-170.43" fill="#76747a"/><path d="m993.84 3261.3c-237.41-155.44-470.81-332.87-699.72-532.79-25.488-381.34 26.989-762.69 157.44-1144l337.37 228.41-75.473 465.31c-1.5 1-2.996 2-4.496 3.5l-258.4 179.43 290.88 190.43 5.5-54.98-206.92-136.95 194.92-135.45 302.88 184.43c-32.49 254.9-47.484 505.8-43.984 752.7" fill="#9ddff9"/><path d="m746.43 2313.7c-2 3-4.5 5.5-6.996 7.49l-2 1-2.5 2-194.92 135.45 206.92 136.95-5.5 54.98-290.88-190.43 258.4-179.43 2-1.5c5.496-3.5 11.492-5 17.992-4h0.5c6.497 1.5 11.993 4.5 15.993 10 0.5 1 1.5 2 2 3 2.5 5 2.996 10.5 2 15.99-0.5 3-1.5 6-3 8.5" fill="#543e3c"/><path d="m746.43 2261.2-32.989 16.99 75.473-465.31-337.37-228.41c0.5-2.5 1.5-5.5 2.5-7.99l28.488-7.5 324.87 220.41 5.996 4c2.5 1.5 4 4 5.496 6.5 0 0.5 0 1 0.5 1.5 0.5 2.49 1 4.49 0.5 6.99l-1.496 9-71.972 443.82" fill="#fff"/><path d="m1135.3 1955.4c-8.5 39.99-16.99 79.47-24.99 118.96l-363.86 186.92 71.972-443.82 433.82-154.94-65.47 252.9-39.99 23.99c-3 2-5.5 4.5-6.99 7-2.5 2.5-4 5.49-4.5 8.99" fill="#543e3c"/><path d="m1041.3 1428.6 210.91 233.91-444.82 126.95-324.87-220.41 558.78-140.45" fill="#76747a"/><path d="m818.41 1817.4 1.496-9c0.5-2.5 0-4.5-0.5-6.99-0.5-0.5-0.5-1-0.5-1.5-1.496-2.5-2.996-5-5.496-6.5l-5.996-4 444.82-126.95-433.82 154.94" fill="#93cae0"/><path d="m3420.9 2559.1-2 30.49-434.82-108.96 4-11.49c0.5-0.5 0.5-1 0.5-1.5l0.5-1 4.5-14.5 427.32 106.96" fill="#fff"/><path d="m3429.4 2409.2-8.5 149.94-427.32-106.96 112.95-371.35 322.87 79.47v248.9" fill="#76747a"/><path d="m2686.7 3077.9h0.5l-1 2.5c0-0.5 0-1.5 0.5-2.5"/><path d="m2549.2 2391.7 3.5 2-2 3.5z" fill="#9ddff9"/><path d="m2710.2 3021.9-19.49 46.48-167.94-660.74-493.8-127.45-3.5-15.99v-0.5l11-12.49 490.8 126.95 11.49 2.99c1 0.5 2 0.5 3 1 1.5 1 2.5 2 3.5 3 2 2 3.5 4 4 6.5l1.5 5.5 159.44 624.75" fill="#fff"/><path d="m2552.7 2393.7-3.5-2c-0.5-2.5-2-4.5-4-6.5-1-1-2-2-3.5-3-1-0.5-2-0.5-3-1l-11.49-3 219.41-421.33 7.5 1-201.42 435.83" fill="#93cae0"/><path d="m2550.7 2397.2 2-3.5 201.42-435.83 151.94 586.77-195.92 477.31-159.44-624.75" fill="#543e3c"/><path d="m2527.2 2378.2-490.8-126.95 308.87-357.86 401.34 63.47-219.41 421.34" fill="#76747a"/><path d="m3044.5 3290.8-18 46.98-399.34-78.47 58.98-178.93 1-2.5h-0.5c0.5-0.5 0.5-1 1-1.5l3-7.99 19.49-46.48 23.49 73.97c0-0.5 0-0.5 0.5-0.5l-0.5 0.5-41.48 125.45 352.36 69.47" fill="#543e3c"/><path d="m3026.5 3337.8 17.99-46.98-352.35-69.47 41.48-125.45 0.5-0.5 220.91-538.79 0.5-0.5v-1l0.5-0.5 27.99-73.97 434.82 108.96-18.99 334.87-484.3 1013.1-545.28-88.96-87.47-399.84v-1l-253.9-1167.5 493.8 127.45 167.94 660.74-3 7.99c-0.5 0.5-0.5 1-1 1.5-0.5 1-0.5 2-0.5 2.5l-58.98 178.93 399.34 78.47" fill="#9ddff9"/><path d="m5411.6 2319.2 10.49 17.99 2 10.5-675.23 127.94-2-30.48 664.74-125.95" fill="#fff"/><path d="m5181.7 1916.9 229.91 402.34-664.74 125.95-2.5-36.49c-0.5-5-1.99-9.5-4.99-13.49l-269.4-342.87 711.72-135.44" fill="#76747a"/><path d="m4694.8 2420.2 0.5 5.5h-1216.5l0.5-13.5v-1.5-14.99h1196.5l18.99 24.49" fill="#fff"/><path d="m4413 2061.3 262.9 334.37h-1196.5v-286.39l933.62-47.98" fill="#76747a"/><path d="m4233.5 3484.8h0.5-0.5" fill="#543e3c"/><path d="m4157.1 3526.7v-33.98l76.47-8 530.78-91.46c-2.49 4-3.49 8.5-2.99 12.99l1.49 17.49-574.77 98.96-30.98 4" fill="#fff"/><path d="m4234 3484.8h-0.5l-76.47 8 437.32-455.82 23.49 47.48-383.84 400.34" fill="#543e3c"/><path d="m3527.8 3080.4 208.42-129.45 356.35-5-621.25 541.79 56.48-407.34" fill="#76747a"/><path d="m4157.1 3492.8v33.98l30.98-4 574.77-98.96 25 377.36c-437.83 101.45-875.65 165.93-1314 192.92l-9.5-457.32 0.5-4 680.23-592.76-0.5-44.49-693.72 9.5 27.99-479.3h1216.5l31.99 472.8-132.95 138.45-437.32 455.82" fill="#9ddff9"/><path d="m3464.8 3532.7 6.5-44.98 621.25-541.79 51.98-50.47 0.5 44.48-680.23 592.76" fill="#fff"/><path d="m5159.7 3224.4v-52.48l391.34-156.94 9.5 49.98-400.84 159.44" fill="#543e3c"/><path d="m5140.2 2834.5v-52.48l348.86-92.46 9.49 49.48-358.35 95.46" fill="#543e3c"/><path d="m4769.3 2927 1.5-1.99c2.5-2.5 4-5 5.5-8.5s2-7 1.5-10.5l-28.99-430.32 675.23-127.95 64.98 341.86-348.86 92.46v52.48l358.35-95.46 52.48 275.89-391.34 156.94v52.48l400.84-159.44 75.97 399.84c-266.4 124.45-532.79 231.9-799.18 321.87l-36.99-402.84-30.99-456.82" fill="#9ddff9"/><path d="m4764.3 3392.8v0.5l-530.78 91.46h0.5l383.84-400.34 146.44 308.38" fill="#76747a"/><path d="m4837.3 3786.6-49.48 14.5-24.99-377.36-1.5-17.49c-0.5-4.49 0.5-8.99 2.99-12.99v-0.5h0.5l28.99-7-153.93-324.37 129.44-134.45 30.99 456.82 36.99 402.84" fill="#543e3c"/></g><path d="m4233.5 3484.8h0.5" fill="none" stroke="#f00" stroke-linecap="square" stroke-miterlimit="10" stroke-width=".4998"/><g fill="#8ebed3"><path d="m3658.3 3930.1c-45.48 4-90.47 7.5-135.45 10.5l-8-385.35 88.47-76.97 253.4 431.83c-66.48 7.5-132.45 14.49-198.42 19.99"/><path d="m3220.4 3183.4-275.39-470.31 56.48-137.45c0.5-1 0.5-1.99 1-2.99l12.49-32.49 44.99 11 254.9 434.82-94.47 197.42"/><path d="m4060.1 3079.9 99.46-86.46c7.49-2.5 14.49-6.5 20.49-13 4.5-4.5 7.99-8.99 10.49-13.99 8-8.5 12.5-19 13.5-31.49s-2-23.49-9.5-32.99v-6.99c-0.5-13.5-5.5-25.49-14.99-35.49-10-9.5-21.99-14.49-35.99-13.99l-219.41 2.99-218.91-372.84h420.33l355.86 606.75-260.9 271.89-160.43-274.39"/><path d="m4735.3 3761.6c-81.97 18.49-163.94 35.99-245.41 51.98l-155.43-265.39 381.34-65.98h0.5v1.5l19 277.89"/><path d="m497.03 2834.5c-51.476-41.98-102.96-85.46-154.44-129.95-2.496-47.48-3.996-94.46-4.496-141.44l158.93 271.39"/><path d="m2332.3 3441.3c-0.5-1.5-0.5-2.5-0.5-4l-128.95-591.76 600.26 1023.1-391.34-63.98-79.47-363.35"/><path d="m1932 2302.7 52.48 241.91c-18.49 201.42-28.99 398.34-31.99 589.76l-336.36-573.77 30.48-358.85 285.39 100.95"/><path d="m1205.2 2108.8c-0.5 0.5-0.5 1-0.5 1.5v1l-0.5 0.5c-0.5 1.5-0.5 2.5-1 3.5l2-6.5"/><path d="m1484.6 2336.7-141.94-241.9 157.93 55.48z"/><path d="m442.06 1784.9c10.996-40.48 22.992-80.97 35.984-121.95l256.4 173.93-56.477 350.86-235.91-402.84"/><path d="m823.9 2436.7 160.44 97.96c-6 49.48-11.496 98.96-15.996 148.44l-144.44-246.4"/><path d="m4445 2475.7h203.92l25.99 392.34z"/><path d="m5908.4 3027.4 103.46 176.43c-91.47 81.47-185.43 156.44-280.89 224.91l-137.95-725.71c-0.5-4.49-0.99-9.49-1.99-13.99-0.5-0.5-0.5-0.5-0.5-1-0.5-1-0.5-2-1-3.5l-56.48-297.38 201.92 344.36-13 324.87c-0.5 13 3 24.49 11.5 33.99 8.49 10 18.99 15.99 31.49 17.49 12.49 2 24.48-0.5 34.98-7.99l108.46-72.48"/><path d="m5738.4 3467.3c0 0.5 0 1.5 0.49 2l-0.49-2.5v0.5"/><path d="m6179.3 3045.9-84.47-143.95 50.98-34.48c11.5-7.5 18.5-18 21-31.49 2.49-13.49 0-26.49-7.5-37.98l-27.99-41.49c-7.5-11.49-17.99-18.49-31.49-20.99-13.49-2.5-26.49 0-37.99 7.5l-42.98 29.49-126.44-215.92c3.49-219.91 4.99-330.87 4.49-332.37l48.98-594.26 213.42 63.98-88.97 565.27c-0.5 2-0.5 4-0.5 6l-39.98 248.4c-3.5 19.99-5 38.99-4.5 56.98 0.5 8.49 2.5 15.49 6 20.49 2.5 4 7.5 8 14.49 11.5 6 3.49 12.5 4.99 18.99 4.49 3.5 0 9-1 16.5-3 9.99-1.99 27.49-8.99 52.98-20.99l13.49-7.5c3-1 6-2.49 9-4.99l108.46-57.98c26.98 131.95 38.48 267.89 34.48 407.34-39.98 43.48-79.97 85.46-120.45 125.95"/><path d="m4833.8 3138.9-13.5-198.42-18.49-424.33 582.27-110.46 46.98 247.9-308.88 84.47c-13.49 3.5-23.49 10.99-29.98 22.99-7 11.5-8.5 24.49-5 37.98l1 48.48c3.5 13.5 10.99 23.5 22.99 30.49 11.49 7 24.49 8.5 37.98 5l310.38-81.97 34.48 182.43-353.35 141.94c-6.5 2.5-13 12.5-20.5 29.99-7.49 17-9.49 28.49-6.99 34.99l2.49 46.48c5 12.49 14 21.99 26.5 27.49 6.49 2.5 15.99 4 27.48 4.5 11.5 0 20.5-1.5 26.99-4l326.37-130.95 56.98 301.88c-152.44 70.47-305.38 135.44-458.32 194.42l-287.88-491.3"/><path d="m1963.4 3664.2c0.5 15.99 1.5 31.98 3 47.98-145.95-56.98-289.89-121.95-432.33-194.92l17.49-408.84c0.5-13.49-3.5-25.49-12.99-35.99-9.5-9.99-21.49-15.49-34.99-15.99l-49.98-13.99c-13.99-0.5-25.99 3.5-35.49 12.99-10.49 9.5-15.99 20.99-16.49 34.49l-12.99 310.88-287.39-490.81c7-129.95 19-261.39 36.49-393.84 8.49-68.98 18.99-138.44 30.49-207.92l795.18 1356"/></g><path d="m3187 1105.7 115.95-385.34 84.97 128.45 195.42-251.9 6.5 205.42 270.89-153.44-6.5 154.94 402.34-167.93-253.4 319.37 216.41 79.468-220.41 140.95 168.93 132.44-274.88 3 64.47 137.95-438.83-18.5-331.86-324.87" fill="#fdf155"/><path d="m3187 1105.7 331.86 324.87 438.83 18.5-64.47-137.95 274.88-3-168.93-132.44 220.41-140.95-216.41-79.468 253.4-319.37-402.34 167.93 6.5-154.94-270.89 153.44-6.5-205.42-195.42 251.9-84.97-128.45z" fill="none" stroke="#f90" stroke-linecap="round" stroke-miterlimit="10" stroke-width="29.988"/><path d="m2705.6 1968.4c-32.49-72.47-29.49-142.95 9.49-211.42 38.99-68.47 102.47-115.45 189.93-140.44 88.47-24.49 175.43-20.49 260.89 12.99 85.47 33.49 144.45 85.97 177.43 157.94 32.99 72.47 29.99 142.94-8.99 211.41-38.99 68.48-102.46 115.46-190.43 140.45-87.96 24.99-174.43 20.99-259.89-12.5-85.47-33.48-144.94-85.96-178.43-158.43" fill="#9ddff9"/><path d="m2715.1 1756.9c38.99-68.47 102.47-115.45 189.93-140.44 88.47-24.49 175.43-20.49 260.89 12.99 85.47 33.49 144.45 85.97 177.43 157.94 32.99 72.47 29.99 142.94-8.99 211.41-38.99 68.48-102.46 115.46-190.43 140.45-87.96 24.99-174.43 20.99-259.89-12.5-85.47-33.48-144.94-85.96-178.43-158.43-32.49-72.47-29.49-142.95 9.49-211.42z" fill="none" stroke="#000" stroke-linecap="round" stroke-linejoin="round" stroke-miterlimit="10" stroke-width="49.98"/><g><path d="m2812.1 1929.4c-23.99-53.49-21.49-105.47 7-155.95 28.48-50.47 75.46-85.46 139.94-103.95 65.47-18 129.45-14.5 192.42 9.99 62.98 24.49 106.46 62.98 130.95 116.46s22.49 105.45-6.5 155.93c-28.49 50.48-75.47 84.97-140.44 103.46-64.98 18.5-128.95 15.5-191.93-8.99-62.97-24.49-106.95-63.48-131.44-116.95" fill="#89a9b9"/><path d="m3014 2036.8c6.49-11.49 16.49-18.99 30.98-23.49 14.5-4 28.99-3 42.99 2.5 14.49 5.5 23.99 13.99 29.48 25.99 5.5 11.49 5 22.99-1.5 34.48-6.49 11.5-16.99 19-31.48 23.49-14.5 4-28.49 3.5-42.48-2-14.5-5.49-24-14.49-29.49-26.48-5.5-11.5-5-23 1.5-34.49" fill="#9ddff9"/><path d="m3829.2 1716c-155.44 42.48-303.88 51.48-445.32 26.99 104.46-76.97 207.91-165.93 310.37-266.9l134.95 239.91" fill="#f26d7d"/><path d="m3509.8 1167.2c93.46 75.97 154.94 178.93 184.42 308.87-102.46 100.97-205.91 189.93-310.37 266.9-331.87 244.4-673.23 368.85-1024.6 372.85 36.98-369.35 285.38-725.71 745.2-1069.6 165.43-4.5 300.38 35.48 405.34 120.95" fill="#fff"/><path d="m3678.3 1478.6 100.96 179.43c-115.95 31.49-226.91 37.98-332.37 19.99 77.47-57.47 154.94-123.95 231.41-199.42" fill="#c25e69"/><path d="m2330.8 2141.8 4-28.49c36.48-375.35 287.88-737.71 754.7-1087.1l6.49-4.99h8c171.93-5 312.37 36.98 421.83 126.45 96.46 78.47 160.44 184.92 191.92 318.87l149.44 265.39-31.48 8c-155.44 42.48-303.88 51.98-445.82 29.49-333.87 243.9-677.24 367.85-1030.1 371.35zm1102.6-417.33c114.45 13.99 233.91 5.99 358.35-24.5l-108.45-192.42c-82.97 80.47-166.44 152.44-249.9 216.92zm-63.98-2 8.5-6s36.99-28.49 111.46-84.97c81.46-64.47 141.94-114.95 180.42-152.44-28.49-122.95-86.96-220.41-175.43-292.38-99.45-79.97-226.4-118.45-381.35-115.95-436.82 328.37-678.72 668.23-725.2 1019.6 335.86-10.5 663.23-133.45 981.6-367.85"/><path d="m3434.4 1181.7c73.47 59.48 121.45 140.45 144.94 242.9-80.47 79.47-161.94 149.45-243.9 209.92-261.4 192.42-529.79 289.89-806.18 292.89 29.49-290.39 224.91-570.78 586.26-841.17 129.95-3.5 236.41 27.99 318.88 95.46" fill="#cbc4c4"/><path d="m3499.3 1226.2c154.44 1.49 266.4 21.48 334.87 59.97-144.45 144.44-354.36 242.41-629.75 294.88 24.99-78.47 123.45-196.42 294.88-354.85" fill="#f26d7d"/><path d="m3473.3 1228.6c130.45 0 225.91 15 285.89 44.99-113.46 114.95-285.39 194.42-514.8 237.9 17-62.47 93.46-156.44 228.91-282.89" fill="#c25e69"/><path d="m3169.5 1613 19-41.98c38.48-86.47 133.94-200.92 285.88-342.37l25.49-27.49c159.94 1.5 275.39 22.5 346.86 62.98l29.99 15.99-24.49 23.5c-147.44 147.93-361.35 248.39-642.74 301.87zm329.87-361.86h-4.5c-135.94 126.45-222.91 225.91-260.39 298.38 236.9-49.47 422.33-134.94 556.27-256.39-66.97-26.49-163.93-40.49-291.38-41.99"/><path d="m2909.1 1011.2c56.48 43.48 108.45 116.46 155.43 219.91l-295.37 244.9c-20-160.93 26.48-315.87 139.94-464.81" fill="#f26d7d"/><path d="m3070 1244.2-240.9 186.92c-12.49-137.44 27.99-265.39 121.95-383.84 43.99 40.48 83.47 105.95 118.95 196.92" fill="#c25e69"/><path d="m2751.1 1510.5-6-29.99c-21.49-168.43 26.49-329.87 143.94-484.8l15.5-20.492 19.99 15.996c59.48 45.48 114.96 124.45 166.44 236.9zm287.39-276.89c-38.49-82.47-80.47-144.44-124.95-185.92-89.97 125.95-130.95 256.4-122.96 390.84l247.91-204.92"/><path d="m4825.8 1531.5c-41.98-13.99-78.47-41.48-109.46-82.96-30.98-41.49-46.98-83.97-48.48-127.95-1.5-43.99 12-76.47 40.49-97.96 28.49-21.5 63.47-25.49 104.95-11.5 41.99 14 78.47 41.48 109.46 82.97 30.99 41.48 46.98 83.96 48.48 127.94 1.5 43.99-11.49 76.98-39.98 98.47s-63.97 24.99-105.46 10.99" fill="#c6996d"/><path d="m4911.8 1477c-21 15.5-46.98 18.5-77.47 8-30.99-10.5-57.98-30.49-80.97-60.98-22.49-30.48-34.49-61.97-35.49-94.46-1.5-32.48 8.5-56.47 29.99-71.97 20.49-15.99 46.48-18.99 76.97-8.5 30.99 10.5 57.98 30.49 80.97 60.98 22.49 30.49 34.48 61.98 35.48 94.46 1.5 32.49-8.49 56.48-29.48 72.47" fill="#8f6c5e"/><path d="m2140.9 1024.7c56.47 4.5 114.95-8.99 176.42-40.48 61.48-31.488 106.96-71.469 136.45-119.95 29.49-48.481 34.48-91.465 14.99-128.95-18.99-37.485-56.97-58.477-113.45-62.977-56.48-3.996-115.45 9.496-176.93 40.984-61.47 31.489-106.46 70.973-135.95 119.45-29.48 48.48-34.98 91.46-15.99 128.95 19.49 37.484 57.48 58.478 114.46 62.968" fill="#c6996d"/><path d="m2158.9 984.75c-45.48-3.496-76.47-19.992-91.96-49.98-15.5-30.489-11-64.973 12.99-103.96 23.49-38.985 59.98-70.973 108.96-95.961 49.48-25.493 96.46-35.985 141.94-32.489 45.48 3.5 75.97 20.492 91.46 50.481 15.5 30.488 11 64.472-12.49 102.96-23.49 39.484-59.98 71.472-109.46 96.465-49.48 25.488-96.46 35.984-141.44 32.484" fill="#8f6c5e"/><path d="m4581.4 446.96-73.47 118.45-127.45-22.988 73.47-118.45 127.45 22.988" fill="#fdf155"/></g><path d="m4507.9 565.42-127.45-22.988 73.47-118.45 127.45 22.988z" fill="none" stroke="#f90" stroke-linecap="square" stroke-miterlimit="10" stroke-width="29.988"/><path d="m4853.8 345.01 64.48 56.976-44.99 75.469-64.47-56.976 44.98-75.469" fill="#fdf155"/><path d="m4918.3 401.98-44.99 75.469-64.47-56.976 44.98-75.469z" fill="none" stroke="#f90" stroke-linecap="square" stroke-miterlimit="10" stroke-width="29.988"/><path d="m5190.2 392.99 52.97 24.989-40.98 31.488-52.98-24.988 40.99-31.489" fill="#fdf155"/><path d="m5243.1 417.98-40.98 31.488-52.98-24.988 40.99-31.489z" fill="none" stroke="#f90" stroke-linecap="square" stroke-miterlimit="10" stroke-width="29.988"/><path d="m4526.9 1263.1c-31.49-4-61.97-18.99-90.46-44.48-28.99-25.49-47.48-53.98-55.98-85.47s-4-56.48 12.99-75.47c17-19.49 41.49-26.49 73.98-21.99 31.48 4.5 61.97 19.49 90.96 44.98 28.48 25.49 46.98 53.98 55.48 84.97 8.49 31.49 3.99 56.48-13 75.97-16.99 18.99-41.48 25.99-73.97 21.49" fill="#c6996d"/><path d="m4586.9 1224.2c-14.5 15.99-34.49 21.98-60.98 18.49-26.49-4-51.98-16.49-75.97-37.49-23.49-21.49-38.98-44.98-45.98-70.47-7-26.49-3.5-47.48 10.99-63.48 14-15.49 34.49-21.48 60.98-17.49 26.49 3.5 51.48 15.5 75.47 36.99 23.99 20.99 39.48 44.48 45.98 70.97 7 25.49 3.5 46.48-10.49 62.48" fill="#8f6c5e"/></g></g></svg>
