<?xml version="1.0" encoding="UTF-8" standalone="no"?>
<svg
   xmlns:dc="http://purl.org/dc/elements/1.1/"
   xmlns:cc="http://creativecommons.org/ns#"
   xmlns:rdf="http://www.w3.org/1999/02/22-rdf-syntax-ns#"
   xmlns:svg="http://www.w3.org/2000/svg"
   xmlns="http://www.w3.org/2000/svg"
   xmlns:xlink="http://www.w3.org/1999/xlink"
   xmlns:sodipodi="http://sodipodi.sourceforge.net/DTD/sodipodi-0.dtd"
   xmlns:inkscape="http://www.inkscape.org/namespaces/inkscape"
   inkscape:version="1.0 (4035a4fb49, 2020-05-01)"
   sodipodi:docname="plastic-logo1.svg"
   id="svg54"
   version="1.1"
   viewBox="0 0 618.25726 161.69244"
   height="161.69244"
   width="618.25726">
  <metadata
     id="metadata58">
    <rdf:RDF>
      <cc:Work
         rdf:about="">
        <dc:format>image/svg+xml</dc:format>
        <dc:type
           rdf:resource="http://purl.org/dc/dcmitype/StillImage" />
        <dc:title>logo-plastic-positive</dc:title>
      </cc:Work>
    </rdf:RDF>
  </metadata>
  <sodipodi:namedview
     inkscape:current-layer="logo-plastic-positive"
     inkscape:window-maximized="1"
     inkscape:window-y="-8"
     inkscape:window-x="-8"
     inkscape:cy="191.18776"
     inkscape:cx="736.67969"
     inkscape:zoom="0.65059524"
     showgrid="false"
     id="namedview56"
     inkscape:window-height="1017"
     inkscape:window-width="1920"
     inkscape:pageshadow="2"
     inkscape:pageopacity="0"
     guidetolerance="10"
     gridtolerance="10"
     objecttolerance="10"
     borderopacity="1"
     bordercolor="#666666"
     pagecolor="#ffffff" />
  <title
     id="title2">logo-plastic-positive</title>
  <defs
     id="defs9">
    <path
       id="path-1"
       d="M 25.518447,13.417617 0.23096053,0.15444524 25.587789,13.417617 50.962316,0.63009048 c 0.10571,0.39668092 0.162763,0.81308332 0.162763,1.24077382 V 24.560182 c 0,1.953286 -1.17629,3.641495 -2.890053,4.45693 L 28.280632,40.091996 c -0.800579,0.482683 -1.745737,0.763266 -2.762185,0.765147 z" />
    <path
       id="path-3"
       d="m 48.510184,11.756591 c 1.28279,0.642635 2.246842,1.777992 2.614895,3.137514 L 25.601789,27.602981 0.23096053,14.425662 C 0.67302368,13.283783 1.5453105,12.340376 2.6637921,11.77199 L 22.844816,0.73883333 l 0.0069,0.008407 C 23.652474,0.27460714 24.598263,0 25.613632,0 c 0.948763,0 1.838815,0.24239286 2.605526,0.66039286 z" />
    <path
       id="path-5"
       d="M 0.2150579,24.535393 V 1.8447524 c 0,-0.6025643 0.11299473,-1.1792524 0.32023684,-1.71414049 L 25.792632,13.280876 25.781289,40.721982 c -1.102342,0 -2.12671,-0.327133 -2.97,-0.881286 0,0 0.116553,0.108963 -19.7505969,-10.873967 -1.68705,-0.824884 -2.8456342,-2.499561 -2.8456342,-4.431336 z" />
    <path
       id="path-7"
       d="m 23.376816,0.76546905 16.58421,9.08353805 c 1.35379,0.6790139 2.275506,2.0272219 2.275506,3.5795049 v 0.736476 17.718271 c 0,1.58872 -0.965585,2.96262 -2.369111,3.626221 l -16.365974,9.008348 c -0.656684,0.391807 -1.164842,0.425862 -1.997394,0.427263 v -4.992185 c 0.647815,-0.0019 0.983052,0.01498 1.494394,-0.289033 L 35.724316,32.657539 C 36.8175,32.141974 37.56779,31.073489 37.56779,29.838286 V 16.058638 15.486114 c 0,-1.207197 -0.71679,-2.255602 -1.76858,-2.784702 L 22.900921,5.6390452 c -0.48771,-0.2671428 -1.053763,-0.4203047 -1.657737,-0.4203047 -0.644368,0 -1.245395,0.1741928 -1.758237,0.4698047 L 6.6546421,12.711679 c -1.0414395,0.531457 -1.7498553,1.574257 -1.7498553,2.774435 v 13.267807 1.084365 6.939554 L 2.5627763,35.487532 C 1.1824,34.816925 0.23653158,33.455633 0.23653158,31.883259 V 13.428512 c 0,-1.542933 0.91089212,-2.883676 2.24939472,-3.5669072 0,0 16.4994947,-9.02843337 16.5024417,-9.02374528 0.655211,-0.38714761 1.428158,-0.61178333 2.25679,-0.61178333 0.776895,0 1.504026,0.19755476 2.131658,0.53939286 z" />
    <path
       id="path-9"
       d="M 18.433447,9.8348643 V 9.5894595 c 0,-0.5174714 -0.303605,-0.9667166 -0.749026,-1.1934214 h 4.74e-4 L 12.221447,5.3683405 v 4.714e-4 C 12.014316,5.2542809 11.774553,5.1888571 11.51871,5.1888571 c -0.272894,0 -0.527763,0.074329 -0.743184,0.2037881 -0.0014,-0.00186 -0.0019,-0.0028 -0.0019,-0.0028 L 5.339371,8.4007262 C 4.89785,8.6283738 4.5981421,9.0752357 4.5981421,9.5894595 V 15.74066 c 0,0.524464 0.3114053,0.978371 0.7665711,1.201828 v 4.45e-4 l 5.3484448,2.977682 c 0.227105,0.150988 0.502447,0.239336 0.79921,0.239336 0.275843,0 0.532658,-0.0762 0.75,-0.207549 v 4.67e-4 l 5.390842,-3.002917 v -4.71e-4 c 0.462974,-0.2211 0.780237,-0.678726 0.780237,-1.208821 z m 3.683448,-4.4425072 c 0.747684,0.3773 1.25771,1.127212 1.25771,1.9901358 V 7.7915357 17.6418 c 0,0.882986 -0.533552,1.646464 -1.310131,2.014878 0,4.69e-4 4.73e-4,9.35e-4 4.73e-4,9.35e-4 l -9.049026,5.007548 h -5e-4 c -0.364526,0.219 -0.795684,0.345542 -1.258211,0.345542 -0.498289,0 -0.960315,-0.147555 -1.3415,-0.398305 L 4.8247947,21.519334 v 9.868943 L 0.15108421,28.968555 V 7.3824929 c 0,-0.858262 0.50367632,-1.603512 1.24351319,-1.9831429 L 10.516632,0.37874048 c 0,0 0.0015,0.00186 0.0034,0.004662 0.361579,-0.21525952 0.789316,-0.34086905 1.247921,-0.34086905 0.428711,0 0.830974,0.11020953 1.177842,0.30071905 v -4.7143e-4 l 9.171053,5.04910475 z" />
  </defs>
  <g
     transform="translate(408.25704,106.82746)"
     fill-rule="evenodd"
     fill="none"
     stroke-width="1"
     stroke="none"
     id="logo-plastic-positive">
    <g
       transform="matrix(2.9470973,0,0,2.9470973,-408.89084,-106.82746)"
       id="g51">
      <path
         fill="#172a51"
         id="Combined-Shape"
         d="m 64.960395,19.649419 c 0.675079,0 1.351105,0.05259 2.026158,0.162433 0.664815,0.105181 1.461894,0.372298 2.373184,0.812088 0.907421,0.439765 1.692289,1.005662 2.341,1.707462 0.653579,0.696667 1.213921,1.723308 1.691789,3.074762 0.478342,1.350984 0.725342,2.911857 0.725342,4.682622 0,3.210193 -0.818078,5.677618 -2.45571,7.395328 -1.636632,1.713057 -3.972237,2.572146 -7.009763,2.572146 -1.115316,0 -2.191606,-0.125654 -3.241527,-0.371836 l 0.04392,5.122414 c 0,1.361698 -1.126552,2.445562 -2.549394,2.445562 -1.422842,0 -2.575763,-1.099688 -2.575763,-2.46185 V 26.264767 c 0,-1.807038 0.6975,-3.357227 2.109131,-4.661224 1.417474,-1.299336 3.581263,-1.954124 6.521632,-1.954124 z m 48.944365,0 c 2.02066,0 3.88227,0.512652 5.57895,1.527114 0,0 1.52003,1.104138 1.38837,2.213462 -0.1654,1.459045 -1.38837,1.585781 -1.38837,1.585781 -1.40453,-0.608405 -2.996,-0.914493 -4.7705,-0.914493 -2.23011,0 -3.33708,0.538948 -3.33708,1.606472 0,0.538921 0.31419,0.950609 0.94792,1.257169 0.63279,0.306559 1.40305,0.576478 2.31282,0.803235 0.90292,0.232362 1.86113,0.544553 2.84724,0.935603 0.98657,0.401369 1.82392,1.056262 2.52276,1.991393 0.69981,0.935602 1.05216,2.124257 1.05216,3.561224 0,1.733202 -0.69982,3.17065 -2.10385,4.310936 -1.39865,1.141227 -3.2446,1.707381 -5.54713,1.707381 -2.36226,0 -4.53805,-0.570848 -6.52639,-1.738364 0,0 -1.14027,-0.327674 -1.14027,-2.53126 0,-1.790939 1.14027,-1.817234 1.14027,-1.817234 1.82342,1.119635 3.77263,1.674991 5.86034,1.674991 1.33308,0 2.20905,-0.143181 2.61574,-0.449261 0.39737,-0.306549 0.60684,-0.766137 0.60684,-1.378761 0,-0.560057 -0.32055,-1.009328 -0.95382,-1.358107 -0.63863,-0.333326 -1.40942,-0.633757 -2.31868,-0.892886 -0.90782,-0.253995 -1.84447,-0.554897 -2.83597,-0.903702 -0.98611,-0.343174 -1.82932,-0.919181 -2.52864,-1.721919 -0.69981,-0.808867 -1.04581,-1.818169 -1.04581,-3.04391 0,-2.065564 0.72673,-3.6509 2.18655,-4.760197 1.44808,-1.10461 3.25979,-1.664667 5.43655,-1.664667 z m 28.66366,0.467867 c 1.50879,0 2.70237,1.088843 2.70237,2.445143 v 15.228057 c 0,1.360943 -1.19358,2.44421 -2.70237,2.44421 -1.50879,0 -2.73292,-1.099081 -2.73292,-2.459561 V 22.577776 c 0,-1.355828 1.22413,-2.46049 2.73292,-2.46049 z M 80.800342,13.567414 c 1.506711,0 2.705763,1.094081 2.705763,2.468479 v 21.731262 c 0,1.373934 -1.199052,2.467541 -2.705763,2.467541 -1.507737,0 -2.729552,-1.10957 -2.729552,-2.483035 V 16.051869 c 0,-1.374398 1.221815,-2.484455 2.729552,-2.484455 z m 76.964898,6.082005 c 2.03058,0 4.03465,0.491517 6.00421,1.468919 0,0 1.26605,0.496676 1.26605,2.388074 0,1.897028 -1.26605,1.537905 -1.26605,1.537905 -1.64306,-0.655338 -3.37111,-0.983034 -5.16619,-0.983034 -1.91955,0 -3.3371,0.407026 -4.26013,1.210236 -0.92905,0.802764 -1.38955,2.366964 -1.38955,4.686498 0,2.282002 0.4605,3.835857 1.38955,4.649414 0.92303,0.813552 2.34058,1.215398 4.26013,1.215398 1.71608,0 3.43813,-0.317345 5.16619,-0.977389 0,0 1.26605,-0.412178 1.26605,1.542134 0,1.955719 -1.26605,2.378221 -1.26605,2.378221 -1.96956,0.982554 -3.97363,1.468901 -6.00421,1.468901 -3.15761,0 -5.62269,-0.877397 -7.37827,-2.658011 -1.76155,-1.764652 -2.64558,-4.311414 -2.64558,-7.618668 0,-3.328836 0.88403,-5.880758 2.64558,-7.650579 1.75558,-1.769821 4.22066,-2.658019 7.37827,-2.658019 z m -62.94174,0 c 2.892842,0 5.097789,0.729536 6.63239,2.182479 1.53316,1.458102 2.30903,3.556064 2.30903,6.298102 v 5.388795 c 0,1.838813 -0.70355,3.418504 -2.10137,4.734364 -1.39587,1.326188 -3.546076,1.981537 -6.443813,1.981537 -3.007684,0 -5.213105,-0.655349 -6.631948,-1.981537 -1.412947,-1.326189 -2.117,-2.942967 -2.117,-4.839545 0,-0.412631 0.03811,-0.835607 0.11579,-1.2628 0.08258,-0.428135 0.285842,-0.972688 0.626842,-1.633212 0.335184,-0.649235 0.802263,-1.225714 1.3905,-1.716759 0.589211,-0.491517 1.457421,-0.919653 2.601658,-1.267986 1.143763,-0.353964 2.496132,-0.528131 4.052263,-0.528131 1.050921,0 2.172684,0.08968 3.376553,0.263843 0,-2.462271 -1.358263,-3.698776 -4.074237,-3.698776 -0.968368,0 -1.996342,0.137552 -2.914842,0.291055 -0.257974,0.121104 -0.549658,0.190116 -0.857948,0.190116 -1.082684,0 -2.00121,-0.898516 -2.00121,-1.939273 0,-0.919182 0.698184,-1.780612 1.610842,-1.975915 0.03321,-0.03193 0.09379,-0.03193 0.131921,-0.04225 1.336237,-0.296214 2.766789,-0.444112 4.294579,-0.444112 z m 33.73797,-6.082005 c 1.42521,0 2.58519,1.04775 2.64174,2.362696 v 3.939649 h 2.74832 c 1.27857,0 2.32097,0.969101 2.32097,2.168598 0,1.194836 -1.0424,2.163464 -2.32097,2.163464 h -2.74832 v 9.246862 c 0,0.806641 0.16913,1.346573 0.52945,1.618868 0.35979,0.277414 0.94029,0.413793 1.85305,0.413793 0.85074,0 1.60487,-0.125672 2.26392,-0.398433 0,0 1.51529,-0.267177 1.51529,1.48296 0,2.273313 -1.51529,2.576795 -1.51529,2.576795 -0.97431,0.408676 -2.03321,0.624184 -3.18268,0.624184 h -0.028 c -2.05574,0 -3.6721,-0.560882 -4.8431,-1.692884 -1.1825,-1.125952 -1.87008,-2.592622 -1.87008,-4.573164 v -9.298981 h -1.0589 c -1.28458,0 -2.32545,-0.968628 -2.32545,-2.163464 0,-1.199497 1.04087,-2.168598 2.32545,-2.168598 h 1.0589 V 15.93011 c 0.0506,-1.314946 1.21652,-2.362696 2.63573,-2.362696 z M 64.951211,23.860062 c -2.456132,0 -3.680422,0.68179 -3.680422,2.045895 v 9.897216 c 1.133685,0.152392 2.141843,0.220901 3.019448,0.220901 1.583605,0 2.791158,-0.425493 3.633842,-1.290454 0.831526,-0.860311 1.252605,-2.381453 1.252605,-4.553168 0,-2.2286 -0.313289,-3.839209 -0.939842,-4.830493 -0.626053,-0.986595 -1.719737,-1.489897 -3.285631,-1.489897 z m 31.491105,6.549845 c -3.018553,0 -4.530632,0.767014 -4.536211,2.305548 0,1.897131 1.254527,2.840771 3.774842,2.840771 h 0.04018 c 2.399684,0 3.596736,-0.888502 3.596736,-2.68389 V 30.636743 C 98.195132,30.495524 97.23321,30.424705 96.442316,30.409907 Z M 204.86476,19.649705 c 1.62842,0 2.88874,0.415852 3.78545,1.232262 0.89224,0.827514 1.35,1.987228 1.35,3.474062 v 8.393392 h -2.20311 v -8.596212 c 0,-0.36918 -0.0327,-0.696771 -0.0946,-0.993378 -0.0669,-0.285555 -0.19468,-0.587269 -0.39581,-0.915305 -0.19521,-0.32759 -0.51327,-0.571555 -0.94774,-0.753578 -0.43497,-0.18205 -0.97645,-0.270312 -1.61703,-0.270312 -1.06463,0 -2.22489,0.223169 -3.48968,0.655181 0.32895,0.639466 0.48995,1.398597 0.48995,2.277392 v 8.596212 h -2.20211 v -8.596212 c 0,-0.384895 -0.0446,-0.722621 -0.11147,-1.019254 -0.0778,-0.285555 -0.22292,-0.587269 -0.44092,-0.904672 -0.21153,-0.312347 -0.56874,-0.556312 -1.04829,-0.738335 -0.49045,-0.18205 -1.09287,-0.270312 -1.80627,-0.270312 -1.09834,0 -2.16942,0.166335 -3.20036,0.473131 v 11.055654 h -2.20311 V 20.694836 c 1.80726,-0.696274 3.68587,-1.045131 5.63729,-1.045131 1.48874,0 2.68218,0.301714 3.59671,0.900062 1.69532,-0.598348 3.32819,-0.900062 4.90113,-0.900062 z m -20.7335,0 c 1.39532,0 2.76708,0.176969 4.12777,0.519802 v 1.576012 c -1.26487,-0.342833 -2.56937,-0.524883 -3.91353,-0.524883 -1.65371,0 -2.85687,0.400138 -3.60195,1.18559 -0.7516,0.79056 -1.12439,2.059305 -1.12439,3.791045 0,1.762672 0.37279,3.031417 1.12439,3.811343 0.74508,0.785007 1.94824,1.169876 3.60195,1.169876 1.39532,0 2.70537,-0.171416 3.91353,-0.524857 v 1.57046 c -1.3035,0.353912 -2.68127,0.525328 -4.12777,0.525328 -0.65526,0 -1.26487,-0.04712 -1.82931,-0.14554 -0.57048,-0.09887 -1.153,-0.296633 -1.74506,-0.593241 -0.59305,-0.291081 -1.12436,-0.675976 -1.58697,-1.154633 -0.45758,-0.462969 -0.84142,-1.096438 -1.13995,-1.887443 -0.29452,-0.795169 -0.44152,-1.721081 -0.44152,-2.771293 0,-1.284931 0.21423,-2.382285 0.64923,-3.292038 0.44103,-0.89959 1.00598,-1.580621 1.7009,-2.027876 0.69942,-0.442174 1.39431,-0.764683 2.08821,-0.951814 0.70042,-0.176498 1.46858,-0.275838 2.30447,-0.275838 z m -12.47484,0 c 1.21795,0 2.44676,0.234274 3.67013,0.701852 v 1.768224 c -1.09542,-0.597876 -2.24666,-0.899145 -3.44829,-0.899145 -2.10631,0 -3.16366,0.670423 -3.16366,2.012188 0,0.462969 0.2505,0.827043 0.7614,1.107516 0.51732,0.280919 1.14084,0.514696 1.88003,0.696746 0.73965,0.176969 1.4961,0.401054 2.26294,0.660707 0.77274,0.265205 1.42445,0.696771 1.96945,1.310807 0.53905,0.61359 0.81179,1.403679 0.81179,2.350386 0,1.065926 -0.47284,1.892523 -1.40668,2.4904 -0.94027,0.603428 -2.23627,0.900035 -3.89345,0.900035 -1.61321,0 -3.08019,-0.276283 -4.39297,-0.842285 v -1.893441 c 1.39036,0.779926 2.83015,1.164795 4.30402,1.164795 2.13005,0 3.19134,-0.608038 3.19134,-1.819504 0,-0.655627 -0.25544,-1.159715 -0.77273,-1.529341 -0.5109,-0.369181 -1.12853,-0.649628 -1.86819,-0.837205 -0.73916,-0.18205 -1.49018,-0.384423 -2.26295,-0.602957 -0.77323,-0.213007 -1.43534,-0.582633 -1.97339,-1.107988 -0.54005,-0.524857 -0.80734,-1.200833 -0.80734,-2.048671 0,-0.983217 0.42245,-1.825503 1.26239,-2.527355 0.83995,-0.706907 2.13548,-1.055764 3.87616,-1.055764 z M 142.3061,13.567414 c 1.36674,0 2.47058,1.04796 2.47058,2.339229 0,1.29174 -1.10384,2.339255 -2.47058,2.339255 -1.36726,0 -2.4706,-1.047515 -2.4706,-2.339255 0,-1.291269 1.10334,-2.339229 2.4706,-2.339229 z" />
      <g
         transform="translate(56.316,13.357)"
         id="Group" />
      <g
         transform="translate(0.263,13.881)"
         id="Clipped">
        <mask
           fill="#ffffff"
           id="mask-2">
          <use
             height="100%"
             width="100%"
             y="0"
             x="0"
             id="use13"
             xlink:href="#path-1" />
        </mask>
        <g
           id="e" />
        <polygon
           points="-1.085,-1.155 52.441,-1.155 52.441,42.167 -1.085,42.167 "
           mask="url(#mask-2)"
           fill-rule="nonzero"
           fill="#ff5b00"
           id="Path" />
      </g>
      <g
         transform="translate(0.263)"
         id="g25">
        <mask
           fill="#ffffff"
           id="mask-4">
          <use
             height="100%"
             width="100%"
             y="0"
             x="0"
             id="use19"
             xlink:href="#path-3" />
        </mask>
        <g
           id="g" />
        <polygon
           points="-1.085,-1.31 52.441,-1.31 52.441,28.913 -1.085,28.913 "
           mask="url(#mask-4)"
           fill-rule="nonzero"
           fill="#ff4300"
           id="polygon23" />
      </g>
      <g
         transform="translate(0,14.143)"
         id="g33">
        <mask
           fill="#ffffff"
           id="mask-6">
          <use
             height="100%"
             width="100%"
             y="0"
             x="0"
             id="use27"
             xlink:href="#path-5" />
        </mask>
        <g
           id="i" />
        <polygon
           points="-1.101,-1.179 27.108,-1.179 27.108,42.032 -1.101,42.032 "
           mask="url(#mask-6)"
           fill-rule="nonzero"
           fill="#db2f00"
           id="polygon31" />
      </g>
      <g
         transform="translate(4.21,4.452)"
         id="g41">
        <mask
           fill="#ffffff"
           id="mask-8">
          <use
             height="100%"
             width="100%"
             y="0"
             x="0"
             id="use35"
             xlink:href="#path-7" />
        </mask>
        <g
           id="k" />
        <polygon
           points="-1.079,-1.083 43.552,-1.083 43.552,46.255 -1.079,46.255 "
           mask="url(#mask-8)"
           fill-rule="nonzero"
           fill="#fffffe"
           id="polygon39" />
      </g>
      <g
         transform="translate(13.684,14.929)"
         id="g49">
        <mask
           fill="#ffffff"
           id="mask-10">
          <use
             height="100%"
             width="100%"
             y="0"
             x="0"
             id="use43"
             xlink:href="#path-9" />
        </mask>
        <g
           id="m" />
        <polygon
           points="-1.165,-1.267 24.69,-1.267 24.69,32.698 -1.165,32.698 "
           mask="url(#mask-10)"
           fill-rule="nonzero"
           fill="#fffffe"
           id="polygon47" />
      </g>
    </g>
  </g>
</svg>
