<?xml version="1.0" encoding="UTF-8"?>
<svg width="372.5pt" height="57.902pt" version="1.0" viewBox="0 0 372.5 57.902" xmlns="http://www.w3.org/2000/svg" xmlns:cc="http://creativecommons.org/ns#" xmlns:dc="http://purl.org/dc/elements/1.1/" xmlns:rdf="http://www.w3.org/1999/02/22-rdf-syntax-ns#">
 <metadata>
  <rdf:RDF>
   <cc:Work rdf:about="">
    <dc:format>image/svg+xml</dc:format>
    <dc:type rdf:resource="http://purl.org/dc/dcmitype/StillImage"/>
    <dc:title/>
   </cc:Work>
  </rdf:RDF>
 </metadata>
 <g transform="matrix(.1 0 0 -.1 -8.5 65.902)">
  <path d="m305 624c-27-19-88-53-135-76l-85-41 55-56c82-85 150-227 150-318 0-32 12-41 36-25 19 12-11 148-50 226-19 39-51 86-70 105l-35 34 72 36c84 42 159 91 164 107 5 14-24 44-40 43-7 0-34-16-62-35z"/>
  <path d="m405 584c-27-19-83-53-123-76l-72-40 26-31c58-68 96-172 119-320l6-37 47 27c26 15 73 44 105 65l57 39v92c0 51-7 119-15 152-18 69-66 159-86 162-8 1-36-14-64-33z"/>
  <path d="m777 511c-29-15-37-16-37-5 0 10-15 14-55 14s-55-4-55-14c0-7 9-16 20-19 18-5 20-14 20-117s-2-112-20-117c-11-3-20-12-20-19 0-11 19-14 85-14 67 0 85 3 85 14 0 8-10 16-22 18-22 3-23 8-26 95-2 83-1 94 18 113 29 29 64 23 68-12 2-20 9-28 23-28 16 0 19 7 19 49 0 66-31 79-103 42z"/>
  <path d="m963 509c-58-29-79-78-75-178 2-24 12-44 40-71 64-64 158-66 219-5 18 18 33 38 33 44 0 20-46 11-70-14-23-25-68-33-105-19-16 6-45 54-45 74 0 6 42 10 116 10h117l-7 48c-7 56-30 91-77 114-45 24-95 23-146-3zm122-44c14-13 25-33 25-45 0-18-6-20-74-20-73 0-73 0-68 25 5 29 46 65 74 65 10 0 30-11 43-25z"/>
  <path d="m1253 515c-36-15-53-42-53-83 0-38 33-67 100-90 61-21 81-43 64-69-25-40-124-18-124 27 0 13-7 20-20 20-17 0-20-7-20-44 0-50 4-53 85-62 94-11 159 26 159 92 0 44-24 68-98 97-67 26-87 47-67 71 29 35 121 12 121-30 0-8 7-14 15-14 11 0 15 12 15 44 0 42-1 44-37 50-59 9-105 6-140-9z"/>
  <path d="m1938 506c-36-24-38-24-38-6s-7 20-55 20c-59 0-74-17-32-35 20-9 22-17 25-112 2-94 1-103-18-115-42-26-24-38 60-38 58 0 80 4 80 13 0 7-10 17-22 22-21 9-23 18-26 91-2 69 0 84 18 107 25 32 69 36 93 9 13-15 17-39 17-111 0-84-2-93-20-98-11-3-20-12-20-19 0-11 19-14 80-14s80 3 80 14c0 7-9 16-19 19-25 6-37 79-25 150 10 59 41 85 88 73 34-8 46-40 46-122 0-70-12-104-35-104-8 0-15-7-15-15 0-12 16-15 80-15 61 0 80 3 80 14 0 7-9 16-20 19-18 5-20 14-20 100 0 53-4 107-10 122-21 55-122 69-181 26-26-19-26-19-46 1-12 12-39 22-64 25-36 4-51 0-81-21z"/>
  <path d="m2421 512c-48-24-73-62-79-120-6-63 11-115 49-146 36-31 107-43 159-27 39 11 80 51 80 77 0 23-41 16-66-11-46-50-144-20-144 43 0 21 4 22 110 22h110v36c0 57-28 104-74 125-52 23-101 24-145 1zm102-31c19-8 47-53 47-77 0-2-34-4-75-4-61 0-75 3-75 16 0 25 20 54 43 64 29 12 32 12 60 1z"/>
  <path d="m2773 511c-47-22-71-59-79-123-4-40-3-44 28-63 26-16 34-29 38-60 5-39 7-40 53-49 61-12 112 10 132 56 7 18 11 36 9 40-11 18-40 6-56-22-14-25-24-30-53-30s-39 6-55 33c-23 37-26 109-7 147 30 59 112 66 124 10 4-21 11-30 24-30 16 0 19 8 19 49 0 48 0 48-37 55-62 10-96 7-140-13z"/>
  <path d="m3045 511c-53-24-79-70-80-141 0-72 30-122 85-144 52-21 85-20 137 3 53 25 77 68 77 141s-24 116-77 141c-53 23-91 24-142 0zm121-52c15-17 19-36 19-91 0-64-2-72-28-94-35-30-49-30-83-1-23 20-28 34-31 83-5 79 20 124 70 124 22 0 41-8 53-21z"/>
  <path d="m3410 523c-8-3-25-15-37-26l-23-20v21c0 20-5 22-55 22-59 0-74-17-32-35 20-9 22-17 25-112 2-94 1-103-18-115-42-26-24-38 60-38 63 0 80 3 80 14 0 8-10 16-22 18-22 3-23 8-26 92-3 80-1 91 19 112 30 32 74 32 94 0 12-18 15-45 13-112-3-84-4-89-25-92-13-2-23-10-23-18 0-11 18-14 85-14 62 0 85 3 85 13 0 7-10 17-22 22-21 9-23 16-23 98 0 81 2 90 24 108 28 23 64 24 85 3 12-12 16-37 16-111 0-86-2-95-20-100-11-3-20-12-20-19 0-11 19-14 80-14s80 3 80 14c0 7-9 16-20 19-18 5-20 14-20 95 0 111-11 146-55 166-47 23-87 20-131-10-24-16-40-22-42-15-10 29-89 50-132 34z"/>
  <path d="m1450 506c0-8 9-18 20-21 18-6 20-15 20-100 0-52 4-105 10-120 19-51 125-70 170-30 21 19 30 19 30 0 0-11 12-15 45-15 47 0 56 11 30 36-12 12-15 43-15 140v124h-60c-64 0-81-16-37-35 20-9 22-18 25-93 3-76 1-84-22-107-29-29-52-31-84-9-21 14-22 23-22 130v114h-55c-41 0-55-4-55-14z"/>
  <path d="m2655 300c-24-27-13-68 22-76 33-9 57 6 61 38 6 50-49 76-83 38z"/>
 </g>
</svg>
