<?xml version="1.0" encoding="UTF-8"?>
<svg enable-background="new 0 0 558.58 85.57" version="1.1" viewBox="0 0 558.58 85.57" xml:space="preserve" xmlns="http://www.w3.org/2000/svg" xmlns:cc="http://creativecommons.org/ns#" xmlns:dc="http://purl.org/dc/elements/1.1/" xmlns:rdf="http://www.w3.org/1999/02/22-rdf-syntax-ns#"><metadata><rdf:RDF><cc:Work rdf:about=""><dc:format>image/svg+xml</dc:format><dc:type rdf:resource="http://purl.org/dc/dcmitype/StillImage"/><dc:title/></cc:Work></rdf:RDF></metadata>
<style type="text/css">
	.st0{fill:#EAEAEA;}
	.st1{fill:#3080C3;}
	.st2{fill:#00AEEF;}
	.st3{fill:url(#SVGID_1_);}
</style>
<rect class="st0" x="-35.97" y="296.91" width="756" height="203.12"/>
<rect class="st0" x="-35.97" y="534.71" width="756" height="203.12"/>

	
		<path class="st1" d="m0 40.98c0.74 2.42 1.49 4.84 2.19 7.08 0.47 1.54 0.82 4.24 2.79 5.4 0.99 0.58 2.69 0.97 3.06 0.97h28.84c1.91 0 6.41-2.29 7.28-3.09 7.58-7.07 15.11-14.33 22.71-21.15 0.54-0.49 2.39-3.55 2.39-4.8 0-2.18-5.79-20.36-6.97-23.12-0.8-1.87-3.23-1.94-4.57-2.27h-0.01c0.57 1.64 2.38 6.24 2.38 8.32 0 5.77-7.39 10.18-13.34 15.89-4.58 4.4-9.27 8.63-13.96 12.88-1.41 1.26-5.81 3.35-7.78 3.36h-25.01v0.53z"/>
		<path class="st1" d="m158.43 53.77c-0.6 0.25-1.41 0.4-2.44 0.45s-1.9 0.09-7.01 0.1c-4.88-0.04-5.21-0.09-6.13-0.16s-1.67-0.29-2.25-0.66c-0.81-0.57-1.21-1.85-1.19-3.83h-11.72l-0.03 1.87c0 2.86 0.29 5 0.86 6.4s1.6 2.53 3.1 3.39c1.43 0.8 3.58 1.35 6.43 1.66s4.7 0.47 10.67 0.47c7.14 0 9.81-0.12 12.43-0.35 2.44-0.23 4.34-0.68 5.69-1.34s2.4-1.66 3.16-3c1.01-1.83 1.51-4.61 1.51-8.37 0-2.85-0.3-5.05-0.9-6.57s-1.63-2.73-3.08-3.6c-1.28-0.74-3-1.24-5.16-1.5s-4.25-0.49-10.67-0.68c-7.62-0.23-9.32-0.47-10.25-0.73-1.12-0.31-1.69-1.17-1.69-2.57 0-1.46 0.56-2.35 1.69-2.67 1.12-0.32 1.69-0.48 6.83-0.48 4.27 0 4.86 0.05 6.18 0.13 1.32 0.09 2.24 0.29 2.77 0.6 0.43 0.25 0.71 0.58 0.86 0.99s0.24 1.17 0.28 2.28h11.72v-1.87c0-3.62-0.68-6.19-2.04-7.72s-3.86-2.54-7.5-3.05c-2.37-0.33-4.27-0.5-10.1-0.5-8.26 0-11.17 0.2-13.86 0.6-2.7 0.4-4.69 1.32-5.99 2.76-1.71 1.85-2.56 5.02-2.56 9.51 0 4.01 0.75 6.87 2.24 8.58 0.87 1.03 2.09 1.77 3.65 2.23s3.79 0.73 6.7 0.83c1.49 0.04 2.14 0.18 7.09 0.41 4.83 0.23 5.78 0.35 7.28 0.35 1.94 0.04 3.22 0.26 3.85 0.66s0.95 1.19 0.95 2.38c-0.04 1.63-0.48 2.63-1.37 3z"/>
		<path class="st1" d="m178.78 54.92c0.08 1.54 0.28 2.74 0.61 3.62 0.33 0.87 0.87 1.68 1.63 2.42 1.03 1.01 2.36 1.7 4 2.07s3.2 0.55 6.57 0.55c3.65 0 5.67-0.27 7.52-0.8 1.85-0.54 3.3-1.48 4.35-2.81 0.82-1.03 1.36-2.15 1.64-3.35s0.44-3.16 0.48-5.86h-9.63c0 1.48-0.02 2.4-0.06 2.76s-0.16 0.72-0.35 1.1c-0.49 0.93-1.01 1.4-3.05 1.4-1.96 0-2.25-0.49-2.78-1.46-0.31-0.57-0.47-1.96-0.47-4.17v-8.21h15.51v-7.52h-15.51v-6.5h-10.54v6.5h-5.54v7.52h5.54v8.21c0.02 2.44 0.05 3.96 0.08 4.53z"/>
		<path class="st1" d="m244.15 62.86v-28.22h-10.52v11.35c0 2.64-0.12 4.49-0.36 5.53s-0.74 1.89-1.49 2.55c-1.22 1.05-1.62 1.58-5.02 1.58-2.01 0-2.39-0.11-3.36-0.34-0.96-0.22-1.75-0.62-2.35-1.21-0.58-0.57-0.96-1.28-1.16-2.16-0.19-0.87-0.29-2.34-0.29-4.4v-12.9h-10.54v12.9c0 3.84 0.2 6.56 0.59 8.14 0.4 1.58 1.24 3.03 2.51 4.35 1.26 1.28 2.85 2.19 4.76 2.74 1.92 0.54 4.5 0.81 7.75 0.81 3.56 0 3.25-0.37 5.07-1.12s3.15-2.03 3.98-3.83h0.56v4.24h9.87z"/>
		<path class="st1" d="m285.26 62.86v-39.8h-10.55v15.34h-0.44c-1.01-1.8-2.31-3-3.91-3.61s-3.06-0.92-6.77-0.92c-4.24 0-6.2 0.25-8.24 0.76-2.77 0.68-4.71 2.07-5.81 4.17-0.58 1.13-0.99 2.43-1.23 3.91s-0.36 3.43-0.36 5.86c0 3.5 0.22 6.11 0.65 7.84s1.23 3.12 2.39 4.17c1.2 1.11 2.83 1.89 4.88 2.33 2.05 0.45 3.8 0.67 7.6 0.67 4.73 0 6.88-0.57 8.82-1.71 0.89-0.52 1.71-1.42 2.44-2.7h0.57v3.7h9.96zm-10.88-10.32c-0.26 0.86-0.71 1.48-1.35 1.87-1.3 0.82-2.72 1.23-6.63 1.23-3.16 0-4.18-0.25-5.44-0.76-0.95-0.37-1.6-1.01-1.94-1.92-0.35-0.91-0.52-2.42-0.52-4.55 0-2.81 0.58-4.61 1.76-5.41 1.17-0.8 2.65-1.2 6.79-1.2 3.08 0 4.07 0.27 5.35 0.82 0.89 0.37 1.51 1 1.86 1.9s0.52 2.31 0.52 4.24c-0.01 1.66-0.14 2.92-0.4 3.78z"/>
		<rect class="st1" x="290.98" y="34.64" width="10.54" height="28.22"/>
		<rect class="st1" x="290.98" y="23.06" width="10.54" height="7.94"/>
		<path class="st1" d="m339.83 36.51c-1.34-0.97-3.19-1.64-5.57-2.02s-4.7-0.57-9.49-0.57c-6.26 0.02-9.4 0.39-11.94 1.1-2.54 0.72-4.34 2.11-5.41 4.16-0.52 1.01-0.88 2.12-1.06 3.33-0.19 1.21-0.28 2.98-0.28 5.31 0 4.1 0.22 7 0.66 8.73s1.3 3.12 2.6 4.19c1.35 1.13 3.17 1.88 5.43 2.25 2.27 0.38 4.77 0.57 10.02 0.57 5.93 0 8.92-0.3 11.47-0.9 3.08-0.72 5.13-2.4 6.13-5.04 0.39-1.04 0.66-2.22 0.8-3.53 0.15-1.31 0.22-3.27 0.22-5.89 0-3.53-0.25-6.11-0.76-7.74-0.47-1.62-1.42-2.94-2.82-3.95zm-8.61 17.88c-1.11 0.83-2.4 1.25-6.39 1.25-3.48 0-4.63-0.31-5.96-0.93-0.87-0.41-1.46-1.01-1.77-1.81-0.31-0.79-0.46-2.12-0.46-3.96 0-1.87 0.18-3.27 0.55-4.22s1-1.63 1.88-2.04c1.22-0.54 2.31-0.82 5.79-0.82 3.25 0 4.28 0.29 5.62 0.87 0.91 0.39 1.54 1.01 1.89 1.87 0.35 0.85 0.52 2.22 0.52 4.08 0 2.97-0.55 4.87-1.67 5.71z"/>
		<path class="st1" d="m393.02 23.16c-3.22-0.43-5.57-0.64-14.14-0.64-8.59 0-10.79 0.21-13.99 0.64-4.63 0.62-7.47 2.83-8.52 6.62-0.72 2.58-1.07 6.9-1.07 12.96 0 6.37 0.36 10.86 1.07 13.46 1.05 3.79 3.89 5.99 8.52 6.61 3.22 0.43 5.46 0.64 14.11 0.64 8.49 0 10.8-0.22 14.02-0.64 4.63-0.62 7.48-2.82 8.52-6.61 0.72-2.6 1.08-7.01 1.08-13.23 0-6.2-0.36-10.6-1.08-13.2-1.04-3.78-3.88-5.99-8.52-6.61zm-2.87 26.14c-0.25 1.06-0.73 1.86-1.42 2.41-0.78 0.6-1.97 0.99-3.58 1.17-1.61 0.17-1.31 0.26-6.17 0.26-5.2 0-5.01-0.12-6.81-0.35-2.44-0.29-3.91-1.45-4.39-3.47-0.25-1.09-0.38-2.85-0.38-5.29 0-4.03 0.23-6.72 0.7-8.07s1.45-2.22 2.94-2.61c1.3-0.33 1.47-0.5 7.89-0.5 5.63 0 5.63 0.1 7.11 0.31 1.47 0.2 2.53 0.73 3.17 1.59 0.5 0.68 0.85 1.69 1.05 3.04 0.19 1.34 0.29 3.45 0.29 6.31-0.02 2.4-0.15 4.13-0.4 5.2z"/>
		<path class="st1" d="m442.69 62.86v-12.82c0-3.88-0.19-6.61-0.58-8.2s-1.23-3.05-2.53-4.36c-1.24-1.3-2.83-2.22-4.75-2.75-1.93-0.54-3.4-0.8-6.77-0.8-3.39 0-4.81 0.37-6.62 1.13-1.81 0.75-3.19 2.05-4.14 3.88h-0.59v-4.3h-9.89v28.22h10.55v-11.28c0-2.58 0.09-4.37 0.29-5.36 0.19-0.99 0.61-1.83 1.25-2.5 1.18-1.24 2.41-1.86 6.05-1.86 3.68 0 4.85 0.51 5.87 1.52 0.56 0.56 0.93 1.24 1.09 2.05 0.16 0.8 0.25 2.34 0.25 4.61v12.82h10.52z"/>
		<path class="st1" d="m482.04 48.19c0-4.66-0.64-7.98-1.92-9.94-1.28-1.97-3.63-3.25-7.04-3.83-1.92-0.33-3.97-0.5-8.66-0.5-5.31 0-8.05 0.29-10.56 0.87-2.95 0.68-4.98 2.15-6.11 4.39-0.54 1.09-0.91 2.3-1.11 3.65-0.19 1.35-0.29 3.36-0.29 6.04 0 3.57 0.25 6.21 0.75 7.93 0.51 1.72 1.44 3.09 2.79 4.12 1.28 0.97 3.02 1.65 5.21 2.05s4.15 0.6 8.24 0.6c4.96 0 7.43-0.23 9.91-0.68 2.48-0.46 4.4-1.27 5.76-2.45 1.57-1.34 2.5-3.53 2.79-6.59h-10.5c-0.14 0.85-0.38 1.45-0.73 1.8-0.43 0.42-1.23 0.73-2.4 0.91s-1.68 0.27-4.02 0.27c-3.68 0-4.87-0.39-5.92-1.16-0.54-0.41-0.91-0.92-1.09-1.54s-0.27-1.65-0.27-3.08h25.11c0.04-1.46 0.06-2.41 0.06-2.86zm-25.16-2.93c0.08-1.97 0.69-3.27 1.83-3.9 1.14-0.62 2.31-0.93 5.86-0.93 3.96 0 5.13 0.47 6.05 1.41 0.31 0.33 0.52 0.71 0.62 1.13 0.11 0.42 0.18 1.19 0.22 2.3h-14.58z"/>
		<path class="st1" d="m58.65 65.32c0.17-1.06 0.45-2.15 0.9-2.59 6.06-5.95 12.55-11.55 18.84-17.35 1.97-1.81 3.79-3.79 5.95-5.39 0.91-0.67 3.19-1.77 5.01-1.68h31.64c-0.43-1.7-0.74-4.62-1.98-5.85-1.69-1.66-2.7-2.05-4.47-2.05h-36.72c-2.25 0-6.05 2.12-7.03 2.99-6.89 6.2-13.47 12.82-20.35 18.8-0.8 0.68-2.65 3.72-2.65 5 0 1.26 1.4 5.85 2.76 10.13 1.39 4.39 2.87 8.82 3.2 10.08 0.53 2.05 3.71 3.48 4.9 3.47h4.44l-4.44-15.56z"/>
		<path class="st1" d="m486.29 36.16c0-0.73-0.59-0.9-1.2-0.9h-1.47v3.39h0.47v-1.48h0.66l0.97 1.48h0.53l-1.01-1.53c0.6-0.02 1.05-0.29 1.05-0.96zm-1.32 0.6h-0.89v-1.1h0.9c0.36 0 0.82 0.04 0.82 0.49 0.01 0.34-0.15 0.61-0.83 0.61z"/>
		<path class="st1" d="m487.75 36.95c0-1.66-1.35-3.02-3.02-3.02-1.68 0-3.04 1.36-3.04 3.02 0 1.68 1.35 3.02 3.04 3.02 1.67 0 3.01-1.34 3.02-3.02zm-3.02 2.55c-1.41 0-2.54-1.14-2.54-2.56 0-1.39 1.13-2.53 2.54-2.53 1.4 0 2.53 1.14 2.53 2.53 0 1.42-1.12 2.56-2.53 2.56z"/>
	
	
		<path class="st1" d="m510.64 67.63c1.09 2.42 2.56 4.51 4.42 6.24 1.86 1.74 4.04 3.07 6.54 4s5.21 1.39 8.12 1.39c3.31 0 6.26-0.62 8.85-1.88 2.58-1.25 4.81-2.95 6.67-5.09s3.27-4.61 4.24-7.39c0.97-2.79 1.45-5.72 1.45-8.79 0-3.15-0.55-6.06-1.64-8.73s-2.59-4.99-4.48-6.97c-1.9-1.98-4.18-3.53-6.85-4.67-2.67-1.13-5.58-1.7-8.73-1.7-3.88 0-7.47 0.87-10.79 2.61-3.31 1.74-6.02 4.22-8.12 7.45h-6.55l8.24-44h42.42v7.03h-37.09l-5.45 28.12 0.24 0.24c2.1-2.5 4.77-4.44 8-5.82 3.23-1.37 6.55-2.06 9.94-2.06 4.36 0 8.3 0.73 11.82 2.18 3.51 1.45 6.5 3.48 8.97 6.06 2.46 2.59 4.36 5.68 5.7 9.27 1.33 3.6 2 7.54 2 11.82 0 4.12-0.77 7.94-2.3 11.45-1.54 3.51-3.64 6.55-6.3 9.09s-5.8 4.53-9.39 5.94c-3.6 1.41-7.41 2.12-11.45 2.12-3.96 0-7.62-0.59-10.97-1.76s-6.26-2.87-8.73-5.09-4.42-4.95-5.88-8.18c-1.45-3.23-2.22-6.87-2.3-10.91h7.64c0.09 2.94 0.67 5.61 1.76 8.03z"/>
	


	
		<path class="st2" d="m47.56 612.69c0.74 2.42 1.49 4.84 2.19 7.08 0.47 1.54 0.82 4.24 2.79 5.4 0.99 0.58 2.69 0.97 3.06 0.97h28.84c1.91 0 6.41-2.29 7.28-3.09 7.58-7.07 15.11-14.33 22.71-21.15 0.54-0.49 2.39-3.55 2.39-4.8 0-2.18-5.79-20.36-6.97-23.12-0.81-1.88-3.23-1.94-4.57-2.28h-0.01c0.57 1.64 2.38 6.24 2.38 8.32 0 5.77-7.39 10.18-13.34 15.89-4.58 4.4-9.27 8.63-13.96 12.88-1.41 1.26-5.81 3.35-7.78 3.36h-25.01v0.54z"/>
		<path class="st2" d="m205.99 625.48c-0.6 0.25-1.41 0.4-2.44 0.45s-1.9 0.09-7.01 0.1c-4.88-0.04-5.21-0.09-6.13-0.16s-1.67-0.29-2.25-0.66c-0.81-0.57-1.21-1.85-1.19-3.83h-11.72l-0.03 1.87c0 2.86 0.29 5 0.86 6.4s1.6 2.53 3.1 3.39c1.43 0.8 3.58 1.35 6.43 1.66s4.7 0.47 10.67 0.47c7.14 0 9.81-0.12 12.43-0.35 2.44-0.23 4.34-0.68 5.69-1.34s2.4-1.66 3.16-3c1.01-1.83 1.51-4.61 1.51-8.37 0-2.85-0.3-5.05-0.9-6.57s-1.63-2.73-3.08-3.6c-1.28-0.74-3-1.24-5.16-1.5s-4.25-0.49-10.67-0.68c-7.62-0.23-9.32-0.47-10.25-0.73-1.12-0.31-1.69-1.17-1.69-2.57 0-1.46 0.56-2.35 1.69-2.67 1.12-0.32 1.69-0.48 6.83-0.48 4.27 0 4.86 0.05 6.18 0.13 1.32 0.09 2.24 0.29 2.77 0.6 0.43 0.25 0.71 0.58 0.86 0.99s0.24 1.17 0.28 2.28h11.72v-1.87c0-3.62-0.68-6.19-2.04-7.72s-3.86-2.54-7.5-3.05c-2.37-0.33-4.27-0.5-10.1-0.5-8.26 0-11.17 0.2-13.86 0.6-2.7 0.4-4.69 1.32-5.99 2.76-1.71 1.85-2.56 5.02-2.56 9.51 0 4.01 0.75 6.87 2.24 8.58 0.87 1.03 2.09 1.77 3.65 2.23s3.79 0.73 6.7 0.83c1.49 0.04 2.14 0.18 7.09 0.41 4.83 0.23 5.78 0.35 7.28 0.35 1.94 0.04 3.22 0.26 3.85 0.66s0.95 1.19 0.95 2.38c-0.04 1.63-0.48 2.63-1.37 3z"/>
		<path class="st2" d="m226.34 626.62c0.08 1.54 0.28 2.74 0.61 3.62 0.33 0.87 0.87 1.68 1.63 2.42 1.03 1.01 2.36 1.7 4 2.07s3.2 0.55 6.57 0.55c3.65 0 5.67-0.27 7.52-0.8 1.85-0.54 3.3-1.48 4.35-2.81 0.82-1.03 1.36-2.15 1.64-3.35s0.44-3.16 0.48-5.86h-9.63c0 1.48-0.02 2.4-0.06 2.76s-0.16 0.72-0.35 1.1c-0.49 0.93-1.01 1.4-3.05 1.4-1.96 0-2.25-0.49-2.78-1.46-0.31-0.57-0.47-1.96-0.47-4.17v-8.21h15.51v-7.52h-15.51v-6.5h-10.54v6.5h-5.54v7.52h5.54v8.21c0.02 2.45 0.05 3.97 0.08 4.53z"/>
		<path class="st2" d="m291.7 634.56v-28.22h-10.52v11.35c0 2.64-0.12 4.49-0.36 5.53s-0.74 1.89-1.49 2.55c-1.22 1.05-1.62 1.58-5.02 1.58-2.01 0-2.39-0.11-3.36-0.34-0.96-0.22-1.75-0.62-2.35-1.21-0.58-0.57-0.96-1.28-1.16-2.16-0.19-0.87-0.29-2.34-0.29-4.4v-12.9h-10.54v12.9c0 3.84 0.2 6.56 0.59 8.14 0.4 1.58 1.24 3.03 2.51 4.35 1.26 1.28 2.85 2.19 4.76 2.74 1.92 0.54 4.5 0.81 7.75 0.81 3.56 0 3.25-0.37 5.07-1.12s3.15-2.03 3.98-3.83h0.56v4.24h9.87z"/>
		<path class="st2" d="m332.82 634.57v-39.8h-10.55v15.33h-0.44c-1.01-1.8-2.31-3-3.91-3.61s-3.06-0.92-6.77-0.92c-4.24 0-6.2 0.25-8.24 0.76-2.77 0.68-4.71 2.07-5.81 4.17-0.58 1.13-0.99 2.43-1.23 3.91s-0.36 3.43-0.36 5.86c0 3.5 0.22 6.11 0.65 7.84s1.23 3.12 2.39 4.17c1.2 1.11 2.83 1.89 4.88 2.33 2.05 0.45 3.8 0.67 7.6 0.67 4.73 0 6.88-0.57 8.82-1.71 0.89-0.52 1.71-1.42 2.44-2.7h0.57v3.7h9.96zm-10.88-10.33c-0.26 0.86-0.71 1.48-1.35 1.87-1.3 0.82-2.72 1.23-6.63 1.23-3.16 0-4.18-0.25-5.44-0.76-0.95-0.37-1.6-1.01-1.94-1.92-0.35-0.91-0.52-2.42-0.52-4.55 0-2.81 0.58-4.61 1.76-5.41 1.17-0.8 2.65-1.2 6.79-1.2 3.08 0 4.07 0.27 5.35 0.82 0.89 0.37 1.51 1 1.86 1.9s0.52 2.31 0.52 4.24c-0.01 1.67-0.14 2.92-0.4 3.78z"/>
		<rect class="st2" x="338.54" y="606.34" width="10.54" height="28.22"/>
		<rect class="st2" x="338.54" y="594.77" width="10.54" height="7.94"/>
		<path class="st2" d="m387.39 608.22c-1.34-0.97-3.19-1.64-5.57-2.02s-4.7-0.57-9.49-0.57c-6.26 0.02-9.4 0.39-11.94 1.1-2.54 0.72-4.34 2.11-5.41 4.16-0.52 1.01-0.88 2.12-1.06 3.33-0.19 1.21-0.28 2.98-0.28 5.31 0 4.1 0.22 7 0.66 8.73s1.3 3.12 2.6 4.19c1.35 1.13 3.17 1.88 5.43 2.25 2.27 0.38 4.77 0.57 10.02 0.57 5.93 0 8.92-0.3 11.47-0.9 3.08-0.72 5.13-2.4 6.13-5.04 0.39-1.04 0.66-2.22 0.8-3.53 0.15-1.31 0.22-3.27 0.22-5.89 0-3.53-0.25-6.11-0.76-7.74-0.47-1.63-1.42-2.95-2.82-3.95zm-8.61 17.87c-1.11 0.83-2.4 1.25-6.39 1.25-3.48 0-4.63-0.31-5.96-0.93-0.87-0.41-1.46-1.01-1.77-1.81-0.31-0.79-0.46-2.12-0.46-3.96 0-1.87 0.18-3.27 0.55-4.22s1-1.63 1.88-2.04c1.22-0.54 2.31-0.82 5.79-0.82 3.25 0 4.28 0.29 5.62 0.87 0.91 0.39 1.54 1.01 1.89 1.87 0.35 0.85 0.52 2.22 0.52 4.08 0 2.97-0.55 4.88-1.67 5.71z"/>
		<path class="st2" d="m440.58 594.87c-3.22-0.43-5.57-0.64-14.14-0.64-8.59 0-10.79 0.21-13.99 0.64-4.63 0.62-7.47 2.83-8.52 6.62-0.72 2.58-1.07 6.9-1.07 12.96 0 6.37 0.36 10.86 1.07 13.46 1.05 3.79 3.89 5.99 8.52 6.61 3.22 0.43 5.46 0.64 14.11 0.64 8.49 0 10.8-0.22 14.02-0.64 4.63-0.62 7.48-2.82 8.52-6.61 0.72-2.6 1.08-7.01 1.08-13.23 0-6.2-0.36-10.6-1.08-13.2-1.04-3.78-3.88-5.99-8.52-6.61zm-2.87 26.13c-0.25 1.06-0.73 1.86-1.42 2.41-0.78 0.6-1.97 0.99-3.58 1.17-1.61 0.17-1.31 0.26-6.17 0.26-5.2 0-5.01-0.12-6.81-0.35-2.44-0.29-3.91-1.45-4.39-3.47-0.25-1.09-0.38-2.85-0.38-5.29 0-4.03 0.23-6.72 0.7-8.07s1.45-2.22 2.94-2.61c1.3-0.33 1.47-0.5 7.89-0.5 5.63 0 5.63 0.1 7.11 0.31 1.47 0.2 2.53 0.73 3.17 1.59 0.5 0.68 0.85 1.69 1.05 3.04 0.19 1.34 0.29 3.45 0.29 6.31-0.02 2.4-0.15 4.14-0.4 5.2z"/>
		<path class="st2" d="m490.25 634.56v-12.82c0-3.88-0.19-6.61-0.58-8.2s-1.23-3.05-2.53-4.36c-1.24-1.3-2.83-2.22-4.75-2.75-1.93-0.54-3.4-0.8-6.77-0.8-3.39 0-4.81 0.37-6.62 1.13-1.81 0.75-3.19 2.05-4.14 3.88h-0.59v-4.3h-9.89v28.22h10.55v-11.28c0-2.58 0.09-4.37 0.29-5.36 0.19-0.99 0.61-1.83 1.25-2.5 1.18-1.24 2.41-1.86 6.05-1.86 3.68 0 4.85 0.51 5.87 1.52 0.56 0.56 0.93 1.24 1.09 2.05 0.16 0.8 0.25 2.34 0.25 4.61v12.82h10.52z"/>
		<path class="st2" d="m529.6 619.9c0-4.66-0.64-7.98-1.92-9.94-1.28-1.97-3.63-3.25-7.04-3.83-1.92-0.33-3.97-0.5-8.66-0.5-5.31 0-8.05 0.29-10.56 0.87-2.95 0.68-4.98 2.15-6.11 4.39-0.54 1.09-0.91 2.3-1.11 3.65-0.19 1.35-0.29 3.36-0.29 6.04 0 3.57 0.25 6.21 0.75 7.93 0.51 1.72 1.44 3.09 2.79 4.12 1.28 0.97 3.02 1.65 5.21 2.05s4.15 0.6 8.24 0.6c4.96 0 7.43-0.23 9.91-0.68 2.48-0.46 4.4-1.27 5.76-2.45 1.57-1.34 2.5-3.53 2.79-6.59h-10.5c-0.14 0.85-0.38 1.45-0.73 1.8-0.43 0.42-1.23 0.73-2.4 0.91s-1.68 0.27-4.02 0.27c-3.68 0-4.87-0.39-5.92-1.16-0.54-0.41-0.91-0.92-1.09-1.54s-0.27-1.65-0.27-3.08h25.11c0.04-1.46 0.06-2.42 0.06-2.86zm-25.16-2.94c0.08-1.97 0.69-3.27 1.83-3.9 1.14-0.62 2.31-0.93 5.86-0.93 3.96 0 5.13 0.47 6.05 1.41 0.31 0.33 0.52 0.71 0.62 1.13 0.11 0.42 0.18 1.19 0.22 2.3h-14.58z"/>
		<path class="st2" d="m106.21 637.03c0.17-1.06 0.45-2.15 0.9-2.59 6.06-5.95 12.55-11.55 18.84-17.35 1.97-1.81 3.79-3.79 5.95-5.39 0.91-0.67 3.19-1.77 5.01-1.68h31.64c-0.43-1.7-0.74-4.62-1.98-5.85-1.69-1.66-2.7-2.05-4.47-2.05h-36.72c-2.25 0-6.05 2.12-7.03 2.99-6.9 6.19-13.48 12.81-20.36 18.79-0.8 0.68-2.65 3.72-2.65 5 0 1.26 1.4 5.85 2.76 10.13 1.39 4.39 2.87 8.82 3.2 10.08 0.53 2.05 3.71 3.48 4.9 3.47h4.44l-4.43-15.55z"/>
		<path class="st2" d="m533.84 607.87c0-0.73-0.59-0.9-1.21-0.9h-1.47v3.39h0.47v-1.48h0.66l0.97 1.48h0.53l-1.01-1.53c0.61-0.02 1.06-0.3 1.06-0.96zm-1.31 0.6h-0.89v-1.1h0.9c0.36 0 0.82 0.04 0.82 0.49 0.01 0.33-0.15 0.61-0.83 0.61z"/>
		<path class="st2" d="m535.31 608.65c0-1.66-1.35-3.02-3.02-3.02-1.68 0-3.04 1.36-3.04 3.02 0 1.68 1.35 3.02 3.04 3.02 1.67 0 3.01-1.34 3.02-3.02zm-3.02 2.56c-1.41 0-2.54-1.14-2.54-2.56 0-1.39 1.13-2.53 2.54-2.53 1.4 0 2.53 1.14 2.53 2.53 0 1.42-1.12 2.56-2.53 2.56z"/>
	
	
		<radialGradient id="SVGID_1_" cx="574.97" cy="569.71" r="49.4" gradientUnits="userSpaceOnUse">
			<stop stop-color="#fff" offset="0"/>
			<stop stop-color="#00AEEF" offset="1"/>
		</radialGradient>
		<path class="st3" d="m561.2 675.21c1.71 3.81 4.03 7.08 6.95 9.81s6.35 4.83 10.28 6.28c3.93 1.46 8.19 2.19 12.76 2.19 5.2 0 9.83-0.98 13.9-2.95 4.06-1.97 7.55-4.63 10.47-8 2.92-3.36 5.14-7.24 6.66-11.61s2.29-8.98 2.29-13.8c0-4.95-0.86-9.52-2.57-13.71s-4.06-7.84-7.04-10.95-6.57-5.55-10.76-7.33-8.76-2.67-13.71-2.67c-6.09 0-11.74 1.37-16.95 4.09-5.21 2.73-9.46 6.63-12.76 11.71h-10.28l12.95-69.12h66.64v11.04h-58.26l-8.57 44.17 0.38 0.38c3.3-3.93 7.49-6.98 12.57-9.14s10.28-3.24 15.61-3.24c6.85 0 13.04 1.14 18.56 3.43s10.22 5.46 14.09 9.52 6.85 8.92 8.95 14.57c2.09 5.65 3.14 11.84 3.14 18.56 0 6.47-1.21 12.47-3.62 17.99s-5.71 10.28-9.9 14.28-9.11 7.11-14.76 9.33-11.65 3.33-17.99 3.33c-6.22 0-11.97-0.92-17.23-2.76-5.27-1.84-9.84-4.5-13.71-8-3.87-3.49-6.95-7.77-9.23-12.85s-3.49-10.79-3.62-17.14h12c0.12 4.59 1.05 8.78 2.76 12.59z"/>
	

<text transform="translate(-21.115 318.88)" font-family="'Gotham-Bold'" font-size="12px">DIGITAL</text>
<text transform="translate(-21.115 557.67)" font-family="'Gotham-Bold'" font-size="12px">PRINT</text>
</svg>
