<?xml version="1.0" encoding="UTF-8" standalone="no"?>
<svg
   xmlns:dc="http://purl.org/dc/elements/1.1/"
   xmlns:cc="http://creativecommons.org/ns#"
   xmlns:rdf="http://www.w3.org/1999/02/22-rdf-syntax-ns#"
   xmlns:svg="http://www.w3.org/2000/svg"
   xmlns="http://www.w3.org/2000/svg"
   xmlns:sodipodi="http://sodipodi.sourceforge.net/DTD/sodipodi-0.dtd"
   xmlns:inkscape="http://www.inkscape.org/namespaces/inkscape"
   inkscape:version="1.0 (4035a4fb49, 2020-05-01)"
   sodipodi:docname="substance-logo.svg"
   version="1.1"
   id="svg2"
   xml:space="preserve"
   width="459.86667"
   height="153.33333"
   viewBox="0 0 459.86667 153.33333"><sodipodi:namedview
     inkscape:current-layer="svg2"
     inkscape:window-maximized="1"
     inkscape:window-y="-8"
     inkscape:window-x="-8"
     inkscape:cy="263.39555"
     inkscape:cx="225.7501"
     inkscape:zoom="0.76131368"
     showgrid="false"
     id="namedview17"
     inkscape:window-height="1017"
     inkscape:window-width="1920"
     inkscape:pageshadow="2"
     inkscape:pageopacity="0"
     guidetolerance="10"
     gridtolerance="10"
     objecttolerance="10"
     borderopacity="1"
     bordercolor="#666666"
     pagecolor="#ffffff" /><metadata
     id="metadata8"><rdf:RDF><cc:Work
         rdf:about=""><dc:format>image/svg+xml</dc:format><dc:type
           rdf:resource="http://purl.org/dc/dcmitype/StillImage" /></cc:Work></rdf:RDF></metadata><defs
     id="defs6" /><g
     id="g10"
     transform="matrix(1.3333333,0,0,-1.3333333,-111.4,417.99999)"><g
       id="g12"
       transform="scale(0.1)"><path
         d="m 835.5,2848 500,287 500,-287 v -261 l -231,74 v 53 l -268,155 -198,-114 697,-222 v -261 l -500,-287 -500,287 v 261 l 232,-73 v -55 l 269,-154 201,115 -702,221 v 261"
         style="fill:#e22626;fill-opacity:1;fill-rule:nonzero;stroke:none"
         id="path14" /><path
         d="m 1990.5,2423 c -2,1 -3,4 -3,7 v 54 c 0,2 2,4 4,2 25,-16 55,-23 82,-23 34,0 48,12 48,28 0,14 -10,25 -41,38 l -23,9 c -57,24 -72,52 -72,87 0,49 37,88 109,88 28,0 54,-4 70,-12 2,-1 3,-3 3,-6 v -51 c 0,-2 -1,-4 -4,-2 -18,10 -43,15 -69,15 -35,0 -47,-12 -47,-27 0,-14 9,-23 43,-37 l 17,-7 c 60,-25 77,-53 77,-90 0,-55 -44,-89 -114,-89 -34,1 -62,7 -80,16"
         style="fill:#100f0d;fill-opacity:1;fill-rule:nonzero;stroke:none"
         id="path16" /><path
         d="m 2285.5,2530 c 0,-39 18,-66 59,-66 34,0 56,18 56,67 v 173 c 0,3 1,4 4,4 h 55 c 3,0 4,-1 4,-4 v -177 c 0,-85 -54,-119 -121,-119 -73,0 -120,38 -120,117 v 179 c 0,3 0,4 4,4 h 55 c 3,0 4,-1 4,-4 v -174"
         style="fill:#100f0d;fill-opacity:1;fill-rule:nonzero;stroke:none"
         id="path18" /><path
         d="m 2585.5,2465 c 9,0 19,-1 33,-1 39,0 62,12 62,38 0,15 -6,28 -28,34 -7,2 -17,3 -28,3 h -39 z m 0,127 h 31 c 15,0 33,-1 40,-2 8,7 14,16 14,31 0,23 -17,35 -51,35 -14,0 -23,0 -33,-1 v -63 z m -62,111 c 0,3 0,4 3,5 16,0 60,1 92,1 96,0 112,-49 112,-79 0,-31 -16,-49 -28,-57 17,-9 42,-28 42,-69 0,-55 -48,-92 -125,-92 -44,0 -76,0 -93,1 -2,0 -3,2 -3,4 v 286"
         style="fill:#100f0d;fill-opacity:1;fill-rule:nonzero;stroke:none"
         id="path20" /><path
         d="m 2784.5,2423 c -2,1 -3,4 -3,7 v 54 c 0,2 2,4 4,2 25,-16 55,-23 82,-23 34,0 48,12 48,28 0,14 -10,25 -41,38 l -23,9 c -56,24 -71,52 -71,87 0,49 37,88 109,88 28,0 54,-4 70,-12 2,-1 3,-3 3,-6 v -51 c 0,-2 -1,-4 -4,-2 -18,10 -43,15 -69,15 -35,0 -47,-12 -47,-27 0,-14 9,-23 43,-37 l 17,-7 c 60,-25 77,-53 77,-90 0,-55 -44,-89 -114,-89 -34,1 -62,7 -81,16"
         style="fill:#100f0d;fill-opacity:1;fill-rule:nonzero;stroke:none"
         id="path22" /><path
         d="m 3084.5,2651 h -89 c -3,0 -3,1 -3,4 l 6,48 c 0,3 1,4 5,4 h 226 c 3,0 5,-1 5,-4 l 5,-48 c 0,-3 -1,-5 -4,-5 h -88 v -235 c 0,-3 -2,-5 -4,-5 h -54 c -3,0 -5,1 -5,4 v 237"
         style="fill:#100f0d;fill-opacity:1;fill-rule:nonzero;stroke:none"
         id="path24" /><path
         d="m 3383.5,2539 c -9,30 -27,84 -36,116 v 0 c -7,-30 -23,-80 -35,-116 z m -88,-56 -22,-67 c -1,-2 -2,-4 -5,-4 h -52 c -3,0 -4,2 -4,5 l 90,260 c 2,5 4,10 5,28 0,2 1,3 3,3 h 72 c 2,0 3,0 4,-3 l 102,-289 c 1,-2 0,-4 -2,-4 h -59 c -3,0 -4,1 -5,3 l -23,67 h -104 v 1"
         style="fill:#100f0d;fill-opacity:1;fill-rule:nonzero;stroke:none"
         id="path26" /><path
         d="m 3526.5,2412 c -3,0 -4,0 -4,4 v 288 c 0,2 1,4 3,4 h 73 c 4,0 4,-1 6,-4 30,-56 91,-174 106,-207 v 0 c 0,13 -1,27 -1,71 v 136 c 0,3 1,4 4,4 h 51 c 3,0 4,-1 4,-5 v -287 c 0,-4 -1,-5 -5,-5 h -65 c -4,0 -5,1 -6,4 -25,50 -93,176 -112,225 v 0 c 2,-26 2,-44 2,-87 v -138 c 0,-3 -1,-4 -4,-4 h -52 v 1"
         style="fill:#100f0d;fill-opacity:1;fill-rule:nonzero;stroke:none"
         id="path28" /><path
         d="m 4038.5,2422 c 0,-3 -1,-5 -4,-6 -15,-5 -37,-8 -63,-8 -88,0 -156,52 -156,151 0,92 63,154 163,154 28,0 47,-2 59,-8 2,-1 3,-3 3,-5 v -50 c 0,-4 -2,-4 -4,-3 -15,7 -36,10 -59,10 -60,0 -97,-37 -97,-96 0,-70 51,-97 99,-97 22,0 39,2 55,7 2,1 4,0 4,-2 v -47"
         style="fill:#100f0d;fill-opacity:1;fill-rule:nonzero;stroke:none"
         id="path30" /><path
         d="m 4277.5,2416 c 0,-4 -1,-4 -5,-4 h -184 c -3,0 -4,1 -4,4 v 288 c 0,3 1,4 4,4 h 178 c 4,0 4,0 5,-4 l 5,-49 c 0,-2 0,-4 -3,-4 h -126 v -60 h 115 c 2,0 4,-1 4,-4 v -50 c 0,-3 -2,-3 -4,-3 h -115 v -66 h 133 c 4,0 4,-1 4,-4 l -7,-48"
         style="fill:#100f0d;fill-opacity:1;fill-rule:nonzero;stroke:none"
         id="path32" /></g></g></svg>
