<?xml version="1.0" encoding="UTF-8" standalone="no"?>
<svg
   xmlns:dc="http://purl.org/dc/elements/1.1/"
   xmlns:cc="http://creativecommons.org/ns#"
   xmlns:rdf="http://www.w3.org/1999/02/22-rdf-syntax-ns#"
   xmlns:svg="http://www.w3.org/2000/svg"
   xmlns="http://www.w3.org/2000/svg"
   viewBox="0 0 486.66666 122.36"
   height="122.36"
   width="486.66666"
   xml:space="preserve"
   id="svg2"
   version="1.1"><metadata
     id="metadata8"><rdf:RDF><cc:Work
         rdf:about=""><dc:format>image/svg+xml</dc:format><dc:type
           rdf:resource="http://purl.org/dc/dcmitype/StillImage" /></cc:Work></rdf:RDF></metadata><defs
     id="defs6" /><g
     transform="matrix(1.3333333,0,0,-1.3333333,0,122.36)"
     id="g10"><g
       transform="scale(0.1)"
       id="g12"><path
         id="path14"
         style="fill:#e6322d;fill-opacity:1;fill-rule:nonzero;stroke:none"
         d="m 1595.57,373.344 c 0,-14.602 2.09,-29.199 8.34,-43.801 4.18,-14.602 12.52,-25.027 22.95,-37.543 10.43,-10.43 20.85,-18.773 35.45,-25.027 14.6,-6.258 29.2,-10.43 45.89,-10.43 16.69,0 33.37,4.172 45.89,10.43 14.6,6.254 25.02,14.597 35.45,25.027 10.43,10.43 16.69,22.941 22.95,37.543 4.17,14.602 8.34,27.113 8.34,43.801 0,14.597 -2.09,29.199 -8.34,43.801 -4.18,14.597 -12.52,25.027 -22.95,35.457 -10.43,10.425 -20.85,18.769 -35.45,25.027 -14.6,6.258 -29.2,10.43 -45.89,10.43 -16.69,0 -33.37,-4.172 -45.89,-10.43 -14.6,-6.258 -25.02,-14.602 -35.45,-25.027 -10.43,-10.43 -16.69,-22.946 -22.95,-35.457 -6.25,-14.602 -8.34,-29.204 -8.34,-43.801 m -95.94,0 c 0,29.199 6.26,58.398 16.68,81.34 10.43,25.031 25.03,45.886 43.8,62.574 18.78,16.683 39.63,31.285 66.75,39.629 25.03,10.426 52.14,14.597 81.34,14.597 29.2,0 56.31,-4.171 81.34,-14.597 25.03,-10.43 47.97,-22.946 66.75,-39.629 18.77,-16.688 33.37,-37.543 43.8,-62.574 10.42,-25.028 16.68,-52.141 16.68,-81.34 0,-29.199 -6.26,-58.403 -16.68,-81.344 -10.43,-25.027 -25.03,-45.887 -43.8,-62.57 -18.78,-16.688 -39.63,-31.285 -66.75,-39.629 -25.03,-10.43 -52.14,-14.602 -81.34,-14.602 -29.2,0 -56.31,4.172 -81.34,14.602 -25.03,10.426 -47.97,22.941 -66.75,39.629 -18.77,16.683 -33.37,37.543 -43.8,62.57 -10.42,22.941 -16.68,50.059 -16.68,81.344" /><path
         id="path16"
         style="fill:#e6322d;fill-opacity:1;fill-rule:nonzero;stroke:none"
         d="m 2052.34,373.344 c 0,-14.602 2.09,-29.199 8.35,-43.801 4.17,-14.602 12.51,-25.027 22.94,-37.543 10.43,-10.43 20.86,-18.773 35.46,-25.027 14.6,-6.258 29.2,-10.43 45.88,-10.43 16.69,0 33.37,4.172 45.89,10.43 12.51,6.254 25.03,14.597 35.45,25.027 10.43,10.43 16.69,22.941 22.95,37.543 4.17,14.602 8.34,27.113 8.34,43.801 0,14.597 -2.09,29.199 -8.34,43.801 -4.17,14.597 -12.52,25.027 -22.95,35.457 -10.42,10.425 -20.85,18.769 -35.45,25.027 -14.6,6.258 -29.2,10.43 -45.89,10.43 -16.68,0 -33.37,-4.172 -45.88,-10.43 -14.6,-6.258 -25.03,-14.602 -35.46,-25.027 -10.43,-10.43 -16.69,-22.946 -22.94,-35.457 -4.18,-16.688 -8.35,-29.204 -8.35,-43.801 M 2277.6,239.855 c -14.6,-22.941 -33.37,-39.628 -56.31,-50.054 -22.95,-10.43 -47.98,-16.688 -75.09,-16.688 -29.2,0 -56.31,4.172 -79.26,14.602 -22.94,10.43 -41.71,25.027 -58.4,41.715 -16.68,18.769 -29.2,39.629 -37.54,62.57 -8.34,25.027 -12.51,50.059 -12.51,79.258 0,27.113 4.17,54.226 12.51,79.258 8.34,25.027 20.86,45.882 37.54,62.57 16.69,18.769 35.46,31.285 58.4,41.715 22.95,10.426 47.97,14.597 75.09,14.597 18.77,0 33.37,-2.085 47.97,-6.253 14.6,-4.172 25.03,-8.344 35.46,-14.602 10.43,-6.258 18.77,-12.516 27.11,-18.773 8.34,-6.254 12.52,-12.512 18.77,-18.77 h 2.09 v 212.742 c 0,10.43 8.34,20.86 20.86,20.86 h 54.22 c 12.52,0 20.86,-10.43 20.86,-20.86 V 202.313 c 0,-12.512 -10.43,-20.856 -20.86,-20.856 h -47.97 c -12.51,0 -20.85,10.43 -20.85,20.856 v 37.542 h -2.09" /><path
         id="path18"
         style="fill:#e6322d;fill-opacity:1;fill-rule:nonzero;stroke:none"
         d="m 2527.89,373.344 c 0,-14.602 2.08,-29.199 8.34,-43.801 4.17,-14.602 12.51,-25.027 22.94,-37.543 10.43,-10.43 20.86,-18.773 35.46,-25.027 14.6,-6.258 29.2,-10.43 45.88,-10.43 16.69,0 33.38,4.172 45.89,10.43 12.51,6.254 25.03,14.597 35.46,25.027 10.43,10.43 16.68,22.941 22.94,37.543 4.17,14.602 8.34,27.113 8.34,43.801 0,14.597 -2.08,29.199 -8.34,43.801 -4.17,14.597 -12.51,25.027 -22.94,35.457 -10.43,10.425 -20.86,18.769 -35.46,25.027 -14.6,6.258 -29.2,10.43 -45.89,10.43 -16.68,0 -33.37,-4.172 -45.88,-10.43 -14.6,-6.258 -25.03,-14.602 -35.46,-25.027 -10.43,-10.43 -16.68,-22.946 -22.94,-35.457 -6.26,-14.602 -8.34,-29.204 -8.34,-43.801 m -95.95,0 c 0,29.199 6.26,58.398 16.69,81.34 10.43,25.031 25.03,45.886 43.8,62.574 18.77,16.683 39.63,31.285 66.74,39.629 25.03,10.426 52.14,14.597 81.34,14.597 29.2,0 56.32,-4.171 81.35,-14.597 25.03,-10.43 47.97,-22.946 66.74,-39.629 18.77,-16.688 33.37,-37.543 43.8,-62.574 10.43,-25.028 16.69,-52.141 16.69,-81.34 0,-29.199 -6.26,-58.403 -16.69,-81.344 -10.43,-25.027 -25.03,-45.887 -43.8,-62.57 -18.77,-16.688 -39.63,-31.285 -66.74,-39.629 -25.03,-10.43 -52.15,-14.602 -81.35,-14.602 -29.2,0 -56.31,4.172 -81.34,14.602 -25.03,10.426 -47.97,22.941 -66.74,39.629 -18.77,16.683 -33.37,37.543 -43.8,62.57 -10.43,22.941 -16.69,50.059 -16.69,81.344" /><path
         id="path20"
         style="fill:#e6322d;fill-opacity:1;fill-rule:nonzero;stroke:none"
         d="m 2892.89,692.457 c 0,14.602 6.25,29.199 16.68,39.629 10.43,10.43 25.03,16.684 43.8,16.684 16.69,0 31.29,-6.254 43.8,-16.684 12.52,-10.43 18.77,-25.027 18.77,-41.715 0,-16.687 -6.25,-29.199 -18.77,-41.715 -12.51,-10.429 -27.11,-16.683 -43.8,-16.683 -16.68,0 -31.28,6.254 -43.8,16.683 -10.43,14.602 -16.68,27.114 -16.68,43.801" /><path
         id="path22"
         style="fill:#e6322d;fill-opacity:1;fill-rule:nonzero;stroke:none"
         d="m 3287.09,456.77 c -10.43,0 -16.69,6.257 -16.69,10.429 -8.34,20.86 -33.37,29.199 -54.23,29.199 -31.28,0 -56.31,-14.597 -56.31,-39.628 0,-25.028 25.03,-29.2 39.63,-33.372 16.68,-4.171 47.97,-12.511 64.65,-16.683 16.69,-4.172 33.37,-10.43 50.06,-18.774 50.06,-27.113 58.4,-66.742 58.4,-91.769 0,-91.774 -91.77,-123.059 -154.34,-123.059 -47.97,0 -139.75,8.344 -160.6,100.114 -2.09,8.343 6.25,22.945 20.85,22.945 h 52.15 c 10.43,0 16.68,-8.344 18.77,-12.516 6.26,-18.769 29.2,-33.371 64.66,-33.371 39.62,0 62.57,14.602 62.57,35.457 0,12.516 -8.35,25.028 -16.69,31.285 -29.2,20.86 -102.2,22.946 -141.83,43.801 -14.6,8.344 -52.14,27.113 -52.14,89.688 0,85.511 79.26,123.054 148.09,123.054 102.2,0 139.74,-64.656 143.91,-87.597 2.09,-12.516 -4.17,-27.118 -20.86,-27.118 h -50.05 v -2.085" /><path
         id="path24"
         style="fill:#e6322d;fill-opacity:1;fill-rule:nonzero;stroke:none"
         d="m 3378.86,504.742 v 39.629 c 0,10.43 8.34,20.856 20.85,20.856 h 50.06 v 95.945 c 0,10.43 6.26,16.683 12.52,18.769 4.17,2.086 31.28,14.602 54.22,22.946 16.69,6.258 29.2,-6.258 29.2,-18.774 V 563.145 h 83.43 c 12.52,0 20.86,-10.43 20.86,-20.86 v -39.629 c 0,-10.429 -10.43,-20.855 -20.86,-20.855 h -83.43 v -166.86 c 0,-18.769 0,-33.371 6.26,-45.882 6.26,-10.43 16.69,-14.602 35.46,-14.602 6.26,0 10.43,0 14.6,2.086 12.51,4.172 20.86,-2.086 25.03,-8.344 6.25,-12.515 12.51,-25.027 18.77,-35.457 6.26,-10.429 2.08,-22.941 -8.34,-29.199 -16.69,-8.344 -37.55,-14.602 -68.83,-14.602 -25.03,0 -39.63,2.086 -56.32,8.344 -16.68,6.258 -31.28,16.688 -39.63,29.199 -8.34,10.43 -14.6,27.118 -16.68,43.801 -4.17,16.688 -4.17,37.543 -4.17,60.485 v 168.945 h -50.06 c -16.69,4.172 -22.94,14.598 -22.94,25.027" /><path
         id="path26"
         style="fill:#e6322d;fill-opacity:1;fill-rule:nonzero;stroke:none"
         d="m 1201.37,504.742 v 39.629 c 0,10.43 8.34,20.856 20.86,20.856 h 58.4 v 95.945 c 0,10.43 6.26,16.683 12.51,18.769 4.17,2.086 31.29,14.602 54.23,22.946 16.69,6.258 29.2,-6.258 29.2,-18.774 V 563.145 H 1460 c 12.51,0 20.86,-10.43 20.86,-20.86 v -39.629 c 0,-10.429 -10.43,-20.855 -20.86,-20.855 h -83.43 v -166.86 c 0,-18.769 0,-33.371 6.26,-45.882 6.26,-10.43 16.68,-14.602 35.46,-14.602 6.25,0 10.42,0 14.6,2.086 12.51,4.172 20.85,-2.086 25.02,-8.344 6.26,-12.515 12.52,-25.027 18.78,-35.457 6.25,-10.429 2.08,-22.941 -8.35,-29.199 -16.68,-8.344 -37.54,-14.602 -68.83,-14.602 -25.02,0 -39.62,2.086 -56.31,8.344 -16.69,6.258 -31.29,16.688 -39.63,29.199 -8.34,10.43 -14.6,27.118 -16.68,43.801 -4.18,16.688 -4.18,37.543 -4.18,60.485 v 168.945 h -58.4 c -16.68,4.172 -22.94,14.598 -22.94,25.027" /><path
         id="path28"
         style="fill:#e6322d;fill-opacity:1;fill-rule:nonzero;stroke:none"
         d="m 2926.26,181.457 h 54.23 c 10.42,0 20.85,8.344 20.85,20.856 v 342.058 c 0,10.43 -8.34,20.856 -20.85,20.856 h -54.23 c -10.43,0 -20.86,-8.34 -20.86,-20.856 V 202.313 c 2.09,-10.426 10.43,-20.856 20.86,-20.856" /><path
         id="path30"
         style="fill:#e6322d;fill-opacity:1;fill-rule:nonzero;stroke:none"
         d="M 803,917.715 H 114.715 C 52.1445,917.715 0,865.57 0,803 V 114.715 C 0,52.1445 52.1445,0 114.715,0 H 803 c 62.57,0 114.715,52.1445 114.715,114.715 V 803 c 0,62.57 -50.059,114.715 -114.715,114.715" /><path
         id="path32"
         style="fill:#ffffff;fill-opacity:1;fill-rule:nonzero;stroke:none"
         d="m 196.059,488.059 c 16.683,8.339 362.914,208.57 371.254,212.742 8.343,4.172 8.343,18.769 0,22.941 -8.34,4.172 -25.028,14.602 -31.286,18.774 -6.257,4.172 -18.769,6.254 -29.199,0 -4.172,-2.086 -300.344,-173.118 -310.769,-179.371 -12.516,-6.258 -27.118,-6.258 -37.543,0 -8.344,6.253 -156.43006,91.769 -156.43006,91.769 V 577.742 C 39.6289,554.801 135.57,500.57 158.516,488.059 c 12.511,-8.344 25.027,-8.344 37.543,0" /><path
         id="path34"
         style="fill:#ffffff;fill-opacity:1;fill-rule:nonzero;stroke:none"
         d="m 196.059,333.715 c 16.683,8.344 362.914,208.57 371.254,212.742 8.343,4.172 8.343,18.77 0,22.941 -8.34,4.172 -25.028,14.602 -31.286,18.774 -6.257,4.172 -18.769,6.258 -29.199,0 -4.172,-2.086 -300.344,-173.113 -310.769,-179.371 -12.516,-6.258 -27.118,-6.258 -37.543,0 C 148.086,415.059 0,500.57 0,500.57 v -77.172 c 37.543,-22.941 133.484,-77.171 156.43,-89.683 14.597,-8.344 27.113,-8.344 39.629,0" /><path
         id="path36"
         style="fill:#ffffff;fill-opacity:1;fill-rule:nonzero;stroke:none"
         d="m 196.059,179.371 c 16.683,8.344 362.914,208.57 371.254,212.742 8.343,4.172 8.343,18.774 0,22.946 -8.34,4.168 -25.028,14.597 -31.286,18.769 -6.257,4.172 -18.769,6.258 -29.199,0 -4.172,-2.086 -300.344,-173.113 -310.769,-179.371 -12.516,-6.258 -27.118,-6.258 -37.543,0 -8.344,6.258 -156.43006,91.77 -156.43006,91.77 V 269.059 C 39.6289,246.113 135.57,191.887 158.516,179.371 c 12.511,-8.344 25.027,-8.344 37.543,0" /></g></g></svg>