<?xml version="1.0" encoding="UTF-8"?>
<svg width="863.81" height="125.1" version="1.1" viewBox="0 0 863.81 125.1" xml:space="preserve" xmlns="http://www.w3.org/2000/svg" xmlns:cc="http://creativecommons.org/ns#" xmlns:dc="http://purl.org/dc/elements/1.1/" xmlns:rdf="http://www.w3.org/1999/02/22-rdf-syntax-ns#"><metadata><rdf:RDF><cc:Work rdf:about=""><dc:format>image/svg+xml</dc:format><dc:type rdf:resource="http://purl.org/dc/dcmitype/StillImage"/><dc:title/></cc:Work></rdf:RDF></metadata><defs><clipPath id="clipPath1673"><path d="m28.972 40.776c-3.686-4.222-2.987-7.708-2.987-7.708s1.017 2.399 3.464 4.925c1.158 1.198 2.025 1.597 2.616 1.599 0.657 2e-3 0.975-0.49 0.975-0.927v-8.572c0-0.845-0.546-1.029-1.049-1.02-0.429 8e-3 -0.827 0.157-0.827 0.157 2.511-3.646 8.517-4.158 8.517-4.158l2.638 2.815 0.062-0.054 2.417-2.057c4.417 2.623 6.546 7.484 6.546 7.484-1.971-2.085-3.227-2.571-3.972-2.566-0.662 2e-3 -0.922 0.391-0.922 0.391-0.036 0.18-0.097 2.788-0.119 5.397-0.022 2.704-3e-3 5.409 0.132 5.417 0.764 1.43 3.197 4.314 3.197 4.314-4.545-0.895-7.023-3.87-7.023-3.87-0.731 0.576-2.225 0.48-2.225 0.48 0.699-0.384 1.398-1.503 1.398-2.431v-9.115s-1.525-1.343-2.701-1.343c-0.695 0-1.124 0.38-1.358 0.691-0.162 0.215-0.231 0.396-0.231 0.396v11.258c-0.144-0.104-0.349-0.19-0.56-0.19-0.25 1e-3 -0.508 0.126-0.684 0.494-0.132 0.278-0.217 0.692-0.217 1.296 0 2.078 2.351 3.454 2.351 3.454-2.987-0.8-5.752-2.335-9.438-6.557"/></clipPath><clipPath id="clipPath1683"><path d="m21.007 36.104c0-10.227 8.247-18.518 18.419-18.518s18.419 8.291 18.419 18.518-8.247 18.517-18.419 18.517-18.419-8.29-18.419-18.517m5.968-12.518c-3.326 3.344-5.157 7.789-5.157 12.518 0 4.728 1.831 9.174 5.157 12.518 3.325 3.343 7.748 5.185 12.451 5.185s9.125-1.842 12.451-5.185c3.325-3.344 5.157-7.79 5.157-12.518 0-4.729-1.832-9.174-5.157-12.518-3.326-3.343-7.748-5.185-12.451-5.185s-9.126 1.842-12.451 5.185"/></clipPath><clipPath id="clipPath1693"><path d="m79.438 42.199v-7.029c0-0.427-0.016-0.799-0.045-1.114-0.031-0.315-0.093-0.581-0.188-0.798-0.093-0.218-0.228-0.395-0.404-0.533s-0.409-0.243-0.7-0.316c-0.291-0.074-0.649-0.124-1.073-0.152-0.424-0.027-0.931-0.041-1.519-0.041h-0.318c-0.588 0-1.094 0.012-1.519 0.036-0.425 0.025-0.782 0.076-1.073 0.152-0.29 0.077-0.524 0.182-0.7 0.316-0.175 0.135-0.31 0.313-0.405 0.533-0.093 0.22-0.155 0.486-0.186 0.798s-0.045 0.685-0.045 1.119v7.029h-3.766v-8.249c0-0.636 0.046-1.193 0.137-1.67s0.248-0.888 0.468-1.234c0.222-0.345 0.518-0.633 0.892-0.863 0.373-0.228 0.842-0.411 1.409-0.545 0.567-0.135 1.242-0.23 2.024-0.284 0.782-0.055 1.691-0.083 2.727-0.083h0.392c1.048 0 1.966 0.028 2.755 0.083 0.788 0.054 1.466 0.149 2.032 0.284 0.567 0.134 1.035 0.317 1.405 0.545 0.37 0.23 0.664 0.518 0.883 0.863 0.218 0.346 0.369 0.759 0.454 1.239 0.085 0.479 0.127 1.035 0.127 1.665v8.249z"/></clipPath><clipPath id="clipPath1707"><path d="m105.17 42.199v-12.782h3.728v3.552h3.765c0.582 0 1.083-0.011 1.505-0.033 0.421-0.021 0.776-0.063 1.064-0.124s0.519-0.148 0.696-0.261c0.175-0.113 0.312-0.263 0.409-0.45 0.097-0.186 0.161-0.414 0.19-0.683 0.031-0.27 0.046-0.59 0.046-0.964v-1.037h3.72v1.955c0 0.563-0.031 1.024-0.091 1.385-0.061 0.361-0.173 0.654-0.337 0.877s-0.389 0.391-0.677 0.504-0.656 0.207-1.105 0.281v0.073c0.406 0.091 0.748 0.225 1.027 0.403s0.507 0.402 0.682 0.675c0.176 0.272 0.304 0.596 0.382 0.972 0.079 0.376 0.119 0.815 0.119 1.317v0.45c0 0.734-0.075 1.35-0.223 1.848-0.149 0.499-0.417 0.899-0.805 1.202s-0.919 0.519-1.591 0.647c-0.673 0.128-1.531 0.193-2.574 0.193zm3.728-2.826h4.693c0.642 0 1.156-0.02 1.541-0.06s0.679-0.119 0.882-0.239c0.203-0.118 0.335-0.29 0.395-0.513 0.061-0.224 0.091-0.515 0.091-0.876v-0.221c0-0.367-0.03-0.662-0.091-0.885-0.06-0.224-0.191-0.398-0.39-0.523-0.201-0.125-0.493-0.208-0.878-0.248-0.385-0.039-0.902-0.059-1.55-0.059h-4.693z"/></clipPath><clipPath id="clipPath1737"><path d="m224.69 42.458c-1.212 0-2.261-0.028-3.149-0.085-0.889-0.057-1.643-0.168-2.264-0.335s-1.126-0.399-1.514-0.698c-0.389-0.299-0.691-0.691-0.909-1.175-0.217-0.484-0.364-1.074-0.442-1.769s-0.117-1.518-0.117-2.467v-0.387c0-0.944 0.038-1.761 0.113-2.449 0.074-0.689 0.219-1.275 0.433-1.76s0.515-0.877 0.903-1.179 0.893-0.538 1.514-0.708 1.376-0.284 2.265-0.344c0.887-0.06 1.943-0.09 3.167-0.09h0.586c1.037 0 1.946 0.028 2.726 0.085 0.779 0.056 1.448 0.152 2.007 0.287 0.559 0.136 1.02 0.318 1.383 0.548 0.364 0.23 0.652 0.519 0.867 0.868s0.363 0.765 0.447 1.245c0.085 0.482 0.126 1.04 0.126 1.675v2.944h-8.757v-2.557h5.059v-0.368c0-0.233-0.016-0.435-0.047-0.608-0.03-0.174-0.094-0.324-0.191-0.454-0.096-0.128-0.232-0.236-0.409-0.32-0.178-0.085-0.413-0.151-0.708-0.198-0.295-0.048-0.658-0.082-1.089-0.104s-0.944-0.033-1.54-0.033h-0.325c-0.733 0-1.358 0.013-1.876 0.038-0.517 0.025-0.948 0.08-1.293 0.165s-0.618 0.206-0.819 0.363c-0.202 0.158-0.353 0.369-0.452 0.637s-0.163 0.596-0.191 0.986-0.041 0.858-0.041 1.406v0.236c0 0.559 0.013 1.04 0.041 1.439s0.092 0.734 0.191 1.005c0.099 0.27 0.25 0.484 0.452 0.642 0.201 0.156 0.474 0.278 0.819 0.363 0.344 0.085 0.775 0.14 1.293 0.165s1.143 0.038 1.876 0.038h0.325c0.807 0 1.457-0.026 1.95-0.076s0.876-0.137 1.149-0.259c0.273-0.124 0.456-0.287 0.549-0.492 0.094-0.204 0.14-0.457 0.14-0.758v-0.161h3.745v0.51c0 0.579-0.04 1.084-0.121 1.518-0.081 0.435-0.225 0.807-0.434 1.119-0.208 0.311-0.49 0.567-0.848 0.768-0.356 0.202-0.81 0.361-1.359 0.478-0.55 0.116-1.207 0.196-1.971 0.24s-1.655 0.066-2.674 0.066z"/></clipPath></defs><g transform="matrix(3.3778 0 0 -3.3778 -70.957 184.5)"><g clip-path="url(#clipPath1673)"><path d="m24.947 48.318h27.382v-24.23h-27.382z" fill="#2e2e2c"/></g><g clip-path="url(#clipPath1683)"><path d="m20.022 55.606h38.808v-39.005h-38.808z" fill="#2e2e2c"/></g><g clip-path="url(#clipPath1693)"><path d="m66.513 43.184h17.675v-14.898h-17.675z" fill="#2e2e2c"/></g><g transform="translate(98.879,42.199)"><path d="m0 0v-9.571h-0.072l-7.321 9.571h-5.719v-12.782h3.692v9.561h0.073l7.41-9.561h5.63v12.782z" fill="#2e2e2c"/></g><g clip-path="url(#clipPath1707)"><path d="m104.19 43.184h17.093v-14.751h-17.093z" fill="#2e2e2c"/></g><g transform="translate(122.75,42.199)"><path d="m0 0v-12.782h13.913v2.909h-10.184v2.202h9.438v2.67h-9.438v2.175h9.966v2.826z" fill="#2e2e2c"/></g><g transform="translate(144.36,42.199)"><path d="m0 0-6.875-12.782h4.028l1.156 2.294h7.984l1.173-2.294h4.065l-6.911 12.782zm2.237-2.688h0.091l2.61-5.129h-5.293z" fill="#2e2e2c"/></g><g transform="translate(157.26,42.199)"><path d="m0 0v-12.782h12.331v2.973h-8.566v9.809z" fill="#2e2e2c"/></g><g transform="translate(179.56,42.458)"><path d="m0 0v-13.174h14.368v2.998h-10.518v2.27h9.747v2.752h-9.747v2.242h10.292v2.912z" fill="#2e2e2c"/></g><g transform="translate(209.64,42.458)"><path d="m0 0v-9.864h-0.076l-7.557 9.864h-5.906v-13.174h3.813v9.855h0.074l7.652-9.855h5.811v13.174z" fill="#2e2e2c"/></g><g clip-path="url(#clipPath1737)"><path d="m215.31 43.443h18.506v-15.416h-18.506z" fill="#2e2e2c"/></g><g transform="translate(255.61,42.187)"><path d="m0 0v-9.763h-0.075l-7.499 9.763h-5.858v-13.039h3.781v9.753h0.075l7.592-9.753h5.766v13.039z" fill="#2e2e2c"/></g><g transform="translate(262.51,42.187)"><path d="m0 0v-13.039h14.232v2.967h-10.418v2.246h9.655v2.725h-9.655v2.217h10.194v2.884z" fill="#2e2e2c"/></g><path d="m235.4 29.147h3.931v13.039h-3.931z" fill="#2e2e2c"/></g></svg>
