<?xml version="1.0" encoding="UTF-8" standalone="no"?>
<svg
   xmlns:dc="http://purl.org/dc/elements/1.1/"
   xmlns:cc="http://creativecommons.org/ns#"
   xmlns:rdf="http://www.w3.org/1999/02/22-rdf-syntax-ns#"
   xmlns:svg="http://www.w3.org/2000/svg"
   xmlns="http://www.w3.org/2000/svg"
   xmlns:sodipodi="http://sodipodi.sourceforge.net/DTD/sodipodi-0.dtd"
   xmlns:inkscape="http://www.inkscape.org/namespaces/inkscape"
   inkscape:version="1.0 (4035a4fb49, 2020-05-01)"
   sodipodi:docname="github-logo.svg"
   id="svg42"
   viewBox="0 0 113.21606 30.762447"
   version="1.1"
   height="30.762447mm"
   width="113.21606mm">
  <defs
     id="defs46" />
  <sodipodi:namedview
     inkscape:current-layer="svg42"
     inkscape:window-maximized="1"
     inkscape:window-y="-8"
     inkscape:window-x="-8"
     inkscape:cy="59.417406"
     inkscape:cx="222.11993"
     inkscape:zoom="1.7218791"
     showgrid="false"
     id="namedview44"
     inkscape:window-height="1017"
     inkscape:window-width="1920"
     inkscape:pageshadow="2"
     inkscape:pageopacity="0"
     guidetolerance="10"
     gridtolerance="10"
     objecttolerance="10"
     borderopacity="1"
     bordercolor="#666666"
     pagecolor="#ffffff" />
  <metadata
     id="metadata2">
    <rdf:RDF>
      <cc:Work
         rdf:about="">
        <dc:format>image/svg+xml</dc:format>
        <dc:type
           rdf:resource="http://purl.org/dc/dcmitype/StillImage" />
        <dc:title />
      </cc:Work>
    </rdf:RDF>
  </metadata>
  <g
     style="fill:#ffffff;fill-opacity:1"
     id="g40"
     transform="matrix(0.6082185,0,0,0.6082185,-8.3903677,-74.710532)">
    <g
       style="fill:#ffffff;fill-opacity:1"
       id="g18"
       fill="#0f0e0f">
      <path
         style="fill:#ffffff;fill-opacity:1"
         id="path4"
         d="M 89.505,145.27 H 78.827 c -0.27552,0 -0.49918,0.22366 -0.49918,0.49918 v 5.2204 c 0,0.27552 0.22366,0.49954 0.49918,0.49954 h 4.1652 v 6.4862 c 0,0 -0.93522,0.31856 -3.5211,0.31856 -3.0505,0 -7.312,-1.1144 -7.312,-10.486 0,-9.373 4.4376,-10.606 8.6035,-10.606 3.6061,0 5.1597,0.635 6.1482,0.94086 0.3108,0.0949 0.59796,-0.21414 0.59796,-0.48966 l 1.1913,-5.044 c 0,-0.12912 -0.0438,-0.28434 -0.1905,-0.38982 -0.40146,-0.28646 -2.8508,-1.657 -9.0385,-1.657 -7.1279,0 -14.44,3.0328 -14.44,17.611 0,14.579 8.3714,16.751 15.426,16.751 5.8409,0 9.3842,-2.4959 9.3842,-2.4959 0.14605,-0.0804 0.16192,-0.28469 0.16192,-0.37818 v -16.282 c 0,-0.27552 -0.22331,-0.49918 -0.49882,-0.49918" />
      <path
         style="fill:#ffffff;fill-opacity:1"
         id="path6"
         d="m 144.53,132.31 c 0,-0.27764 -0.22013,-0.50201 -0.49565,-0.50201 h -6.012 c -0.27481,0 -0.49777,0.22437 -0.49777,0.50201 0,0.001 0.001,11.619 0.001,11.619 h -9.3711 V 132.31 c 0,-0.27764 -0.2212,-0.50201 -0.49636,-0.50201 h -6.0117 c -0.2734,0 -0.49636,0.22437 -0.49636,0.50201 v 31.46 c 0,0.27729 0.22296,0.50306 0.49636,0.50306 h 6.0117 c 0.27516,0 0.49636,-0.22577 0.49636,-0.50306 v -13.457 h 9.3712 c 0,0 -0.0162,13.456 -0.0162,13.457 0,0.27729 0.22261,0.50306 0.49813,0.50306 h 6.0261 c 0.27517,0 0.4953,-0.22577 0.49601,-0.50306 z" />
      <path
         style="fill:#ffffff;fill-opacity:1"
         id="path8"
         d="m 100.85,136.44 c 0,-2.1646 -1.7357,-3.9141 -3.877,-3.9141 -2.1392,0 -3.876,1.7494 -3.876,3.9141 0,2.1625 1.7367,3.9169 3.876,3.9169 2.1414,0 3.877,-1.7544 3.877,-3.9169" />
      <path
         style="fill:#ffffff;fill-opacity:1"
         id="path10"
         d="m 100.42,157.13 v -14.522 c 0,-0.27552 -0.22225,-0.50094 -0.49742,-0.50094 h -5.993 c -0.27517,0 -0.52105,0.28328 -0.52105,0.55915 v 20.806 c 0,0.61102 0.381,0.79305 0.87418,0.79305 h 5.3996 c 0.59231,0 0.73766,-0.29104 0.73766,-0.80292 z" />
      <path
         style="fill:#ffffff;fill-opacity:1"
         id="path12"
         d="m 167.38,142.16 h -5.9658 c -0.27376,0 -0.49636,0.22542 -0.49636,0.50306 v 15.426 c 0,0 -1.5159,1.1091 -3.6671,1.1091 -2.1512,0 -2.722,-0.97614 -2.722,-3.0826 v -13.452 c 0,-0.27764 -0.22225,-0.50306 -0.496,-0.50306 h -6.0551 c -0.27305,0 -0.49707,0.22542 -0.49707,0.50306 v 14.471 c 0,6.2565 3.4869,7.7872 8.2836,7.7872 3.9356,0 7.1085,-2.1742 7.1085,-2.1742 0,0 0.15064,1.1458 0.21943,1.2816 0.0681,0.13546 0.24624,0.27234 0.43885,0.27234 l 3.852,-0.0169 c 0.27305,0 0.49707,-0.22577 0.49707,-0.50235 l -0.002,-21.118 c 0,-0.27763 -0.22295,-0.50306 -0.49777,-0.50306" />
      <path
         style="fill:#ffffff;fill-opacity:1"
         id="path14"
         d="m 181.33,159.18 c -2.0694,-0.0632 -3.4731,-1.0019 -3.4731,-1.0019 v -9.9628 c 0,0 1.3846,-0.84879 3.0836,-1.0005 2.1484,-0.19226 4.2185,0.45649 4.2185,5.5816 0,5.4042 -0.93416,6.471 -3.829,6.3835 m 2.353,-17.725 c -3.3884,0 -5.6931,1.512 -5.6931,1.512 v -10.653 c 0,-0.27764 -0.22225,-0.50201 -0.49601,-0.50201 h -6.0293 c -0.27411,0 -0.49671,0.22437 -0.49671,0.50201 v 31.46 c 0,0.27764 0.2226,0.50342 0.49741,0.50342 h 4.1832 c 0.18839,0 0.33091,-0.0974 0.43639,-0.26741 0.10407,-0.16898 0.254,-1.4503 0.254,-1.4503 0,0 2.4652,2.3361 7.1321,2.3361 5.4793,0 8.6215,-2.7792 8.6215,-12.476 0,-9.6972 -5.0186,-10.964 -8.4095,-10.964" />
      <path
         style="fill:#ffffff;fill-opacity:1"
         id="path16"
         d="m 117.7,142.11 h -4.5099 c 0,0 -0.007,-5.9567 -0.007,-5.9581 0,-0.22542 -0.11606,-0.33831 -0.37712,-0.33831 h -6.1454 c -0.23883,0 -0.36724,0.10548 -0.36724,0.33514 v 6.1567 c 0,0 -3.0798,0.74331 -3.2879,0.80363 -0.20743,0.06 -0.36018,0.25118 -0.36018,0.47943 v 3.8689 c 0,0.27799 0.22225,0.50271 0.49706,0.50271 h 3.151 v 9.3077 c 0,6.913 4.8493,7.5921 8.1213,7.5921 1.4954,0 3.284,-0.48013 3.5793,-0.58914 0.17851,-0.0656 0.28257,-0.25047 0.28257,-0.45085 l 0.005,-4.2563 c 0,-0.27764 -0.2346,-0.50236 -0.49847,-0.50236 -0.26282,0 -0.93522,0.10689 -1.6274,0.10689 -2.2151,0 -2.9658,-1.0298 -2.9658,-2.3629 0,-1.3324 -2.6e-4,-8.8452 -2.6e-4,-8.8452 h 4.5103 c 0.27482,0 0.49777,-0.22472 0.49777,-0.50271 v -4.8461 c 0,-0.27763 -0.22295,-0.50129 -0.49777,-0.50129" />
    </g>
    <g
       style="fill:#ffffff;fill-opacity:1"
       id="g38"
       fill="#1b1817">
      <path
         style="fill:#ffffff;fill-opacity:1"
         id="path20"
         fill-rule="evenodd"
         d="m 41.769,130.41 c -9.733,0 -17.625,7.8907 -17.625,17.625 0,7.7871 5.0502,14.394 12.053,16.724 0.88086,0.16316 1.2043,-0.38235 1.2043,-0.84788 0,-0.42001 -0.01638,-1.8087 -0.02391,-3.2815 -4.9034,1.0662 -5.9381,-2.0796 -5.9381,-2.0796 -0.80177,-2.037 -1.957,-2.579 -1.957,-2.579 -1.5992,-1.0939 0.12054,-1.0714 0.12054,-1.0714 1.7699,0.12433 2.7018,1.8166 2.7018,1.8166 1.572,2.6942 4.1233,1.9153 5.129,1.4649 0.15849,-1.1389 0.61497,-1.9167 1.119,-2.3568 -3.9149,-0.44539 -8.0302,-1.957 -8.0302,-8.7106 0,-1.924 0.68852,-3.4966 1.816,-4.7309 -0.183,-0.44394 -0.7863,-2.2366 0.17103,-4.6644 0,0 1.4801,-0.47342 4.848,1.807 1.4059,-0.39053 2.9137,-0.58638 4.4116,-0.59337 1.4979,0.006 3.0068,0.20284 4.4154,0.59337 3.3641,-2.2804 4.8421,-1.807 4.8421,-1.807 0.95938,2.4278 0.35607,4.2204 0.17307,4.6644 1.1301,1.2343 1.8137,2.8069 1.8137,4.7309 0,6.7699 -4.1233,8.2602 -8.048,8.6966 0.63219,0.54697 1.1955,1.6196 1.1955,3.264 0,2.3583 -0.0201,4.2564 -0.0201,4.8369 0,0.46932 0.31697,1.0186 1.2104,0.84584 6.9996,-2.3332 12.043,-8.9376 12.043,-16.722 0,-9.7348 -7.8913,-17.625 -17.625,-17.625" />
      <g
         style="fill:#ffffff;fill-opacity:1"
         id="g36">
        <path
           style="fill:#ffffff;fill-opacity:1"
           id="path22"
           d="m 30.819,155.71 c -0.03882,0.0878 -0.17658,0.11411 -0.30209,0.054 -0.12813,-0.0579 -0.19964,-0.17717 -0.15819,-0.26501 0.03795,-0.0899 0.17571,-0.115 0.30355,-0.0549 0.12784,0.0575 0.2008,0.17805 0.15673,0.26592" />
        <path
           style="fill:#ffffff;fill-opacity:1"
           id="path24"
           d="m 31.533,156.51 c -0.08406,0.0779 -0.24868,0.0418 -0.35988,-0.0814 -0.11558,-0.12288 -0.13689,-0.2875 -0.05166,-0.3663 0.08669,-0.078 0.24605,-0.0415 0.36134,0.0814 0.11558,0.12433 0.13806,0.28719 0.0502,0.36629" />
        <path
           style="fill:#ffffff;fill-opacity:1"
           id="path26"
           d="m 32.228,157.52 c -0.10799,0.0752 -0.28487,0.004 -0.39402,-0.15177 -0.10799,-0.15703 -0.10799,-0.34499 0.0026,-0.42029 0.10916,-0.0752 0.2834,-0.007 0.39402,0.14797 0.1077,0.15937 0.1077,0.34733 -0.0026,0.42409" />
        <path
           style="fill:#ffffff;fill-opacity:1"
           id="path28"
           d="m 33.18,158.5 c -0.09661,0.10655 -0.30238,0.0779 -0.45298,-0.0677 -0.15411,-0.14184 -0.19701,-0.34353 -0.10041,-0.45007 0.09807,-0.10682 0.30501,-0.0768 0.45678,0.0674 0.15294,0.14186 0.19935,0.34499 0.09661,0.45036" />
        <path
           style="fill:#ffffff;fill-opacity:1"
           id="path30"
           d="m 34.494,159.07 c -0.04291,0.13806 -0.24079,0.20051 -0.44043,0.14185 -0.19935,-0.0604 -0.32981,-0.22183 -0.28953,-0.36134 0.04144,-0.13892 0.2405,-0.2043 0.4416,-0.14154 0.19906,0.0602 0.32981,0.22064 0.28837,0.36103" />
        <path
           style="fill:#ffffff;fill-opacity:1"
           id="path32"
           d="m 35.936,159.18 c 0.005,0.14535 -0.16433,0.2659 -0.37389,0.26852 -0.21074,0.004 -0.38148,-0.11295 -0.38381,-0.25597 0,-0.14681 0.16578,-0.26589 0.37622,-0.2697 0.20957,-0.004 0.38148,0.11296 0.38148,0.25715" />
        <path
           style="fill:#ffffff;fill-opacity:1"
           id="path34"
           d="m 37.279,158.95 c 0.02506,0.14156 -0.12054,0.28719 -0.32865,0.32601 -0.2046,0.0376 -0.39402,-0.0502 -0.42,-0.19059 -0.0254,-0.14535 0.12259,-0.291 0.32719,-0.32864 0.20839,-0.0362 0.39489,0.0491 0.42146,0.19322" />
      </g>
    </g>
  </g>
</svg>
